<svg width="500" height="500" viewBox="0 0 500 500" fill="none" xmlns="http://www.w3.org/2000/svg">
<g clip-path="url(#clip0_3396_36413)">
<path d="M485.007 0H14C5.71573 0 -1 6.71573 -1 15V485.135C-1 493.419 5.71573 500.135 14 500.135H485.007C493.291 500.135 500.007 493.419 500.007 485.135V15C500.007 6.71573 493.291 0 485.007 0Z" fill="#002B47"/>
<path d="M18.375 279.369H53.5869V314H18.375V279.369ZM120.989 336.196C124.553 339.218 130.557 340.729 139.002 340.729C150.933 340.729 158.913 336.739 162.941 328.759C165.576 323.646 166.893 315.046 166.893 302.96V294.825C163.716 300.248 160.307 304.316 156.666 307.027C150.081 312.063 141.52 314.581 130.983 314.581C114.714 314.581 101.698 308.887 91.9365 297.498C82.2523 286.032 77.4102 270.537 77.4102 251.014C77.4102 232.188 82.0973 216.383 91.4717 203.6C100.846 190.739 114.133 184.309 131.332 184.309C137.685 184.309 143.224 185.277 147.95 187.214C156.007 190.545 162.515 196.666 167.474 205.575V187.33H199.664V307.492C199.664 323.839 196.914 336.158 191.413 344.447C181.961 358.702 163.832 365.83 137.026 365.83C120.834 365.83 107.625 362.654 97.3984 356.301C87.1719 349.948 81.5163 340.457 80.4316 327.829H116.457C117.387 331.703 118.897 334.492 120.989 336.196ZM115.411 270.77C119.905 281.461 127.962 286.807 139.583 286.807C147.33 286.807 153.877 283.901 159.223 278.091C164.568 272.203 167.241 262.867 167.241 250.084C167.241 238.076 164.685 228.934 159.571 222.658C154.535 216.383 147.757 213.245 139.234 213.245C127.613 213.245 119.595 218.707 115.179 229.631C112.854 235.441 111.692 242.608 111.692 251.13C111.692 258.49 112.932 265.036 115.411 270.77ZM336.328 203.367C347.02 216.77 352.365 232.614 352.365 250.897C352.365 269.491 347.02 285.412 336.328 298.66C325.637 311.831 309.406 318.416 287.636 318.416C265.866 318.416 249.635 311.831 238.943 298.66C228.252 285.412 222.906 269.491 222.906 250.897C222.906 232.614 228.252 216.77 238.943 203.367C249.635 189.964 265.866 183.263 287.636 183.263C309.406 183.263 325.637 189.964 336.328 203.367ZM287.52 211.27C277.835 211.27 270.359 214.717 265.091 221.612C259.9 228.43 257.305 238.192 257.305 250.897C257.305 263.603 259.9 273.404 265.091 280.299C270.359 287.194 277.835 290.642 287.52 290.642C297.204 290.642 304.641 287.194 309.832 280.299C315.023 273.404 317.618 263.603 317.618 250.897C317.618 238.192 315.023 228.43 309.832 221.612C304.641 214.717 297.204 211.27 287.52 211.27ZM358.994 187.33H396.181L422.561 280.764L449.522 187.33H485.083L439.412 314H404.432L358.994 187.33Z" fill="#7AB9D5"/>
</g>
<defs>
<clipPath id="clip0_3396_36413">
<rect width="500" height="500" fill="white"/>
</clipPath>
</defs>
</svg>
