<svg width="60" height="57" viewBox="0 0 60 57" fill="none" xmlns="http://www.w3.org/2000/svg">
<ellipse opacity="0.8" cx="29.7517" cy="28.4021" rx="29.5" ry="28" fill="#D6E3EC"/>
<path opacity="0.9" d="M29.7517 3.1521C43.4071 3.1521 54.5017 14.4431 54.5017 28.4021C54.5017 42.3611 43.4071 53.6521 29.7517 53.6521C16.0963 53.6521 5.00171 42.3611 5.00171 28.4021C5.00171 14.4431 16.0963 3.1521 29.7517 3.1521Z" stroke="#7AB9D5" stroke-width="1.5"/>
<path opacity="0.9" d="M2.40319 11.2389C3.33447 9.81828 4.94253 8.85729 7.17566 8.4029C9.41288 7.94778 12.2202 8.01612 15.426 8.6104C21.834 9.79834 29.6862 13.0601 37.4373 18.1412C45.1886 23.2225 51.3123 29.1223 54.9576 34.5249C56.7813 37.2276 57.9629 39.7742 58.4379 42.0072C58.9121 44.2365 58.673 46.0947 57.7417 47.5154C56.8103 48.936 55.2016 49.8966 52.9684 50.3509C50.7312 50.8059 47.9245 50.7382 44.7189 50.1439C38.3107 48.956 30.4584 45.6929 22.7072 40.6117C14.9563 35.5306 8.83258 29.6318 5.18722 24.2294C3.36358 21.5267 2.18117 18.9796 1.70615 16.7465C1.23199 14.5174 1.47201 12.6596 2.40319 11.2389Z" stroke="#7AB9D5" stroke-width="1.5"/>
<path opacity="0.9" d="M7.36058 53.0018C4.61127 50.3639 4.34211 45.3012 6.61906 38.8989C8.87021 32.5693 13.5203 25.23 20.0598 18.414C26.5995 11.5979 33.7404 6.64754 39.9715 4.13644C46.274 1.5966 51.343 1.6567 54.0923 4.2945C56.8414 6.93234 57.1105 11.994 54.8338 18.396C52.5827 24.7258 47.932 32.0655 41.3924 38.8816C34.8528 45.6976 27.7124 50.6474 21.4813 53.1585C15.1789 55.6983 10.1099 55.6394 7.36058 53.0018Z" stroke="#7AB9D5" stroke-width="1.5"/>
<path opacity="0.9" d="M30.2517 3.1521C31.0013 3.1521 31.8585 3.64787 32.7595 4.88647C33.6486 6.10865 34.4806 7.92568 35.1921 10.238C36.6123 14.8537 37.5017 21.2759 37.5017 28.4021C37.5017 35.5283 36.6123 41.9505 35.1921 46.5662C34.4806 48.8785 33.6486 50.6955 32.7595 51.9177C31.8585 53.1563 31.0013 53.6521 30.2517 53.6521C29.5021 53.6521 28.6449 53.1563 27.7439 51.9177C26.8548 50.6955 26.0228 48.8785 25.3113 46.5662C23.8911 41.9505 23.0017 35.5283 23.0017 28.4021C23.0017 21.2759 23.8911 14.8537 25.3113 10.238C26.0228 7.92568 26.8548 6.10865 27.7439 4.88647C28.6449 3.64787 29.5021 3.1521 30.2517 3.1521Z" stroke="#7AB9D5" stroke-width="1.5"/>
<ellipse cx="15.3609" cy="23.5319" rx="3.13004" ry="3.13006" fill="#005B84"/>
<path d="M29.9459 18.2189C35.8949 18.2191 40.7174 23.0423 40.7174 28.9913C40.7172 34.9402 35.8948 39.7626 29.9459 39.7628C23.9969 39.7628 19.1737 34.9404 19.1735 28.9913C19.1735 23.0421 23.9967 18.2189 29.9459 18.2189Z" fill="#002B47" stroke="#7AB9D5" stroke-width="0.931558"/>
<g clip-path="url(#clip0_420_5421)">
<path fill-rule="evenodd" clip-rule="evenodd" d="M29.9469 28.0896C30.9735 28.0896 31.8805 28.3352 32.6174 28.6564C33.2976 28.9587 33.7259 29.639 33.7259 30.3759L33.7259 32.402C33.7259 33.5065 32.8304 34.402 31.7259 34.402H28.168C27.0634 34.402 26.168 33.5065 26.168 32.402V30.3821C26.168 29.639 26.5963 28.9587 27.2765 28.6627C28.0134 28.3352 28.9203 28.0896 29.9469 28.0896ZM24.9083 28.247C25.6011 28.247 26.168 27.6802 26.168 26.9874C26.168 26.2946 25.6011 25.7277 24.9083 25.7277C24.2155 25.7277 23.6487 26.2946 23.6487 26.9874C23.6487 27.6802 24.2155 28.247 24.9083 28.247ZM25.62 28.9398C25.387 28.9021 25.154 28.8769 24.9083 28.8769C24.2848 28.8769 23.6928 29.0091 23.1574 29.2422C22.6914 29.4437 22.389 29.8972 22.389 30.4073V31.402C22.389 31.9543 22.8368 32.402 23.389 32.402H25.2232V30.3821C25.2232 29.8594 25.3681 29.3681 25.62 28.9398ZM34.9855 28.247C35.6783 28.247 36.2451 27.6802 36.2451 26.9874C36.2451 26.2946 35.6783 25.7277 34.9855 25.7277C34.2927 25.7277 33.7259 26.2946 33.7259 26.9874C33.7259 27.6802 34.2927 28.247 34.9855 28.247ZM37.5048 30.4073C37.5048 29.8972 37.2025 29.4437 36.7364 29.2422C36.2011 29.0091 35.609 28.8769 34.9855 28.8769C34.7399 28.8769 34.5068 28.9021 34.2738 28.9398C34.5257 29.3681 34.6706 29.8594 34.6706 30.3821V32.402H36.5048C37.0571 32.402 37.5048 31.9543 37.5048 31.402V30.4073ZM29.9469 23.8383C30.9924 23.8383 31.8364 24.6822 31.8364 25.7277C31.8364 26.7732 30.9924 27.6172 29.9469 27.6172C28.9014 27.6172 28.0574 26.7732 28.0574 25.7277C28.0574 24.6822 28.9014 23.8383 29.9469 23.8383Z" fill="#D6E9F2"/>
</g>
<ellipse cx="3.22098" cy="3.221" rx="3.22098" ry="3.221" transform="matrix(1 0 0 -1 41 38.844)" fill="#005B84"/>
<circle cx="24.7517" cy="11.9021" r="3.5" fill="#005B84"/>
<ellipse cx="2.14732" cy="2.14733" rx="2.14732" ry="2.14733" transform="matrix(1 0 0 -1 14.2517 51.6968)" fill="#005B84"/>
<circle cx="47.7517" cy="11.9021" r="3.5" fill="#005288"/>
<circle cx="1.5" cy="1.5" r="1.5" transform="matrix(1 0 0 -1 4 35.4021)" fill="#005B84"/>
<circle cx="1.5" cy="1.5" r="1.5" transform="matrix(1 0 0 -1 45.2517 48.4021)" fill="#005B84"/>
<circle cx="1.5" cy="1.5" r="1.5" transform="matrix(1 0 0 -1 21.2517 5.4021)" fill="#005B84"/>
<defs>
<clipPath id="clip0_420_5421">
<rect width="15.1158" height="15.1158" fill="white" transform="translate(22.389 20.0592)"/>
</clipPath>
</defs>
</svg>
