<svg width="100" height="201" viewBox="0 0 100 201" fill="none" xmlns="http://www.w3.org/2000/svg">
<g opacity="0.25" clip-path="url(#clip0_454_12051)">
<mask id="mask0_454_12051" style="mask-type:alpha" maskUnits="userSpaceOnUse" x="0" y="0" width="100" height="201">
<path d="M100 0H0V201H100V0Z" fill="#002B47"/>
</mask>
<g mask="url(#mask0_454_12051)">
<g opacity="0.5">
<path fill-rule="evenodd" clip-rule="evenodd" d="M106.774 -1.5H106.8V1.5H106.775C105.947 1.50021 105.275 0.828797 105.275 0.00036943C105.274 -0.828058 105.946 -1.49979 106.774 -1.5ZM96.1502 0.538783C96.2479 1.36143 95.6602 2.10749 94.8375 2.20516L94.788 2.21105C93.9654 2.30913 93.219 1.72178 93.1209 0.899177C93.0229 0.0765756 93.6102 -0.669778 94.4328 -0.767851L94.4838 -0.77392C95.3065 -0.871585 96.0525 -0.283867 96.1502 0.538783ZM84.1328 2.5193C84.3284 3.32433 83.8343 4.13543 83.0292 4.33094L82.9809 4.34269C82.176 4.53861 81.3646 4.04491 81.1687 3.23999C80.9728 2.43506 81.4665 1.62371 82.2714 1.42779L82.3212 1.41569C83.1262 1.22017 83.9373 1.71428 84.1328 2.5193ZM72.4397 5.92922C72.7308 6.70484 72.3379 7.56954 71.5623 7.86059L71.5156 7.87813C70.7402 8.16957 69.8752 7.77718 69.5838 7.00171C69.2924 6.22624 69.6848 5.36134 70.4602 5.0699L70.5083 5.05183C71.284 4.76078 72.1487 5.1536 72.4397 5.92922ZM61.2415 10.7232C61.6237 11.4581 61.3379 12.3638 60.6029 12.7461L60.5587 12.7691C59.824 13.1518 58.9182 12.8663 58.5355 12.1316C58.1528 11.3968 58.4383 10.491 59.173 10.1083L59.2185 10.0846C59.9535 9.70234 60.8592 9.98823 61.2415 10.7232ZM50.7016 16.8282C51.1693 17.512 50.9941 18.4455 50.3104 18.9132L50.2692 18.9413C49.5857 19.4094 48.6521 19.2347 48.1841 18.5512C47.716 17.8676 47.8907 16.9341 48.5743 16.466L48.6166 16.437C49.3004 15.9693 50.2339 16.1445 50.7016 16.8282ZM40.9688 24.1532C41.515 24.7761 41.4529 25.7238 40.8301 26.27L40.7926 26.3029C40.17 26.8494 39.2223 26.7878 38.6758 26.1652C38.1292 25.5426 38.1909 24.5949 38.8135 24.0483L38.852 24.0145C39.4749 23.4683 40.4226 23.5304 40.9688 24.1532ZM32.1833 32.5906C32.8002 33.1435 32.8521 34.0918 32.2992 34.7087L32.266 34.7458C31.7133 35.363 30.765 35.4154 30.1479 34.8628C29.5307 34.3101 29.4783 33.3618 30.0309 32.7447L30.0652 32.7064C30.6181 32.0895 31.5664 32.0377 32.1833 32.5906ZM24.4734 42.021C25.1524 42.4957 25.318 43.4309 24.8433 44.1098L24.8148 44.1507C24.3404 44.8298 23.4053 44.9959 22.7261 44.5216C22.0469 44.0472 21.8809 43.1121 22.3552 42.4329L22.3846 42.3908C22.8593 41.7119 23.7945 41.5463 24.4734 42.021ZM17.9573 52.3122C18.6887 52.7011 18.9663 53.6094 18.5774 54.3408L18.554 54.3848C18.1655 55.1164 17.2573 55.3945 16.5257 55.0059C15.7941 54.6174 15.516 53.7092 15.9045 52.9776L15.9286 52.9323C16.3176 52.2009 17.2258 51.9232 17.9573 52.3122ZM12.7395 63.3185C13.5129 63.6153 13.8993 64.4829 13.6025 65.2563L13.5846 65.3029C13.2882 66.0765 12.4208 66.4633 11.6472 66.1669C10.8736 65.8705 10.4868 65.0031 10.7832 64.2295L10.8016 64.1815C11.0984 63.4081 11.966 63.0217 12.7395 63.3185ZM6.51807 86.8225C7.34043 86.9226 7.92592 87.6704 7.82581 88.4928L7.8198 88.5423C7.7201 89.3647 6.97259 89.9506 6.15018 89.8509C5.32777 89.7512 4.7419 89.0037 4.8416 88.1813L4.84779 88.1303C4.94791 87.3079 5.69571 86.7224 6.51807 86.8225ZM5.60047 98.9746C6.4289 98.9748 7.1003 99.6465 7.1001 100.475V100.525C7.1003 101.353 6.4289 102.025 5.60047 102.025C4.77204 102.026 4.1003 101.354 4.1001 100.526V100.474C4.1003 99.6458 4.77204 98.9744 5.60047 98.9746ZM6.15018 111.149C6.97259 111.049 7.7201 111.635 7.8198 112.458L7.82581 112.507C7.92592 113.33 7.34043 114.077 6.51807 114.177C5.69572 114.278 4.94791 113.692 4.8478 112.87L4.8416 112.819C4.7419 111.996 5.32778 111.249 6.15018 111.149ZM8.17117 123.159C8.97524 122.96 9.78872 123.45 9.98812 124.254L10.0001 124.302C10.1999 125.106 9.71015 125.92 8.90618 126.12C8.10222 126.32 7.28849 125.83 7.08867 125.026L7.07633 124.976C6.87692 124.172 7.3671 123.359 8.17117 123.159ZM11.6472 134.833C12.4208 134.537 13.2882 134.924 13.5846 135.697L13.6025 135.744C13.8993 136.517 13.5129 137.385 12.7395 137.682C11.966 137.978 11.0984 137.592 10.8016 136.818L10.7832 136.771C10.4868 135.997 10.8736 135.13 11.6472 134.833ZM16.5257 145.994C17.2573 145.605 18.1655 145.884 18.554 146.615L18.5774 146.659C18.9663 147.391 18.6887 148.299 17.9572 148.688C17.2258 149.077 16.3175 148.799 15.9286 148.068L15.9045 148.022C15.516 147.291 15.7941 146.383 16.5257 145.994ZM22.7261 156.478C23.4053 156.004 24.3404 156.17 24.8147 156.849L24.8433 156.89C25.318 157.569 25.1524 158.504 24.4734 158.979C23.7945 159.454 22.8593 159.288 22.3846 158.609L22.3552 158.567C21.8809 157.888 22.0469 156.953 22.7261 156.478ZM30.1478 166.137C30.765 165.585 31.7133 165.637 32.2659 166.254L32.2992 166.291C32.8521 166.908 32.8002 167.856 32.1833 168.409C31.5664 168.962 30.6181 168.91 30.0652 168.294L30.0309 168.255C29.4783 167.638 29.5307 166.69 30.1478 166.137ZM38.6758 174.835C39.2223 174.212 40.17 174.151 40.7926 174.697L40.83 174.73C41.4529 175.276 41.515 176.224 40.9688 176.847C40.4226 177.47 39.4749 177.532 38.852 176.985L38.8134 176.952C38.1909 176.405 38.1292 175.457 38.6758 174.835ZM48.1841 182.449C48.6521 181.765 49.5857 181.591 50.2692 182.059L50.3103 182.087C50.9941 182.555 51.1693 183.488 50.7015 184.172C50.2338 184.856 49.3004 185.031 48.6166 184.563L48.5742 184.534C47.8907 184.066 47.716 183.132 48.1841 182.449ZM58.5355 188.868C58.9181 188.134 59.824 187.848 60.5587 188.231L60.6029 188.254C61.3378 188.636 61.6237 189.542 61.2414 190.277C60.8591 191.012 59.9535 191.298 59.2185 190.915L59.173 190.892C58.4383 190.509 58.1528 189.603 58.5355 188.868ZM69.5838 193.998C69.8752 193.223 70.7402 192.83 71.5156 193.122L71.5623 193.139C72.3379 193.43 72.7308 194.295 72.4397 195.071C72.1487 195.846 71.284 196.239 70.5083 195.948L70.4602 195.93C69.6848 195.639 69.2924 194.774 69.5838 193.998ZM81.1687 197.76C81.3646 196.955 82.176 196.461 82.9809 196.657L83.0292 196.669C83.8343 196.865 84.3284 197.676 84.1329 198.481C83.9373 199.286 83.1262 199.78 82.3212 199.584L82.2714 199.572C81.4665 199.376 80.9728 198.565 81.1687 197.76ZM93.121 200.101C93.219 199.278 93.9654 198.691 94.788 198.789L94.8375 198.795C95.6602 198.893 96.2479 199.639 96.1502 200.461C96.0526 201.284 95.3065 201.872 94.4839 201.774L94.4328 201.768C93.6102 201.67 93.0229 200.923 93.121 200.101ZM105.275 201C105.275 200.171 105.947 199.5 106.775 199.5H106.8V202.5H106.774C105.946 202.5 105.274 201.828 105.275 201Z" fill="#7AA5C1"/>
<path fill-rule="evenodd" clip-rule="evenodd" d="M106.255 -1.125H106.28V1.125H106.256C105.635 1.12518 105.131 0.621646 105.131 0.000325918C105.13 -0.620994 105.634 -1.12482 106.255 -1.125ZM94.9107 0.767654C95.0036 1.38199 94.5809 1.95532 93.9666 2.04822L93.9198 2.05531C93.3055 2.14856 92.7319 1.72619 92.6387 1.1119C92.5454 0.497621 92.9678 -0.0759501 93.5821 -0.169204L93.6302 -0.176492C94.2445 -0.269391 94.8178 0.153318 94.9107 0.767654ZM82.6555 3.40585C82.8396 3.99928 82.5077 4.62956 81.9143 4.81361L81.869 4.82768C81.2757 5.01208 80.6452 4.68057 80.4608 4.08725C80.2764 3.49392 80.6079 2.86345 81.2012 2.67905L81.2478 2.6646C81.8412 2.48055 82.4715 2.81241 82.6555 3.40585ZM70.9303 7.84173C71.1996 8.40164 70.9641 9.07387 70.4042 9.3432L70.3614 9.36378C69.8017 9.63342 69.1293 9.39823 68.8596 8.83847C68.59 8.27871 68.8252 7.60634 69.385 7.3367L69.4288 7.31558C69.9888 7.04625 70.661 7.28181 70.9303 7.84173ZM59.9707 13.9331C60.3169 14.4491 60.1791 15.148 59.6631 15.4941L59.6238 15.5205C59.1079 15.8669 58.409 15.7296 58.0626 15.2137C57.7162 14.6979 57.8536 13.999 58.3694 13.6526L58.4098 13.6255C58.9258 13.2794 59.6246 13.4171 59.9707 13.9331ZM49.9696 21.4946C50.3827 21.9586 50.3414 22.6697 49.8774 23.0829L49.8419 23.1145C49.378 23.5279 48.6669 23.487 48.2535 23.0231C47.8401 22.5593 47.881 21.8482 48.3449 21.4348L48.3812 21.4024C48.8453 20.9892 49.5564 21.0305 49.9696 21.4946ZM41.07 30.3272C41.5402 30.7333 41.5922 31.4437 41.1861 31.9139L41.155 31.9499C40.7491 32.4203 40.0387 32.4726 39.5683 32.0668C39.0979 31.6609 39.0456 30.9505 39.4514 30.4801L39.4832 30.4433C39.8893 29.973 40.5997 29.9211 41.07 30.3272ZM33.379 40.2331C33.8966 40.5768 34.0377 41.275 33.694 41.7926L33.6678 41.8322C33.3244 42.35 32.6262 42.4913 32.1084 42.1479C31.5906 41.8045 31.4493 41.1064 31.7927 40.5886L31.8195 40.5482C32.1632 40.0305 32.8614 39.8895 33.379 40.2331ZM26.979 51.0186C27.5347 51.2964 27.76 51.9722 27.4821 52.5279L27.4608 52.5706C27.1832 53.1264 26.5076 53.352 25.9517 53.0744C25.3959 52.7969 25.1703 52.1212 25.4479 51.5653L25.4696 51.5218C25.7475 50.966 26.4232 50.7408 26.979 51.0186ZM21.9307 62.4959C22.5156 62.7056 22.8198 63.3497 22.6102 63.9346L22.5941 63.9793C22.3847 64.5643 21.7408 64.8688 21.1558 64.6594C20.5708 64.4501 20.2663 63.8061 20.4757 63.2211L20.4921 63.1754C20.7017 62.5905 21.3458 62.2863 21.9307 62.4959ZM18.2721 74.4958C18.8775 74.6357 19.2548 75.2399 19.115 75.8453L19.1043 75.8914C18.9647 76.4969 18.3607 76.8745 17.7553 76.7348C17.1498 76.5952 16.7722 75.9912 16.9118 75.3858L16.9227 75.3387C17.0626 74.7333 17.6668 74.3559 18.2721 74.4958ZM16.0295 86.83C16.6469 86.8997 17.0909 87.4567 17.0212 88.0741L17.0158 88.1214C16.9464 88.7389 16.3896 89.1831 15.7722 89.1136C15.1547 89.0442 14.7105 88.4874 14.7799 87.8699L14.7854 87.8217C14.8551 87.2043 15.4121 86.7603 16.0295 86.83ZM15.2 99.3508C15.8214 99.3509 16.3249 99.8547 16.3248 100.476V100.524C16.3249 101.145 15.8214 101.649 15.2 101.649C14.5787 101.649 14.0749 101.146 14.0748 100.524V100.476C14.0749 99.8543 14.5787 99.3507 15.2 99.3508ZM15.7722 111.886C16.3896 111.817 16.9464 112.261 17.0158 112.879L17.0212 112.926C17.0909 113.543 16.6469 114.1 16.0295 114.17C15.4121 114.24 14.8551 113.796 14.7854 113.178L14.7799 113.13C14.7105 112.513 15.1547 111.956 15.7722 111.886ZM17.7553 124.265C18.3607 124.126 18.9647 124.503 19.1043 125.109L19.115 125.155C19.2549 125.76 18.8775 126.364 18.2722 126.504C17.6668 126.644 17.0626 126.267 16.9227 125.661L16.9119 125.614C16.7722 125.009 17.1498 124.405 17.7553 124.265ZM21.1558 136.341C21.7408 136.131 22.3847 136.436 22.5941 137.021L22.6102 137.065C22.8198 137.65 22.5156 138.294 21.9307 138.504C21.3458 138.714 20.7017 138.41 20.4921 137.825L20.4757 137.779C20.2663 137.194 20.5708 136.55 21.1558 136.341ZM25.9517 147.926C26.5076 147.648 27.1833 147.874 27.4608 148.429L27.4821 148.472C27.76 149.028 27.5347 149.704 26.979 149.981C26.4232 150.259 25.7475 150.034 25.4697 149.478L25.4479 149.435C25.1703 148.879 25.3959 148.203 25.9517 147.926ZM32.1084 158.852C32.6262 158.509 33.3244 158.65 33.6678 159.168L33.694 159.207C34.0377 159.725 33.8966 160.423 33.379 160.767C32.8614 161.111 32.1632 160.969 31.8195 160.452L31.7927 160.411C31.4493 159.894 31.5906 159.195 32.1084 158.852ZM39.5683 168.933C40.0388 168.527 40.7491 168.58 41.155 169.05L41.1861 169.086C41.5922 169.556 41.5402 170.267 41.07 170.673C40.5997 171.079 39.8893 171.027 39.4832 170.557L39.4514 170.52C39.0456 170.049 39.0979 169.339 39.5683 168.933ZM48.2535 177.977C48.6669 177.513 49.378 177.472 49.8419 177.885L49.8774 177.917C50.3414 178.33 50.3827 179.041 49.9696 179.505C49.5564 179.969 48.8453 180.011 48.3812 179.598L48.3449 179.565C47.881 179.152 47.8401 178.441 48.2535 177.977ZM58.0626 185.786C58.409 185.27 59.1079 185.133 59.6238 185.479L59.6631 185.506C60.1791 185.852 60.3169 186.551 59.9708 187.067C59.6246 187.583 58.9258 187.721 58.4098 187.374L58.3694 187.347C57.8536 187.001 57.7162 186.302 58.0626 185.786ZM68.8596 192.162C69.1293 191.602 69.8017 191.367 70.3614 191.636L70.4042 191.657C70.9641 191.926 71.1996 192.598 70.9303 193.158C70.661 193.718 69.9888 193.954 69.4288 193.684L69.385 193.663C68.8252 193.394 68.59 192.721 68.8596 192.162ZM80.4608 196.913C80.6452 196.319 81.2757 195.988 81.869 196.172L81.9143 196.186C82.5077 196.37 82.8396 197.001 82.6555 197.594C82.4715 198.188 81.8412 198.519 81.2478 198.335L81.2012 198.321C80.6079 198.137 80.2764 197.506 80.4608 196.913ZM92.6387 199.888C92.7319 199.274 93.3055 198.851 93.9198 198.945L93.9666 198.952C94.5809 199.045 95.0036 199.618 94.9107 200.232C94.8178 200.847 94.2445 201.269 93.6302 201.176L93.5821 201.169C92.9678 201.076 92.5454 200.502 92.6387 199.888ZM105.131 201C105.131 200.378 105.635 199.875 106.256 199.875H106.28V202.125H106.255C105.634 202.125 105.13 201.621 105.131 201Z" fill="#7AA5C1"/>
<path fill-rule="evenodd" clip-rule="evenodd" d="M106.534 -1.5H106.56V1.5H106.535C105.707 1.50031 105.035 0.828991 105.035 0.000563979C105.035 -0.827863 105.706 -1.49969 106.534 -1.5ZM96.2095 0.796385C96.3576 1.61147 95.8169 2.39227 95.0018 2.54036L94.9544 2.549C94.1394 2.69769 93.3582 2.15757 93.2095 1.34259C93.0608 0.527619 93.601 -0.253588 94.4159 -0.402282L94.4656 -0.411318C95.2807 -0.559406 96.0615 -0.0186986 96.2095 0.796385ZM84.67 3.69928C84.9591 4.47564 84.564 5.33933 83.7877 5.62839L83.7423 5.64529C82.9662 5.9349 82.1022 5.54048 81.8126 4.76433C81.523 3.98818 81.9174 3.1242 82.6936 2.83459L82.7409 2.81694C83.5173 2.52788 84.3809 2.92292 84.67 3.69928ZM73.8032 8.5486C74.2169 9.26634 73.9705 10.1835 73.2527 10.5972L73.2107 10.6215C72.4933 11.0356 71.5759 10.7898 71.1617 10.0723C70.7475 9.35485 70.9934 8.43748 71.7109 8.0233L71.7546 7.99808C72.4723 7.58439 73.3895 7.83086 73.8032 8.5486ZM63.8566 15.0835C64.3749 15.7298 64.2712 16.6739 63.6249 17.1922L63.587 17.2226C62.941 17.7412 61.9969 17.638 61.4782 16.9921C60.9596 16.3461 61.0628 15.402 61.7087 14.8833L61.748 14.8518C62.3943 14.3335 63.3384 14.4373 63.8566 15.0835ZM54.9799 23.015C55.5831 23.5829 55.6117 24.5322 55.0439 25.1354L55.0106 25.1707C54.4431 25.7742 53.4938 25.8034 52.8903 25.2359C52.2868 24.6683 52.2576 23.719 52.8252 23.1155L52.8596 23.079C53.4274 22.4758 54.3768 22.4472 54.9799 23.015ZM47.249 32.073C47.9196 32.5593 48.0691 33.4973 47.5828 34.1679L47.5543 34.2072C47.0684 34.8781 46.1305 35.028 45.4596 34.542C44.7887 34.0561 44.6388 33.1182 45.1247 32.4473L45.1541 32.4068C45.6404 31.7362 46.5783 31.5867 47.249 32.073ZM40.7007 42.0145C41.424 42.4183 41.6831 43.3321 41.2793 44.0554L41.2555 44.0981C40.852 44.8216 39.9384 45.0811 39.2148 44.6776C38.4913 44.2742 38.2318 43.3605 38.6353 42.637L38.6598 42.5931C39.0636 41.8698 39.9773 41.6107 40.7007 42.0145ZM35.3385 52.645C36.1021 52.9663 36.4605 53.8458 36.1392 54.6094L36.1203 54.6543C35.7993 55.418 34.92 55.7768 34.1563 55.4558C33.3926 55.1348 33.0337 54.2555 33.3547 53.4918L33.3741 53.4457C33.6955 52.6821 34.575 52.3236 35.3385 52.645ZM31.1583 63.7973C31.9513 64.0367 32.4001 64.8738 32.1607 65.6668L32.1465 65.7137C31.9074 66.5069 31.0706 66.956 30.2774 66.7169C29.4843 66.4778 29.0351 65.641 29.2742 64.8478L29.2887 64.7997C29.5282 64.0066 30.3652 63.5578 31.1583 63.7973ZM28.1527 75.3176C28.9658 75.4761 29.4966 76.2637 29.3381 77.0768L29.3288 77.1246C29.1707 77.9378 28.3834 78.4689 27.5702 78.3108C26.757 78.1527 26.2259 77.3653 26.384 76.5521L26.3935 76.5031C26.5519 75.69 27.3395 75.1592 28.1527 75.3176ZM26.306 87.0813C27.1307 87.1599 27.7356 87.8921 27.657 88.7168L27.6524 88.7655C27.5742 89.5902 26.8422 90.1954 26.0175 90.1172C25.1927 90.0389 24.5876 89.307 24.6658 88.4822L24.6705 88.4324C24.7491 87.6077 25.4813 87.0028 26.306 87.0813ZM25.6 98.9751C26.4285 98.9753 27.0999 99.647 27.0997 100.475V100.525C27.0999 101.353 26.4285 102.025 25.6 102.025C24.7716 102.025 24.0999 101.354 24.0997 100.525V100.475C24.0999 99.6464 24.7716 98.975 25.6 98.9751ZM26.0175 110.883C26.8422 110.805 27.5742 111.41 27.6524 112.234L27.657 112.283C27.7356 113.108 27.1307 113.84 26.306 113.919C25.4813 113.997 24.7491 113.392 24.6705 112.568L24.6658 112.518C24.5876 111.693 25.1927 110.961 26.0175 110.883ZM30.2774 134.283C31.0706 134.044 31.9074 134.493 32.1465 135.286L32.1607 135.333C32.4001 136.126 31.9513 136.963 31.1583 137.203C30.3652 137.442 29.5282 136.993 29.2887 136.2L29.2742 136.152C29.0351 135.359 29.4843 134.522 30.2774 134.283ZM34.1563 145.544C34.92 145.223 35.7993 145.582 36.1203 146.346L36.1392 146.391C36.4606 147.154 36.1021 148.034 35.3385 148.355C34.575 148.676 33.6955 148.318 33.3741 147.554L33.3547 147.508C33.0337 146.745 33.3926 145.865 34.1563 145.544ZM39.2148 156.322C39.9384 155.919 40.852 156.178 41.2555 156.902L41.2793 156.945C41.6831 157.668 41.424 158.582 40.7007 158.985C39.9773 159.389 39.0636 159.13 38.6598 158.407L38.6353 158.363C38.2318 157.639 38.4913 156.726 39.2148 156.322ZM45.4596 166.458C46.1305 165.972 47.0684 166.122 47.5543 166.793L47.5828 166.832C48.0691 167.503 47.9196 168.441 47.249 168.927C46.5783 169.413 45.6404 169.264 45.1541 168.593L45.1248 168.553C44.6388 167.882 44.7887 166.944 45.4596 166.458ZM52.8903 175.764C53.4938 175.197 54.4431 175.226 55.0106 175.829L55.0439 175.865C55.6118 176.468 55.5831 177.417 54.9799 177.985C54.3768 178.553 53.4275 178.524 52.8596 177.921L52.8252 177.884C52.2577 177.281 52.2868 176.332 52.8903 175.764ZM61.4783 184.008C61.9969 183.362 62.941 183.259 63.587 183.777L63.6249 183.808C64.2712 184.326 64.3749 185.27 63.8566 185.916C63.3384 186.563 62.3943 186.667 61.748 186.148L61.7087 186.117C61.0628 185.598 60.9596 184.654 61.4783 184.008ZM71.1617 190.928C71.5759 190.21 72.4933 189.964 73.2107 190.379L73.2527 190.403C73.9705 190.816 74.2169 191.734 73.8033 192.451C73.3896 193.169 72.4724 193.416 71.7546 193.002L71.7109 192.977C70.9934 192.563 70.7476 191.645 71.1617 190.928ZM81.8126 196.236C82.1022 195.46 82.9662 195.065 83.7424 195.355L83.7877 195.372C84.564 195.661 84.9591 196.524 84.67 197.301C84.381 198.077 83.5173 198.472 82.7409 198.183L82.6936 198.165C81.9174 197.876 81.523 197.012 81.8126 196.236ZM93.2095 199.657C93.3582 198.842 94.1394 198.302 94.9544 198.451L95.0018 198.46C95.8169 198.608 96.3576 199.389 96.2095 200.204C96.0615 201.019 95.2806 201.559 94.4656 201.411L94.4159 201.402C93.601 201.254 93.0608 200.472 93.2095 199.657ZM105.035 200.999C105.035 200.171 105.707 199.5 106.535 199.5H106.56V202.5H106.534C105.706 202.5 105.035 201.828 105.035 200.999Z" fill="#7AA5C1"/>
<path fill-rule="evenodd" clip-rule="evenodd" d="M106.013 -1.49999L106.04 -1.5V1.5L106.014 1.50001C105.186 1.50043 104.514 0.829201 104.514 0.000773549C104.513 -0.827653 105.184 -1.49957 106.013 -1.49999ZM97.1747 0.757079C97.3429 1.56825 96.8216 2.36219 96.0105 2.53038L95.9612 2.54063C95.1502 2.70964 94.3557 2.18921 94.1867 1.37821C94.0177 0.567202 94.5381 -0.227258 95.3491 -0.396272L95.4014 -0.407133C96.2125 -0.575329 97.0065 -0.0540939 97.1747 0.757079ZM87.1512 3.59026C87.4739 4.35326 87.117 5.23338 86.354 5.55606L86.3074 5.57578C85.5447 5.89918 84.6642 5.54305 84.3409 4.78035C84.0175 4.01765 84.3736 3.1372 85.1363 2.81381L85.1854 2.79299C85.9484 2.47031 86.8286 2.82726 87.1512 3.59026ZM77.8383 8.25833C78.2895 8.95305 78.0922 9.88207 77.3975 10.3334L77.3549 10.361C76.6606 10.8129 75.7314 10.6163 75.2796 9.92194C74.8277 9.22759 75.0243 8.29841 75.7186 7.84655L75.7632 7.81756C76.4579 7.36627 77.387 7.56361 77.8383 8.25833ZM69.4333 14.4203C69.9856 15.0379 69.9327 15.9861 69.3151 16.5384L69.2773 16.5722C68.6602 17.1249 67.7119 17.0726 67.1592 16.4555C66.6066 15.8384 66.6588 14.8901 67.2759 14.3374L67.3153 14.3022C67.9328 13.7499 68.8811 13.8028 69.4333 14.4203ZM62.0085 21.7463C62.6379 22.2849 62.7114 23.2318 62.1728 23.8612L62.1394 23.9002C61.6011 24.53 60.6543 24.6041 60.0246 24.0658C59.3948 23.5276 59.3207 22.5807 59.8589 21.951L59.8935 21.9106C60.4322 21.2812 61.3791 21.2076 62.0085 21.7463ZM55.5785 29.9435C56.2662 30.4053 56.4494 31.3372 55.9875 32.025L55.9591 32.0674C55.4976 32.7554 54.5658 32.939 53.8778 32.4776C53.1898 32.0161 53.0061 31.0843 53.4676 30.3963L53.497 30.3525C53.9588 29.6647 54.8907 29.4816 55.5785 29.9435ZM45.5299 48.189C46.295 48.5067 46.6578 49.3844 46.3402 50.1495L46.3206 50.1967C46.0034 50.9619 45.1258 51.3251 44.3605 51.0079C43.5953 50.6906 43.2321 49.813 43.5494 49.0477L43.5694 48.9993C43.8871 48.2342 44.7648 47.8714 45.5299 48.189ZM41.8374 57.9398C42.6272 58.1898 43.0648 59.0328 42.8147 59.8226L42.7993 59.8715C42.5496 60.6614 41.7068 61.0993 40.9169 60.8496C40.127 60.5999 39.6891 59.7572 39.9388 58.9673L39.9546 58.9172C40.2046 58.1274 41.0476 57.6898 41.8374 57.9398ZM36.9413 78.2011C37.7608 78.3227 38.3264 79.0856 38.2048 79.9051L38.1972 79.9561C38.0759 80.7756 37.3132 81.3416 36.4937 81.2202C35.6742 81.0989 35.1082 80.3362 35.2296 79.5167L35.2373 79.4646C35.359 78.6451 36.1219 78.0794 36.9413 78.2011ZM35.6869 88.5559C36.5131 88.6161 37.1341 89.3346 37.074 90.1609L37.0702 90.2124C37.0104 91.0386 36.292 91.6599 35.4658 91.6001C34.6395 91.5402 34.0182 90.8219 34.0781 89.9956L34.0819 89.943C34.1421 89.1168 34.8606 88.4957 35.6869 88.5559ZM35.2 98.9739C36.0284 98.974 36.6999 99.6457 36.6997 100.474V100.526C36.6999 101.354 36.0284 102.026 35.2 102.026C34.3716 102.026 33.6999 101.355 33.6997 100.526V100.474C33.6999 99.6452 34.3716 98.9737 35.2 98.9739ZM35.4658 109.4C36.292 109.34 37.0104 109.961 37.0702 110.788L37.074 110.839C37.1341 111.665 36.5131 112.384 35.6869 112.444C34.8606 112.504 34.1421 111.883 34.0819 111.057L34.0781 111.004C34.0182 110.178 34.6395 109.46 35.4658 109.4ZM38.3033 130.053C39.1109 129.868 39.9152 130.373 40.0997 131.181L40.1112 131.231C40.296 132.039 39.7912 132.843 38.9837 133.028C38.1761 133.213 37.3716 132.708 37.1868 131.901L37.1751 131.849C36.9906 131.042 37.4957 130.237 38.3033 130.053ZM40.9169 140.15C41.7068 139.901 42.5496 140.339 42.7993 141.128L42.8147 141.177C43.0648 141.967 42.6272 142.81 41.8374 143.06C41.0476 143.31 40.2046 142.873 39.9546 142.083L39.9388 142.033C39.6891 141.243 40.127 140.4 40.9169 140.15ZM44.3605 149.992C45.1258 149.675 46.0034 150.038 46.3206 150.803L46.3402 150.85C46.6578 151.616 46.295 152.493 45.5299 152.811C44.7648 153.129 43.8871 152.766 43.5694 152.001L43.5494 151.952C43.2321 151.187 43.5953 150.309 44.3605 149.992ZM48.6655 159.484C49.3976 159.096 50.3053 159.375 50.693 160.107L50.7172 160.153C51.1052 160.885 50.8265 161.793 50.0946 162.181C49.3627 162.569 48.4547 162.29 48.0667 161.558L48.0419 161.511C47.6542 160.779 47.9333 159.871 48.6655 159.484ZM60.0246 176.934C60.6543 176.396 61.6011 176.47 62.1394 177.1L62.1728 177.139C62.7114 177.768 62.6379 178.715 62.0085 179.254C61.3791 179.792 60.4322 179.719 59.8935 179.089L59.8589 179.049C59.3207 178.419 59.3948 177.472 60.0246 176.934ZM67.1592 184.544C67.7119 183.927 68.6602 183.875 69.2774 184.428L69.3151 184.462C69.9327 185.014 69.9856 185.962 69.4333 186.58C68.8811 187.197 67.9328 187.25 67.3153 186.698L67.2759 186.663C66.6588 186.11 66.6066 185.162 67.1592 184.544ZM75.2796 191.078C75.7314 190.384 76.6606 190.187 77.355 190.639L77.3975 190.667C78.0922 191.118 78.2895 192.047 77.8383 192.742C77.387 193.436 76.458 193.634 75.7632 193.182L75.7186 193.153C75.0243 192.702 74.8277 191.772 75.2796 191.078ZM84.3409 196.22C84.6643 195.457 85.5447 195.101 86.3074 195.424L86.354 195.444C87.117 195.767 87.4739 196.647 87.1513 197.41C86.8286 198.173 85.9485 198.53 85.1855 198.207L85.1363 198.186C84.3736 197.863 84.0175 196.982 84.3409 196.22ZM94.1867 199.622C94.3557 198.811 95.1502 198.29 95.9612 198.459L96.0105 198.47C96.8217 198.638 97.3429 199.432 97.1747 200.243C97.0065 201.054 96.2126 201.575 95.4014 201.407L95.3491 201.396C94.5381 201.227 94.0177 200.433 94.1867 199.622ZM104.514 200.999C104.514 200.171 105.186 199.5 106.014 199.5H106.04V202.5H106.013C105.184 202.5 104.513 201.828 104.514 200.999Z" fill="#7AA5C1"/>
<path fill-rule="evenodd" clip-rule="evenodd" d="M106.293 -1.12499L106.32 -1.125V1.125L106.295 1.12501C105.674 1.12543 105.17 0.622096 105.169 0.000775456C105.169 -0.620545 105.672 -1.12457 106.293 -1.12499ZM93.4425 2.24828C93.6674 2.82745 93.3803 3.47932 92.8011 3.70427L92.755 3.72222C92.1761 3.94788 91.5239 3.66153 91.2982 3.08264C91.0726 2.50374 91.3589 1.85152 91.9378 1.62586L91.9865 1.60691C92.5657 1.38196 93.2175 1.66911 93.4425 2.24828ZM80.9781 9.12999C81.3644 9.61665 81.283 10.3243 80.7963 10.7106L80.7569 10.7419C80.2706 11.1286 79.5629 11.0478 79.1762 10.5615C78.7895 10.0752 78.8702 9.36753 79.3565 8.98081L79.3975 8.94823C79.8842 8.56196 80.5918 8.64334 80.9781 9.12999ZM70.7328 19.0476C71.2159 19.4385 71.2906 20.1468 70.8998 20.6299L70.8679 20.6693C70.4775 21.1525 69.7691 21.2278 69.2859 20.8373C68.8026 20.4468 68.7273 19.7385 69.1178 19.2552L69.1506 19.2146C69.5414 18.7316 70.2498 18.6568 70.7328 19.0476ZM62.5927 30.7574C63.1332 31.0639 63.3229 31.7505 63.0164 32.291L62.9915 32.3349C62.6853 32.8755 61.9988 33.0655 61.4582 32.7593C60.9176 32.4531 60.7275 31.7666 61.0337 31.226L61.0592 31.1811C61.3657 30.6406 62.0522 30.451 62.5927 30.7574ZM51.5516 57.0359C52.1497 57.2042 52.4981 57.8254 52.3298 58.4235L52.3162 58.4719C52.1481 59.0701 51.527 59.4187 50.9288 59.2506C50.3307 59.0825 49.982 58.4614 50.1501 57.8632L50.1639 57.8141C50.3322 57.216 50.9535 56.8676 51.5516 57.0359ZM48.2659 70.9328C48.8776 71.0417 49.2852 71.6259 49.1762 72.2376L49.1674 72.2871C49.0587 72.8988 48.4747 73.3066 47.8629 73.1979C47.2512 73.0892 46.8434 72.5051 46.9521 71.8934L46.9611 71.8431C47.07 71.2314 47.6542 70.8238 48.2659 70.9328ZM46.3061 85.0806C46.9251 85.1339 47.3837 85.6789 47.3305 86.2979L47.3261 86.348C47.2731 86.9671 46.7282 87.4259 46.1091 87.3728C45.4901 87.3197 45.0313 86.7749 45.0844 86.1558L45.0887 86.105C45.142 85.486 45.687 85.0273 46.3061 85.0806ZM45.5999 99.3494C46.2212 99.3495 46.7248 99.8533 46.7247 100.475V100.525C46.7248 101.147 46.2212 101.65 45.5999 101.651C44.9786 101.651 44.4748 101.147 44.4747 100.526V100.474C44.4748 99.853 44.9786 99.3493 45.5999 99.3494ZM46.1092 113.627C46.7282 113.574 47.2731 114.033 47.3261 114.652L47.3305 114.702C47.3837 115.321 46.9251 115.866 46.3061 115.919C45.687 115.973 45.142 115.514 45.0887 114.895L45.0844 114.844C45.0313 114.225 45.4901 113.68 46.1092 113.627ZM47.8629 127.802C48.4747 127.693 49.0587 128.101 49.1674 128.713L49.1762 128.762C49.2852 129.374 48.8776 129.958 48.2659 130.067C47.6542 130.176 47.07 129.769 46.9611 129.157L46.9521 129.107C46.8434 128.495 47.2512 127.911 47.8629 127.802ZM50.9288 141.749C51.527 141.581 52.1481 141.93 52.3162 142.528L52.3298 142.576C52.4981 143.175 52.1497 143.796 51.5516 143.964C50.9535 144.132 50.3322 143.784 50.1639 143.186L50.1501 143.137C49.982 142.539 50.3307 141.917 50.9288 141.749ZM55.4077 155.303C55.9837 155.07 56.6395 155.348 56.8725 155.924L56.8913 155.97C57.1245 156.546 56.8468 157.202 56.2709 157.435C55.695 157.668 55.0391 157.391 54.8058 156.815L54.7867 156.768C54.5537 156.192 54.8317 155.536 55.4077 155.303ZM69.2859 180.163C69.7691 179.772 70.4775 179.847 70.8679 180.331L70.8998 180.37C71.2906 180.853 71.2159 181.562 70.7328 181.952C70.2498 182.343 69.5414 182.268 69.1506 181.785L69.1178 181.745C68.7273 181.262 68.8026 180.553 69.2859 180.163ZM79.1762 190.438C79.5629 189.952 80.2706 189.871 80.7569 190.258L80.7963 190.289C81.283 190.676 81.3644 191.383 80.9781 191.87C80.5918 192.357 79.8842 192.438 79.3975 192.052L79.3565 192.019C78.8702 191.632 78.7895 190.925 79.1762 190.438ZM91.2982 197.917C91.5239 197.338 92.1761 197.052 92.755 197.278L92.8011 197.296C93.3803 197.521 93.6674 198.173 93.4425 198.752C93.2175 199.331 92.5657 199.618 91.9865 199.393L91.9378 199.374C91.3589 199.148 91.0726 198.496 91.2982 197.917ZM105.169 200.999C105.17 200.378 105.674 199.875 106.295 199.875H106.32V202.125H106.293C105.672 202.125 105.169 201.621 105.169 200.999Z" fill="#7AA5C1"/>
<path fill-rule="evenodd" clip-rule="evenodd" d="M106.573 -1.12499L106.6 -1.125V1.125L106.575 1.12501C105.954 1.12562 105.45 0.622431 105.449 0.00111091C105.449 -0.620209 105.952 -1.12438 106.573 -1.12499ZM95.8624 2.24517C96.1278 2.80694 95.8876 3.47752 95.3259 3.74295L95.2816 3.7639C94.7203 4.03023 94.0493 3.79109 93.783 3.22974C93.5166 2.6684 93.7558 1.99744 94.3171 1.7311L94.3646 1.70861C94.9264 1.44317 95.597 1.6834 95.8624 2.24517ZM85.7104 8.91907C86.1371 9.37072 86.1168 10.0827 85.6652 10.5094L85.6288 10.5438C85.1776 10.971 84.4655 10.9515 84.0384 10.5003C83.6113 10.049 83.6308 9.337 84.082 8.90986L84.1201 8.87382C84.5717 8.44715 85.2838 8.46741 85.7104 8.91907ZM77.6567 18.0386C78.1664 18.394 78.2914 19.0952 77.936 19.6049L77.9073 19.6459C77.5523 20.1558 76.8511 20.2813 76.3412 19.9263C75.8314 19.5712 75.7058 18.87 76.0609 18.3602L76.0904 18.3178C76.4458 17.8082 77.1471 17.6831 77.6567 18.0386ZM71.3131 28.456C71.8681 28.7352 72.0917 29.4115 71.8124 29.9666L71.7903 30.0107C71.5113 30.5658 70.8351 30.7897 70.2799 30.5108C69.7248 30.2318 69.5008 29.5556 69.7798 29.0004L69.8025 28.9553C70.0817 28.4003 70.7581 28.1767 71.3131 28.456ZM66.3457 39.5834C66.9276 39.8011 67.223 40.4492 67.0054 41.0312L66.988 41.0777C66.7706 41.6597 66.1225 41.9554 65.5405 41.738C64.9584 41.5206 64.6628 40.8725 64.8802 40.2905L64.8979 40.2431C65.1155 39.6612 65.7637 39.3658 66.3457 39.5834ZM62.5049 51.1527C63.1038 51.3181 63.4553 51.9377 63.2899 52.5366L63.2764 52.5854C63.1112 53.1844 62.4917 53.536 61.8928 53.3708C61.2938 53.2056 60.9422 52.5862 61.1074 51.9872L61.121 51.9376C61.2864 51.3387 61.906 50.9873 62.5049 51.1527ZM59.6369 62.9951C60.2467 63.1145 60.6442 63.7055 60.5249 64.3153L60.5152 64.3647C60.396 64.9745 59.8051 65.3722 59.1953 65.2531C58.5855 65.1339 58.1878 64.543 58.307 63.9332L58.3168 63.8831C58.4361 63.2734 59.0272 62.8758 59.6369 62.9951ZM57.6358 75.027C58.2523 75.1043 58.6895 75.6667 58.6122 76.2832L58.606 76.3328C58.5289 76.9493 57.9666 77.3866 57.3501 77.3095C56.7336 77.2324 56.2963 76.6701 56.3734 76.0536L56.3797 76.0034C56.4569 75.3869 57.0194 74.9497 57.6358 75.027ZM55.9999 99.3496C56.6212 99.3496 57.1248 99.8534 57.1247 100.475V100.525C57.1248 101.147 56.6212 101.65 55.9999 101.65C55.3786 101.651 54.8748 101.147 54.8747 100.526V100.474C54.8748 99.8531 55.3786 99.3495 55.9999 99.3496ZM56.2987 111.547C56.9189 111.509 57.4522 111.981 57.4899 112.601L57.4929 112.651C57.5308 113.272 57.0587 113.805 56.4385 113.843C55.8184 113.881 55.285 113.409 55.2471 112.789L55.244 112.738C55.2063 112.117 55.6785 111.584 56.2987 111.547ZM57.3501 123.691C57.9666 123.613 58.5289 124.051 58.606 124.667L58.6122 124.717C58.6895 125.333 58.2523 125.896 57.6358 125.973C57.0194 126.05 56.4569 125.613 56.3797 124.997L56.3734 124.946C56.2963 124.33 56.7336 123.768 57.3501 123.691ZM59.1953 135.747C59.8051 135.628 60.396 136.026 60.5152 136.635L60.5249 136.685C60.6442 137.294 60.2467 137.886 59.6369 138.005C59.0272 138.124 58.4361 137.727 58.3168 137.117L58.307 137.067C58.1878 136.457 58.5855 135.866 59.1953 135.747ZM61.8928 147.629C62.4917 147.464 63.1112 147.816 63.2764 148.415L63.2899 148.463C63.4553 149.062 63.1038 149.682 62.5049 149.847C61.906 150.013 61.2864 149.661 61.121 149.062L61.1074 149.013C60.9422 148.414 61.2938 147.794 61.8928 147.629ZM65.5405 159.262C66.1225 159.045 66.7706 159.34 66.988 159.922L67.0054 159.969C67.223 160.551 66.9276 161.199 66.3457 161.417C65.7637 161.634 65.1155 161.339 64.8979 160.757L64.8802 160.71C64.6628 160.127 64.9584 159.479 65.5405 159.262ZM70.2799 170.489C70.8351 170.21 71.5113 170.434 71.7903 170.989L71.8124 171.033C72.0917 171.588 71.8681 172.265 71.3131 172.544C70.7581 172.823 70.0818 172.6 69.8025 172.045L69.7798 172C69.5009 171.444 69.7248 170.768 70.2799 170.489ZM76.3412 181.074C76.8511 180.719 77.5523 180.844 77.9073 181.354L77.936 181.395C78.2914 181.905 78.1664 182.606 77.6567 182.961C77.1471 183.317 76.4458 183.192 76.0904 182.682L76.0609 182.64C75.7058 182.13 75.8314 181.429 76.3412 181.074ZM84.0384 190.5C84.4655 190.049 85.1776 190.029 85.6288 190.456L85.6652 190.491C86.1168 190.917 86.1371 191.629 85.7104 192.081C85.2838 192.533 84.5717 192.553 84.1201 192.126L84.082 192.09C83.6308 191.663 83.6113 190.951 84.0384 190.5ZM93.783 197.77C94.0493 197.209 94.7203 196.97 95.2816 197.236L95.3259 197.257C95.8876 197.522 96.1278 198.193 95.8624 198.755C95.597 199.317 94.9264 199.557 94.3646 199.291L94.3171 199.269C93.7558 199.003 93.5166 198.332 93.783 197.77ZM105.449 200.999C105.45 200.378 105.954 199.874 106.575 199.875H106.6V202.125H106.573C105.952 202.124 105.449 201.62 105.449 200.999Z" fill="#7AA5C1"/>
<path fill-rule="evenodd" clip-rule="evenodd" d="M106.052 -1.49998L106.08 -1.5V1.5L106.056 1.50002C105.228 1.5013 104.555 0.830776 104.554 0.00234962C104.553 -0.826077 105.223 -1.49869 106.052 -1.49998ZM92.5442 5.71165C93.1185 6.30877 93.0999 7.25833 92.5028 7.83257L92.4675 7.86662C91.8712 8.44173 90.9216 8.42457 90.3465 7.82829C89.7714 7.23202 89.7885 6.28242 90.3848 5.70732L90.4233 5.67023C91.0204 5.09599 91.97 5.11454 92.5442 5.71165ZM82.4941 18.7823C83.2243 19.1737 83.4989 20.0828 83.1075 20.813L83.0841 20.8568C82.6931 21.5872 81.7842 21.8624 81.0538 21.4715C80.3234 21.0806 80.0481 20.1716 80.4391 19.4412L80.4634 19.3957C80.8548 18.6655 81.764 18.3909 82.4941 18.7823ZM75.7665 33.8664C76.5499 34.1358 76.9666 34.9892 76.6973 35.7726L76.6806 35.821C76.4116 36.6046 75.5583 37.0216 74.7748 36.7526C73.9913 36.4835 73.5742 35.6302 73.8433 34.8467L73.8603 34.7972C74.1296 34.0138 74.9831 33.597 75.7665 33.8664ZM71.128 49.7414C71.9358 49.9249 72.442 50.7285 72.2585 51.5364L72.2471 51.5864C72.0638 52.3943 71.2603 52.9007 70.4524 52.7174C69.6445 52.5342 69.1382 51.7307 69.3214 50.9228L69.333 50.8719C69.5165 50.064 70.3202 49.5579 71.128 49.7414ZM68.0437 65.9927C68.8641 66.1076 69.436 66.8658 69.3211 67.6862L69.314 67.7368C69.1993 68.5572 68.4412 69.1293 67.6208 69.0146C66.8003 68.8999 66.2282 68.1418 66.3429 67.3213L66.3501 67.2701C66.465 66.4497 67.2233 65.8778 68.0437 65.9927ZM66.247 82.4384C67.0736 82.4936 67.6989 83.2084 67.6437 84.035L67.6402 84.0863C67.5852 84.9129 66.8705 85.5384 66.0439 85.4833C65.2173 85.4283 64.5918 84.7136 64.6469 83.887L64.6503 83.8351C64.7056 83.0085 65.4204 82.3831 66.247 82.4384ZM65.5999 98.9741C66.4283 98.9742 67.0998 99.6458 67.0997 100.474V100.526C67.0998 101.354 66.4283 102.026 65.5999 102.026C64.7715 102.026 64.0998 101.355 64.0997 100.526V100.474C64.0998 99.6455 64.7715 98.974 65.5999 98.9741ZM66.0439 115.517C66.8705 115.462 67.5852 116.087 67.6402 116.914L67.6437 116.965C67.6989 117.792 67.0736 118.506 66.247 118.562C65.4204 118.617 64.7056 117.992 64.6503 117.165L64.6469 117.113C64.5918 116.286 65.2173 115.572 66.0439 115.517ZM67.6208 131.985C68.4412 131.871 69.1993 132.443 69.314 133.263L69.3211 133.314C69.436 134.134 68.8641 134.892 68.0437 135.007C67.2233 135.122 66.465 134.55 66.3501 133.73L66.3429 133.679C66.2282 132.858 66.8003 132.1 67.6208 131.985ZM70.4524 148.283C71.2603 148.099 72.0638 148.606 72.2471 149.414L72.2585 149.464C72.442 150.271 71.9358 151.075 71.128 151.259C70.3201 151.442 69.5165 150.936 69.333 150.128L69.3214 150.077C69.1382 149.269 69.6445 148.466 70.4524 148.283ZM74.7748 164.247C75.5583 163.978 76.4116 164.395 76.6806 165.179L76.6973 165.227C76.9666 166.011 76.5499 166.864 75.7665 167.134C74.9831 167.403 74.1297 166.986 73.8603 166.203L73.8433 166.153C73.5742 165.37 73.9913 164.516 74.7748 164.247ZM81.0538 179.529C81.7842 179.138 82.6931 179.413 83.0841 180.143L83.1075 180.187C83.4989 180.917 83.2243 181.826 82.4941 182.218C81.764 182.609 80.8548 182.334 80.4634 181.604L80.4391 181.559C80.0481 180.828 80.3234 179.919 81.0538 179.529ZM90.3465 193.172C90.9216 192.575 91.8712 192.558 92.4675 193.133L92.5028 193.167C93.0999 193.742 93.1185 194.691 92.5442 195.288C91.97 195.885 91.0204 195.904 90.4233 195.33L90.3848 195.293C89.7885 194.718 89.7714 193.768 90.3465 193.172ZM104.554 200.998C104.555 200.169 105.228 199.499 106.056 199.5H106.08V202.5H106.052C105.223 202.499 104.553 201.826 104.554 200.998Z" fill="#7AA5C1"/>
<path fill-rule="evenodd" clip-rule="evenodd" d="M106.329 -1.87496L106.36 -1.875V1.875L106.339 1.87503C105.304 1.87784 104.462 1.04067 104.459 0.00513506C104.456 -1.0304 105.294 -1.87214 106.329 -1.87496ZM97.2962 4.46027C98.0889 5.12656 98.1914 6.30931 97.5251 7.10202L97.4937 7.13941C96.8289 7.93334 95.6463 8.03798 94.8524 7.37314C94.0585 6.7083 93.9538 5.52574 94.6187 4.73181L94.6544 4.68916C95.3207 3.89646 96.5035 3.79398 97.2962 4.46027ZM90.5451 14.6385C91.4852 15.0726 91.8955 16.1866 91.4614 17.1268L91.4404 17.1723C91.007 18.1127 89.8933 18.5238 88.9528 18.0904C88.0123 17.657 87.6013 16.5432 88.0347 15.6027L88.0568 15.5549C88.4909 14.6147 89.6049 14.2044 90.5451 14.6385ZM85.9677 25.9992C86.9549 26.3117 87.502 27.3654 87.1895 28.3527L87.1743 28.4005C86.8622 29.3878 85.8088 29.9353 84.8214 29.6232C83.834 29.3111 83.2866 28.2576 83.5987 27.2703L83.6143 27.221C83.9268 26.2338 84.9804 25.6868 85.9677 25.9992ZM82.6223 37.7956C83.6314 38.028 84.2611 39.0345 84.0287 40.0436L84.0172 40.0931C83.7851 41.1023 82.7788 41.7322 81.7697 41.5001C80.7605 41.268 80.1305 40.2617 80.3627 39.2525L80.3743 39.2019C80.6067 38.1928 81.6132 37.5632 82.6223 37.7956ZM78.3117 61.9119C79.34 62.0339 80.0747 62.9665 79.9527 63.9948L79.9468 64.045C79.825 65.0733 78.8926 65.8082 77.8642 65.6864C76.8359 65.5646 76.101 64.6322 76.2228 63.6038L76.2289 63.5529C76.3509 62.5246 77.2834 61.7899 78.3117 61.9119ZM77.0514 74.1105C78.084 74.1887 78.8576 75.0891 78.7794 76.1217L78.7756 76.1718C78.6976 77.2044 77.7973 77.9782 76.7647 77.9002C75.7321 77.8221 74.9583 76.9218 75.0363 75.8892L75.0401 75.8385C75.1183 74.8059 76.0188 74.0322 77.0514 74.1105ZM76.2934 86.3384C77.3282 86.3765 78.1362 87.2463 78.0981 88.2812L78.0963 88.3318C78.0583 89.3666 77.1887 90.1747 76.1538 90.1368C75.119 90.0988 74.3108 89.2292 74.3488 88.1943L74.3507 88.1431C74.3888 87.1083 75.2586 86.3003 76.2934 86.3384ZM75.9999 98.5994C77.0354 98.5995 77.8748 99.439 77.8747 100.475V100.525C77.8748 101.561 77.0354 102.401 75.9999 102.401C74.9644 102.401 74.1248 101.561 74.1247 100.526V100.474C74.1248 99.4387 74.9644 98.5993 75.9999 98.5994ZM76.1538 110.863C77.1887 110.825 78.0583 111.633 78.0963 112.668L78.0981 112.719C78.1362 113.754 77.3282 114.623 76.2934 114.662C75.2586 114.7 74.3888 113.892 74.3507 112.857L74.3488 112.806C74.3108 111.771 75.119 110.901 76.1538 110.863ZM76.7647 123.1C77.7973 123.022 78.6976 123.796 78.7756 124.828L78.7794 124.878C78.8576 125.911 78.084 126.811 77.0514 126.89C76.0188 126.968 75.1183 126.194 75.0401 125.161L75.0363 125.111C74.9583 124.078 75.7321 123.178 76.7647 123.1ZM77.8642 135.314C78.8926 135.192 79.825 135.927 79.9468 136.955L79.9527 137.005C80.0747 138.034 79.34 138.966 78.3117 139.088C77.2834 139.21 76.3509 138.475 76.2289 137.447L76.2228 137.396C76.101 136.368 76.8359 135.435 77.8642 135.314ZM81.7697 159.5C82.7788 159.268 83.7851 159.898 84.0172 160.907L84.0286 160.956C84.2611 161.966 83.6314 162.972 82.6223 163.204C81.6132 163.437 80.6067 162.807 80.3743 161.798L80.3627 161.747C80.1305 160.738 80.7605 159.732 81.7697 159.5ZM84.8214 171.377C85.8088 171.065 86.8622 171.612 87.1743 172.6L87.1895 172.647C87.502 173.635 86.955 174.688 85.9677 175.001C84.9804 175.313 83.9268 174.766 83.6143 173.779L83.5987 173.73C83.2866 172.742 83.834 171.689 84.8214 171.377ZM88.9528 182.91C89.8933 182.476 91.007 182.887 91.4404 183.828L91.4614 183.873C91.8955 184.813 91.4852 185.927 90.5451 186.361C89.6049 186.796 88.4909 186.385 88.0568 185.445L88.0347 185.397C87.6013 184.457 88.0123 183.343 88.9528 182.91ZM94.8524 193.627C95.6463 192.962 96.8289 193.067 97.4937 193.861L97.5251 193.898C98.1914 194.691 98.0889 195.873 97.2962 196.54C96.5035 197.206 95.3207 197.104 94.6544 196.311L94.6187 196.268C93.9538 195.474 94.0585 194.292 94.8524 193.627ZM104.459 200.995C104.462 199.959 105.304 199.122 106.339 199.125H106.36V202.875H106.329C105.294 202.872 104.456 202.03 104.459 200.995Z" fill="#7AA5C1"/>
<path fill-rule="evenodd" clip-rule="evenodd" d="M106.609 -1.12491L106.64 -1.125V1.125L106.622 1.12505C106.001 1.12868 105.494 0.627946 105.49 0.00663626C105.487 -0.614673 105.988 -1.12128 106.609 -1.12491ZM99.234 6.90377C99.7951 7.17054 100.034 7.84168 99.767 8.40282L99.7475 8.4439C99.4814 9.00535 98.8105 9.24477 98.2491 8.97866C97.6876 8.71255 97.4482 8.04168 97.7143 7.48023L97.7349 7.43679C98.0017 6.87565 98.6728 6.63701 99.234 6.90377ZM95.113 17.8585C95.7114 18.0256 96.0611 18.6462 95.8941 19.2446L95.881 19.2914C95.7142 19.89 95.0938 20.2399 94.4953 20.0731C93.8968 19.9064 93.5468 19.286 93.7136 18.6874L93.7269 18.6396C93.894 18.0412 94.5145 17.6915 95.113 17.8585ZM92.3581 29.2696C92.9678 29.3892 93.3651 29.9804 93.2454 30.5901L93.2362 30.6372C93.1167 31.2469 92.5256 31.6444 91.9159 31.5249C91.3062 31.4054 90.9087 30.8143 91.0282 30.2045L91.0375 30.1569C91.1572 29.5472 91.7484 29.1499 92.3581 29.2696ZM90.3492 40.8312C90.9642 40.9201 91.3906 41.4907 91.3016 42.1056L91.2947 42.1535C91.2059 42.7684 90.6354 43.1949 90.0204 43.1061C89.4055 43.0173 88.979 42.4468 89.0678 41.8318L89.0748 41.7836C89.1637 41.1686 89.7343 40.7422 90.3492 40.8312ZM88.8537 52.4777C89.4715 52.5434 89.9191 53.0976 89.8533 53.7154L89.8482 53.7634C89.7825 54.3812 89.2284 54.8288 88.6105 54.7631C87.9927 54.6974 87.5451 54.1433 87.6108 53.5255L87.6159 53.4772C87.6817 52.8594 88.2359 52.4119 88.8537 52.4777ZM87.7613 64.1675C88.3808 64.2142 88.8453 64.7543 88.7986 65.3739L88.7949 65.4227C88.7483 66.0423 88.2083 66.5068 87.5887 66.4602C86.9691 66.4136 86.5046 65.8735 86.5512 65.2539L86.5549 65.2048C86.6016 64.5853 87.1417 64.1209 87.7613 64.1675ZM87.0103 75.8768C87.6309 75.9068 88.1097 76.4341 88.0798 77.0547L88.0774 77.1031C88.0475 77.7237 87.5202 78.2026 86.8996 78.1727C86.279 78.1428 85.8001 77.6155 85.83 76.9949L85.8324 76.9463C85.8623 76.3257 86.3897 75.8469 87.0103 75.8768ZM86.5635 87.6071C87.1846 87.6217 87.6763 88.137 87.6617 88.7582L87.6606 88.8069C87.6461 89.4281 87.1307 89.9198 86.5096 89.9053C85.8884 89.8908 85.3967 89.3755 85.4112 88.7543L85.4123 88.7053C85.4269 88.0842 85.9423 87.5925 86.5635 87.6071ZM86.5096 111.095C87.1307 111.08 87.6461 111.572 87.6606 112.193L87.6617 112.242C87.6763 112.863 87.1846 113.378 86.5635 113.393C85.9423 113.408 85.4269 112.916 85.4123 112.295L85.4112 112.246C85.3967 111.625 85.8884 111.109 86.5096 111.095ZM86.8996 122.827C87.5202 122.797 88.0475 123.276 88.0774 123.897L88.0798 123.945C88.1097 124.566 87.6309 125.093 87.0103 125.123C86.3897 125.153 85.8623 124.674 85.8324 124.054L85.83 124.005C85.8001 123.384 86.279 122.857 86.8996 122.827ZM87.5887 134.54C88.2083 134.493 88.7483 134.958 88.7949 135.577L88.7986 135.626C88.8453 136.246 88.3808 136.786 87.7613 136.832C87.1417 136.879 86.6016 136.415 86.5549 135.795L86.5512 135.746C86.5046 135.126 86.9691 134.586 87.5887 134.54ZM90.0204 157.894C90.6354 157.805 91.2059 158.232 91.2947 158.847L91.3016 158.894C91.3906 159.509 90.9642 160.08 90.3492 160.169C89.7343 160.258 89.1637 159.831 89.0748 159.216L89.0678 159.168C88.979 158.553 89.4055 157.983 90.0204 157.894ZM91.9159 169.475C92.5256 169.356 93.1167 169.753 93.2362 170.363L93.2454 170.41C93.3651 171.02 92.9678 171.611 92.3581 171.73C91.7484 171.85 91.1572 171.453 91.0376 170.843L91.0282 170.795C90.9087 170.186 91.3062 169.595 91.9159 169.475ZM94.4953 180.927C95.0938 180.76 95.7142 181.11 95.881 181.709L95.8941 181.755C96.0611 182.354 95.7114 182.974 95.113 183.141C94.5145 183.309 93.894 182.959 93.7269 182.36L93.7136 182.313C93.5468 181.714 93.8968 181.094 94.4953 180.927ZM98.2491 192.021C98.8105 191.755 99.4814 191.995 99.7475 192.556L99.767 192.597C100.034 193.158 99.7951 193.829 99.234 194.096C98.6728 194.363 98.0017 194.124 97.7349 193.563L97.7143 193.52C97.4482 192.958 97.6876 192.287 98.2491 192.021ZM105.49 200.993C105.494 200.372 106.001 199.871 106.622 199.875H106.64V202.125H106.609C105.988 202.121 105.487 201.615 105.49 200.993Z" fill="#7AA5C1"/>
<path fill-rule="evenodd" clip-rule="evenodd" d="M106.057 -1.49922C106.078 -1.49974 106.099 -1.5 106.12 -1.5V1.5L106.131 1.49986C105.303 1.52041 104.615 0.865707 104.594 0.0375352C104.574 -0.790637 105.229 -1.47866 106.057 -1.49922ZM101.726 9.8854C102.539 10.0422 103.072 10.8288 102.915 11.6423L102.905 11.6943C102.748 12.5078 101.962 13.0405 101.148 12.8841C100.335 12.7277 99.8022 11.9413 99.9586 11.1278L99.9689 11.0743C100.126 10.2608 100.912 9.72854 101.726 9.8854ZM99.7342 22.4947C100.557 22.5919 101.145 23.3376 101.048 24.1604L101.042 24.2122C100.945 25.035 100.199 25.6233 99.3764 25.5262C98.5537 25.4292 97.9654 24.6836 98.0624 23.8609L98.0686 23.8084C98.1658 22.9857 98.9115 22.3976 99.7342 22.4947ZM98.4236 35.2084C99.2492 35.2768 99.8631 36.0015 99.7947 36.8271L99.7904 36.8788C99.7221 37.7044 98.9975 38.3183 98.1719 38.25C97.3463 38.1818 96.7324 37.4571 96.8006 36.6315L96.8049 36.5795C96.8733 35.7539 97.598 35.14 98.4236 35.2084ZM97.4912 47.9298C98.3182 47.9791 98.9487 48.6894 98.8994 49.5163L98.8963 49.5687C98.8472 50.3957 98.1369 51.0262 97.3099 50.977C96.483 50.9279 95.8524 50.2176 95.9016 49.3907L95.9047 49.338C95.954 48.5111 96.6643 47.8806 97.4912 47.9298ZM96.8237 60.6815C97.6514 60.7159 98.2945 61.4147 98.2601 62.2425L98.2579 62.2949C98.2236 63.1226 97.5247 63.7657 96.697 63.7314C95.8693 63.6971 95.2262 62.9982 95.2605 62.1705L95.2627 62.1179C95.2971 61.2902 95.996 60.6471 96.8237 60.6815ZM96.3695 73.4425C97.1976 73.4643 97.8512 74.1534 97.8294 74.9815L97.828 75.0348C97.8062 75.863 97.1171 76.5166 96.289 76.4948C95.4609 76.473 94.8072 75.784 94.829 74.9558L94.8304 74.9024C94.8523 74.0742 95.5413 73.4206 96.3695 73.4425ZM96.1003 86.1991C96.9286 86.2097 97.5916 86.8898 97.5809 87.7182L97.5803 87.7711C97.5697 88.5994 96.8896 89.2624 96.0613 89.2518C95.2329 89.2413 94.57 88.5612 94.5805 87.7328L94.5812 87.6798C94.5918 86.8514 95.2719 86.1885 96.1003 86.1991ZM96.0613 111.748C96.8896 111.738 97.5697 112.401 97.5803 113.229L97.5809 113.282C97.5916 114.11 96.9286 114.79 96.1003 114.801C95.2719 114.811 94.5918 114.149 94.5812 113.32L94.5805 113.267C94.57 112.439 95.2329 111.759 96.0613 111.748ZM96.289 124.505C97.1171 124.483 97.8062 125.137 97.828 125.965L97.8294 126.018C97.8512 126.847 97.1976 127.536 96.3695 127.558C95.5413 127.579 94.8523 126.926 94.8304 126.098L94.829 126.044C94.8072 125.216 95.4609 124.527 96.289 124.505ZM96.697 137.269C97.5247 137.234 98.2236 137.877 98.2579 138.705L98.2601 138.758C98.2945 139.585 97.6514 140.284 96.8237 140.319C95.996 140.353 95.2971 139.71 95.2627 138.882L95.2605 138.829C95.2262 138.002 95.8693 137.303 96.697 137.269ZM97.3099 150.023C98.1369 149.974 98.8471 150.604 98.8963 151.431L98.8994 151.484C98.9487 152.311 98.3182 153.021 97.4912 153.07C96.6643 153.119 95.954 152.489 95.9047 151.662L95.9016 151.609C95.8524 150.782 96.483 150.072 97.3099 150.023ZM98.1719 162.75C98.9975 162.682 99.7221 163.296 99.7904 164.121L99.7947 164.173C99.8631 164.999 99.2492 165.723 98.4236 165.792C97.598 165.86 96.8733 165.246 96.8049 164.421L96.8006 164.368C96.7324 163.543 97.3463 162.818 98.1719 162.75ZM99.3764 175.474C100.199 175.377 100.945 175.965 101.042 176.788L101.048 176.84C101.145 177.662 100.557 178.408 99.7342 178.505C98.9115 178.602 98.1658 178.014 98.0686 177.192L98.0624 177.139C97.9654 176.316 98.5536 175.571 99.3764 175.474ZM101.148 188.116C101.962 187.959 102.748 188.492 102.905 189.306L102.915 189.358C103.072 190.171 102.539 190.958 101.726 191.115C100.912 191.271 100.126 190.739 99.9689 189.926L99.9586 189.872C99.8022 189.059 100.335 188.272 101.148 188.116ZM104.594 200.962C104.615 200.134 105.303 199.48 106.131 199.5H106.12V202.5C106.107 202.5 106.095 202.5 106.083 202.5C106.074 202.5 106.065 202.499 106.057 202.499C105.229 202.479 104.574 201.791 104.594 200.962Z" fill="#7AA5C1"/>
</g>
</g>
</g>
<defs>
<clipPath id="clip0_454_12051">
<rect width="100" height="201" fill="white"/>
</clipPath>
</defs>
</svg>
