<svg width="409" height="214" viewBox="0 0 409 214" fill="none" xmlns="http://www.w3.org/2000/svg">
<path d="M366.004 90.4612C372.017 135.603 322.608 199.102 196.168 205.902C-32.9139 218.22 19.0655 18.8457 205.511 8.81994C299.204 3.78172 359.99 45.3195 366.004 90.4612Z" fill="#F5F8FA"/>
<circle cx="213.873" cy="37.4943" r="6.56803" fill="#7AA5C1"/>
<circle cx="212.214" cy="58.4272" r="6.56803" fill="#7AA5C1"/>
<circle cx="231.089" cy="66.2297" r="6.56803" fill="#7AA5C1"/>
<circle cx="235.451" cy="85.568" r="6.56803" fill="#7AA5C1"/>
<circle cx="252.535" cy="99.7787" r="6.56803" fill="#7AA5C1"/>
<circle cx="273.981" cy="115.121" r="6.56803" fill="#7AA5C1"/>
<circle cx="372.072" cy="182.568" r="6.56803" fill="#7AA5C1"/>
<circle cx="402.423" cy="189.642" r="6.56803" fill="#7AA5C1"/>
<circle cx="220.441" cy="99.6379" r="6.56803" fill="#7AA5C1"/>
<circle cx="231.089" cy="118.336" r="6.56803" fill="#7AA5C1"/>
<circle cx="262.722" cy="143.568" r="6.56803" fill="#7AA5C1"/>
<circle cx="248.722" cy="125.568" r="6.56803" fill="#7AA5C1"/>
<circle cx="288.537" cy="138.04" r="6.56803" fill="#7AA5C1"/>
<circle cx="300.051" cy="160.304" r="6.56803" fill="#7AA5C1"/>
<circle cx="338.722" cy="170.568" r="6.56803" fill="#7AA5C1"/>
<circle cx="349.914" cy="189.575" r="6.56803" fill="#7AA5C1"/>
<circle cx="330.21" cy="189.575" r="6.56803" fill="#7AA5C1"/>
<circle cx="316.722" cy="173.568" r="6.56803" fill="#7AA5C1"/>
<circle cx="305.722" cy="190.568" r="6.56803" fill="#7AA5C1"/>
<circle cx="287.722" cy="184.568" r="6.56803" fill="#7AA5C1"/>
<circle cx="269.894" cy="183.007" r="6.56803" fill="#7AA5C1"/>
<circle cx="250.19" cy="189.575" r="6.56803" fill="#7AA5C1"/>
<circle cx="220.722" cy="192.568" r="6.56803" fill="#7AA5C1"/>
<circle cx="233.722" cy="173.568" r="6.56803" fill="#7AA5C1"/>
<circle cx="252.722" cy="165.568" r="6.56803" fill="#7AA5C1"/>
<circle cx="180.203" cy="189.575" r="6.56803" fill="#7AA5C1"/>
<circle cx="161.329" cy="196.143" r="6.56803" fill="#7AA5C1"/>
<circle cx="140.795" cy="189.575" r="6.56803" fill="#7AA5C1"/>
<path d="M122.733 189.575C122.733 193.203 119.793 196.143 116.165 196.143C112.538 196.143 109.597 193.203 109.597 189.575C109.597 185.948 112.538 183.007 116.165 183.007C119.793 183.007 122.733 185.948 122.733 189.575Z" fill="#7AA5C1"/>
<circle cx="91.5343" cy="189.642" r="6.56803" fill="#7AA5C1"/>
<circle cx="57.8852" cy="185.432" r="6.56803" fill="#7AA5C1"/>
<circle cx="198.722" cy="195.568" r="6.56803" fill="#7AA5C1"/>
<circle cx="193.34" cy="70.2917" r="6.56803" fill="#7AA5C1"/>
<circle cx="98.9323" cy="156.735" r="6.56803" fill="#7AA5C1"/>
<circle cx="25.247" cy="189.642" r="6.56803" fill="#7AA5C1"/>
<circle cx="7.26164" cy="190.584" r="6.56803" fill="#7AA5C1"/>
<circle cx="76.7592" cy="173.44" r="6.56803" fill="#7AA5C1"/>
<circle cx="129.722" cy="172.568" r="6.56803" fill="#7AA5C1"/>
<circle cx="147.722" cy="164.568" r="6.56803" fill="#7AA5C1"/>
<circle cx="164.722" cy="173.568" r="6.56803" fill="#7AA5C1"/>
<circle cx="174.465" cy="150.167" r="6.56803" fill="#7AA5C1"/>
<circle cx="186.771" cy="169.871" r="6.56803" fill="#7AA5C1"/>
<circle cx="198.266" cy="150.167" r="6.56803" fill="#7AA5C1"/>
<circle cx="232.747" cy="151.176" r="6.56803" fill="#7AA5C1"/>
<circle cx="273.722" cy="162.568" r="6.56803" fill="#7AA5C1"/>
<circle cx="210.589" cy="163.303" r="6.56803" fill="#7AA5C1"/>
<circle cx="204.834" cy="124.904" r="6.56803" fill="#7AA5C1"/>
<circle cx="193.34" cy="108.553" r="6.56803" fill="#7AA5C1"/>
<circle cx="171.181" cy="119.345" r="6.56803" fill="#7AA5C1"/>
<circle cx="160.499" cy="138.04" r="6.56803" fill="#7AA5C1"/>
<circle cx="139.153" cy="144.608" r="6.56803" fill="#7AA5C1"/>
<circle cx="170.351" cy="95.4167" r="6.56803" fill="#7AA5C1"/>
<circle cx="151.477" cy="115.121" r="6.56803" fill="#7AA5C1"/>
<circle cx="125.204" cy="137.031" r="6.56803" fill="#7AA5C1"/>
<circle cx="112.881" cy="163.303" r="6.56803" fill="#7AA5C1"/>
<circle cx="204.834" cy="86.6427" r="6.56803" fill="#7AA5C1"/>
</svg>
