<svg width="404" height="409" viewBox="0 0 404 409" fill="none" xmlns="http://www.w3.org/2000/svg">
<path d="M291.707 328.743C240.024 358.583 133.444 374.87 78.8899 280.379C14.3648 168.618 78.2559 99.3488 140.956 63.1491C203.655 26.9495 296.801 80.4848 337.226 150.503C377.652 220.522 343.391 298.903 291.707 328.743Z" fill="#F5F8FA"/>
<circle cx="276.88" cy="130.594" r="8" transform="rotate(135 276.88 130.594)" fill="#7AA5C1"/>
<circle cx="288.196" cy="119.279" r="8" transform="rotate(135 288.196 119.279)" fill="#7AA5C1"/>
<circle cx="231.626" cy="175.849" r="8" transform="rotate(135 231.626 175.849)" fill="#7AA5C1"/>
<circle cx="186.371" cy="221.104" r="8" transform="rotate(135 186.371 221.104)" fill="#7AA5C1"/>
<circle cx="242.939" cy="164.535" r="8" transform="rotate(135 242.939 164.535)" fill="#7AA5C1"/>
<circle cx="197.686" cy="209.788" r="8" transform="rotate(135 197.686 209.788)" fill="#7AA5C1"/>
<circle cx="220.312" cy="187.163" r="8" transform="rotate(135 220.312 187.163)" fill="#7AA5C1"/>
<circle cx="175.057" cy="232.417" r="8" transform="rotate(135 175.057 232.417)" fill="#7AA5C1"/>
<circle cx="163.743" cy="243.731" r="8" transform="rotate(135 163.743 243.731)" fill="#7AA5C1"/>
<circle cx="152.43" cy="255.045" r="8" transform="rotate(135 152.43 255.045)" fill="#7AA5C1"/>
<circle cx="141.116" cy="266.358" r="8" transform="rotate(135 141.116 266.358)" fill="#7AA5C1"/>
<circle cx="129.802" cy="277.672" r="8" transform="rotate(135 129.802 277.672)" fill="#7AA5C1"/>
<circle cx="118.489" cy="288.986" r="8" transform="rotate(135 118.489 288.986)" fill="#7AA5C1"/>
<circle cx="254.253" cy="153.221" r="8" transform="rotate(135 254.253 153.221)" fill="#7AA5C1"/>
<circle cx="265.566" cy="141.908" r="8" transform="rotate(135 265.566 141.908)" fill="#7AA5C1"/>
<circle cx="208.998" cy="198.476" r="8" transform="rotate(135 208.998 198.476)" fill="#7AA5C1"/>
<circle cx="203.342" cy="203.999" r="120.001" stroke="#7AA5C1" stroke-width="16"/>
</svg>
