<svg width="305" height="308" viewBox="0 0 305 308" fill="none" xmlns="http://www.w3.org/2000/svg">
<path d="M304.29 123.573C309.358 183.037 270.281 287.55 161.566 296.816C32.9823 307.775 6.49623 226.726 0.348075 154.588C-5.80008 82.4501 81.6906 13.5384 162.249 6.67256C242.808 -0.193275 299.222 64.1091 304.29 123.573Z" fill="#F5F8FA"/>
<circle cx="43.5109" cy="140.006" r="17.2639" stroke="#005B84" stroke-width="8.11657"/>
<circle cx="108.769" cy="26.5187" r="21.1565" stroke="#005B84" stroke-width="9.94665"/>
<circle cx="155.305" cy="153.238" r="14.2902" stroke="#005B84" stroke-width="6.71847"/>
<circle cx="264.501" cy="109.413" r="13.4732" stroke="#005B84" stroke-width="6.3344"/>
<circle cx="86.175" cy="258.694" r="18.2937" stroke="#005B84" stroke-width="8.60072"/>
<circle cx="192.745" cy="48.7263" r="9.80868" stroke="#005B84" stroke-width="4.61152"/>
<circle cx="243.074" cy="260.571" r="16.7736" stroke="#005B84" stroke-width="7.88605"/>
<path fill-rule="evenodd" clip-rule="evenodd" d="M95.297 26.1998C95.3067 26.5921 94.9965 26.9179 94.6042 26.9276C94.1246 26.9394 93.6475 26.9555 93.1729 26.9759C92.7809 26.9928 92.4494 26.6886 92.4326 26.2966C92.4157 25.9046 92.7198 25.5731 93.1119 25.5563C93.5952 25.5355 94.081 25.5191 94.5693 25.5071C94.9616 25.4974 95.2874 25.8076 95.297 26.1998ZM99.6474 26.2474C99.6651 25.8554 99.9972 25.552 100.389 25.5697C100.877 25.5917 101.367 25.618 101.86 25.6485C102.251 25.6728 102.549 26.01 102.525 26.4016C102.501 26.7932 102.163 27.091 101.772 27.0667C101.287 27.0367 100.805 27.0109 100.325 26.9892C99.9331 26.9715 99.6297 26.6393 99.6474 26.2474ZM88.098 26.6477C88.1449 27.0373 87.8672 27.3912 87.4776 27.4381C87.0071 27.4949 86.5394 27.556 86.0743 27.6215C85.6858 27.6763 85.3264 27.4057 85.2717 27.0171C85.2169 26.6286 85.4876 26.2692 85.8761 26.2145C86.3505 26.1476 86.8277 26.0853 87.3076 26.0274C87.6971 25.9804 88.051 26.2582 88.098 26.6477ZM106.854 26.8091C106.902 26.4198 107.257 26.1437 107.647 26.1925C107.885 26.2223 108.124 26.2531 108.363 26.2849C108.603 26.304 108.842 26.3234 109.08 26.3431C109.471 26.3753 109.762 26.7184 109.73 27.1095C109.698 27.5005 109.354 27.7914 108.963 27.7592C108.72 27.7392 108.476 27.7194 108.231 27.6999L108.213 27.6984L108.194 27.6959C107.952 27.6637 107.711 27.6326 107.47 27.6024C107.081 27.5536 106.805 27.1985 106.854 26.8091ZM114.136 27.5217C114.177 27.1315 114.527 26.8484 114.917 26.8895C115.404 26.9408 115.888 26.9933 116.37 27.047C116.76 27.0904 117.041 27.4418 116.997 27.8318C116.954 28.2217 116.602 28.5026 116.212 28.4592C115.734 28.4058 115.252 28.3537 114.768 28.3027C114.378 28.2616 114.095 27.9119 114.136 27.5217ZM80.9948 27.8018C81.0821 28.1844 80.8426 28.5652 80.4601 28.6524C79.9898 28.7596 79.5227 28.8716 79.0588 28.9882C78.6783 29.0838 78.2922 28.8529 78.1966 28.4724C78.1009 28.0918 78.3319 27.7058 78.7124 27.6101C79.1865 27.4909 79.6638 27.3765 80.1442 27.267C80.5268 27.1798 80.9076 27.4192 80.9948 27.8018ZM121.388 28.3783C121.442 27.9896 121.801 27.7181 122.19 27.7718C122.678 27.8393 123.162 27.9081 123.644 27.9781C124.032 28.0346 124.301 28.3952 124.245 28.7835C124.188 29.1718 123.827 29.4408 123.439 29.3843C122.961 29.3147 122.48 29.2464 121.995 29.1794C121.606 29.1257 121.335 28.767 121.388 28.3783ZM128.609 29.4858C128.678 29.0995 129.046 28.8418 129.433 28.9103C129.919 28.9965 130.401 29.0842 130.88 29.1732C131.266 29.245 131.52 29.6159 131.448 30.0017C131.377 30.3875 131.006 30.642 130.62 30.5702C130.145 30.4819 129.667 30.3949 129.185 30.3095C128.798 30.2409 128.541 29.8722 128.609 29.4858ZM74.0273 29.7216C74.157 30.0919 73.962 30.4973 73.5917 30.6271C73.1425 30.7845 72.6967 30.9466 72.2542 31.1133C71.887 31.2516 71.4772 31.0661 71.3389 30.699C71.2005 30.3318 71.386 29.922 71.7532 29.7836C72.206 29.613 72.6622 29.4471 73.1218 29.2861C73.4922 29.1563 73.8975 29.3513 74.0273 29.7216ZM135.782 30.8885C135.868 30.5057 136.248 30.265 136.631 30.351C137.111 30.4589 137.588 30.5684 138.06 30.6796C138.442 30.7694 138.679 31.1519 138.589 31.5339C138.499 31.9158 138.116 32.1526 137.735 32.0628C137.267 31.9527 136.795 31.8443 136.319 31.7374C135.937 31.6514 135.696 31.2714 135.782 30.8885ZM67.3502 32.4224C67.5231 32.7747 67.3776 33.2004 67.0253 33.3732C66.5961 33.5838 66.1706 33.7991 65.7488 34.019C65.4008 34.2004 64.9717 34.0654 64.7903 33.7175C64.6089 33.3696 64.7439 32.9405 65.0918 32.7591C65.5239 32.5337 65.9598 32.3132 66.3995 32.0975C66.7517 31.9247 67.1774 32.0701 67.3502 32.4224ZM142.876 32.6408C142.983 32.2632 143.375 32.0438 143.753 32.1507C144.228 32.2852 144.699 32.4216 145.165 32.5598C145.541 32.6713 145.755 33.0667 145.644 33.4429C145.532 33.8191 145.137 34.0336 144.761 33.9221C144.3 33.7856 143.835 33.6509 143.366 33.5179C142.988 33.411 142.769 33.0183 142.876 32.6408ZM149.85 34.8125C149.982 34.443 150.389 34.2506 150.758 34.3827C151.223 34.5489 151.683 34.7173 152.138 34.8878C152.505 35.0255 152.691 35.435 152.554 35.8024C152.416 36.1699 152.006 36.356 151.639 36.2183C151.191 36.0504 150.738 35.8845 150.28 35.7207C149.91 35.5886 149.718 35.1819 149.85 34.8125ZM61.0348 35.9177C61.2497 36.246 61.1578 36.6864 60.8295 36.9013C60.4318 37.1617 60.038 37.4266 59.648 37.696C59.3252 37.919 58.8827 37.8381 58.6597 37.5152C58.4366 37.1924 58.5175 36.7499 58.8404 36.5269C59.24 36.2508 59.6436 35.9793 60.0512 35.7125C60.3795 35.4975 60.8199 35.5894 61.0348 35.9177ZM156.645 37.4926C156.808 37.1356 157.229 36.978 157.586 37.1407C158.037 37.3462 158.482 37.5542 158.921 37.7645C159.275 37.9341 159.424 38.3584 159.255 38.7122C159.085 39.0661 158.661 39.2155 158.307 39.0459C157.876 38.8396 157.44 38.6355 156.997 38.4338C156.64 38.271 156.482 37.8497 156.645 37.4926ZM55.2092 40.1626C55.4633 40.4617 55.4269 40.91 55.1278 41.1641C54.765 41.4724 54.4063 41.7849 54.0517 42.1017C53.7591 42.3632 53.31 42.3379 53.0485 42.0453C52.7871 41.7527 52.8124 41.3035 53.105 41.0421C53.4684 40.7175 53.836 40.3972 54.2078 40.0812C54.5068 39.8272 54.9552 39.8636 55.2092 40.1626ZM163.162 40.7892C163.362 40.4514 163.798 40.3395 164.135 40.5391C164.564 40.7923 164.985 41.0482 165.399 41.307C165.732 41.5149 165.833 41.9532 165.625 42.286C165.418 42.6188 164.979 42.7201 164.646 42.5122C164.242 42.2597 163.831 42.0097 163.412 41.7624C163.074 41.5627 162.962 41.127 163.162 40.7892ZM169.249 44.8231C169.492 44.515 169.938 44.4623 170.247 44.7053C170.366 44.7991 170.484 44.8933 170.601 44.9878C170.763 44.9758 170.925 44.9647 171.088 44.9544C171.479 44.9297 171.817 45.2272 171.842 45.6188C171.854 45.8205 171.782 46.0078 171.654 46.1455C171.665 46.3212 171.612 46.5012 171.489 46.6466C171.237 46.9471 170.789 46.9862 170.488 46.7339C170.375 46.6389 170.262 46.5443 170.147 46.4499C170.014 46.4615 169.882 46.4736 169.75 46.4864C169.359 46.5241 169.012 46.238 168.974 45.8475C168.957 45.6695 169.007 45.5006 169.104 45.3658C169.076 45.1794 169.123 44.9827 169.249 44.8231ZM49.9509 45.1008C50.2398 45.3663 50.2587 45.8158 49.9932 46.1047C49.6714 46.4547 49.3539 46.8087 49.0406 47.1666C48.7821 47.4618 48.3332 47.4916 48.038 47.2331C47.7428 46.9747 47.713 46.5258 47.9714 46.2306C48.2923 45.8641 48.6175 45.5015 48.947 45.1431C49.2126 44.8542 49.662 44.8352 49.9509 45.1008ZM176.501 45.639C176.528 45.2475 176.868 44.9521 177.259 44.9792C177.768 45.0144 178.28 45.0577 178.796 45.1094C179.186 45.1486 179.471 45.4968 179.432 45.8873C179.393 46.2777 179.045 46.5624 178.654 46.5233C178.153 46.473 177.655 46.4309 177.161 46.3968C176.77 46.3697 176.474 46.0304 176.501 45.639ZM164.947 46.4979C165.035 46.8804 164.795 47.2614 164.413 47.3489C163.975 47.4491 163.54 47.556 163.108 47.6695C162.729 47.7693 162.34 47.5425 162.24 47.163C162.141 46.7835 162.367 46.395 162.747 46.2953C163.193 46.1779 163.643 46.0673 164.096 45.9637C164.479 45.8762 164.86 46.1154 164.947 46.4979ZM184.034 46.6237C184.117 46.2402 184.496 45.997 184.879 46.0803C185.376 46.1883 185.876 46.3038 186.379 46.4269C186.76 46.5202 186.993 46.9048 186.9 47.2859C186.806 47.667 186.422 47.9004 186.041 47.8071C185.55 47.6869 185.062 47.5742 184.577 47.4688C184.194 47.3855 183.951 47.0071 184.034 46.6237ZM158.368 48.4531C158.515 48.8168 158.34 49.2311 157.976 49.3785C157.558 49.5478 157.144 49.7233 156.733 49.905C156.374 50.0636 155.954 49.9012 155.796 49.5423C155.637 49.1834 155.8 48.7639 156.158 48.6053C156.583 48.4177 157.011 48.2364 157.442 48.0616C157.806 47.9142 158.22 48.0895 158.368 48.4531ZM191.367 48.6145C191.496 48.2439 191.901 48.048 192.272 48.1769C192.513 48.2607 192.754 48.3461 192.996 48.4332L193.68 48.6796C194.049 48.8128 194.24 49.2199 194.107 49.589C193.974 49.9581 193.567 50.1494 193.198 50.0163L192.515 49.7702C192.278 49.6848 192.041 49.601 191.805 49.519C191.434 49.3901 191.239 48.9851 191.367 48.6145ZM174.606 49.6218C174.895 49.357 175.345 49.377 175.61 49.6666C175.946 50.0344 176.273 50.4058 176.592 50.7807C176.846 51.0797 176.81 51.5281 176.511 51.7822C176.212 52.0363 175.763 51.9999 175.509 51.701C175.202 51.3393 174.886 50.9808 174.561 50.6255C174.296 50.336 174.316 49.8866 174.606 49.6218ZM45.3316 50.6407C45.65 50.87 45.7222 51.314 45.4929 51.6324C45.2156 52.0175 44.9426 52.4062 44.6737 52.7984C44.4519 53.122 44.0097 53.2045 43.686 52.9827C43.3624 52.7609 43.2798 52.3186 43.5017 51.995C43.7767 51.5938 44.0561 51.1961 44.3399 50.802C44.5691 50.4836 45.0132 50.4114 45.3316 50.6407ZM198.144 51.0583C198.279 50.69 198.688 50.5014 199.056 50.637C199.506 50.8028 199.955 50.9685 200.402 51.1341C200.77 51.2705 200.957 51.6793 200.821 52.0473C200.685 52.4152 200.276 52.6029 199.908 52.4665C199.462 52.3013 199.014 52.1359 198.565 51.9705C198.197 51.8349 198.008 51.4265 198.144 51.0583ZM152.173 51.4121C152.373 51.7498 152.261 52.1856 151.923 52.3854C151.535 52.6155 151.149 52.851 150.767 53.0919C150.435 53.3011 149.996 53.2016 149.787 52.8696C149.578 52.5376 149.677 52.0989 150.009 51.8897C150.403 51.6419 150.799 51.3995 151.199 51.1626C151.537 50.9628 151.973 51.0745 152.173 51.4121ZM204.834 53.5586C204.974 53.1923 205.385 53.0092 205.752 53.1498C206.204 53.3231 206.653 53.4965 207.101 53.6701C207.467 53.812 207.648 54.2235 207.507 54.5894C207.365 54.9552 206.953 55.1368 206.587 54.995C206.141 54.822 205.693 54.6492 205.243 54.4764C204.876 54.3359 204.693 53.925 204.834 53.5586ZM146.459 55.2231C146.701 55.5317 146.647 55.9783 146.339 56.2207C145.983 56.5 145.631 56.784 145.281 57.0724C144.978 57.3221 144.53 57.2791 144.281 56.9764C144.031 56.6737 144.074 56.2259 144.377 55.9763C144.735 55.6808 145.096 55.3897 145.461 55.1032C145.77 54.8609 146.216 54.9145 146.459 55.2231ZM179.051 55.2639C179.385 55.0575 179.822 55.1608 180.029 55.4946C180.287 55.9117 180.535 56.3324 180.775 56.7564C180.968 57.098 180.848 57.5315 180.506 57.7246C180.165 57.9177 179.731 57.7974 179.538 57.4558C179.308 57.0478 179.068 56.6432 178.82 56.2418C178.614 55.908 178.717 55.4702 179.051 55.2639ZM211.49 56.1708C211.638 55.8075 212.053 55.633 212.416 55.7812C212.866 55.9645 213.313 56.1481 213.758 56.3323C214.121 56.4823 214.293 56.8978 214.143 57.2604C213.993 57.623 213.577 57.7953 213.215 57.6452C212.772 57.4621 212.327 57.2794 211.88 57.097C211.516 56.9488 211.342 56.5342 211.49 56.1708ZM41.3919 56.6809C41.7343 56.8726 41.8565 57.3056 41.6648 57.6479C41.4319 58.0638 41.2033 58.4829 40.979 58.9052C40.7949 59.2517 40.3647 59.3833 40.0182 59.1992C39.6717 59.0151 39.54 58.585 39.7241 58.2385C39.9533 57.8071 40.1869 57.3788 40.4249 56.9537C40.6166 56.6114 41.0496 56.4892 41.3919 56.6809ZM218.089 58.947C218.248 58.5882 218.668 58.4262 219.026 58.5851C219.468 58.7808 219.908 58.9773 220.345 59.1746C220.702 59.3361 220.861 59.7569 220.7 60.1145C220.538 60.4721 220.118 60.6311 219.76 60.4696C219.326 60.2738 218.89 60.0787 218.451 59.8843C218.092 59.7254 217.93 59.3058 218.089 58.947ZM141.255 59.7103C141.531 59.9901 141.527 60.4399 141.247 60.7151C140.924 61.0327 140.604 61.354 140.287 61.6788C140.013 61.9595 139.563 61.9648 139.282 61.6906C139.002 61.4164 138.996 60.9666 139.271 60.6859C139.594 60.3544 139.921 60.0265 140.251 59.7021C140.53 59.4269 140.98 59.4306 141.255 59.7103ZM224.586 61.9443C224.759 61.5923 225.185 61.4475 225.537 61.6209C225.968 61.8333 226.396 62.0469 226.822 62.2616C227.172 62.4385 227.313 62.8658 227.136 63.2161C226.959 63.5663 226.532 63.707 226.181 63.5301C225.76 63.3175 225.336 63.106 224.909 62.8956C224.557 62.7222 224.412 62.2962 224.586 61.9443ZM182.327 61.6291C182.695 61.4913 183.104 61.6774 183.242 62.0448C183.413 62.5012 183.576 62.961 183.729 63.4238C183.853 63.7962 183.652 64.1984 183.279 64.3221C182.907 64.4458 182.505 64.2442 182.381 63.8719C182.233 63.426 182.076 62.9833 181.912 62.5438C181.774 62.1764 181.96 61.7669 182.327 61.6291ZM38.1453 63.1238C38.5062 63.2778 38.6741 63.6951 38.5202 64.0561C38.3341 64.4925 38.1521 64.9316 37.9744 65.3735C37.828 65.7375 37.4142 65.9139 37.0501 65.7675C36.6861 65.6211 36.5097 65.2073 36.6561 64.8432C36.8375 64.3923 37.0231 63.9441 37.2131 63.4987C37.367 63.1378 37.7844 62.9699 38.1453 63.1238ZM136.544 64.714C136.844 64.967 136.882 65.4152 136.629 65.7152C136.336 66.0619 136.046 66.4115 135.759 66.7637C135.511 67.0677 135.063 67.1132 134.759 66.8651C134.455 66.6171 134.41 66.1696 134.658 65.8655C134.95 65.5074 135.245 65.1518 135.543 64.7989C135.796 64.499 136.244 64.461 136.544 64.714ZM230.928 65.233C231.121 64.891 231.554 64.7696 231.896 64.9619C232.312 65.1959 232.725 65.4314 233.135 65.6687C233.474 65.8653 233.59 66.2999 233.393 66.6395C233.197 66.9791 232.762 67.095 232.423 66.8984C232.018 66.6642 231.61 66.4316 231.199 66.2005C230.857 66.0082 230.736 65.5751 230.928 65.233ZM184.336 68.5082C184.722 68.4391 185.091 68.6963 185.16 69.0825C185.245 69.5596 185.323 70.0394 185.393 70.5219C185.449 70.9103 185.179 71.2706 184.791 71.3268C184.403 71.3829 184.042 71.1136 183.986 70.7253C183.919 70.2582 183.844 69.7939 183.761 69.3326C183.692 68.9464 183.949 68.5773 184.336 68.5082ZM237.049 68.8929C237.264 68.5653 237.705 68.4746 238.033 68.6905C238.437 68.9567 238.837 69.2252 239.234 69.4961C239.558 69.7173 239.642 70.1593 239.421 70.4834C239.2 70.8075 238.758 70.891 238.433 70.6698C238.043 70.4034 237.649 70.1391 237.251 69.8771C236.923 69.6612 236.833 69.2206 237.049 68.8929ZM35.5907 69.8686C35.9653 69.9854 36.1742 70.3838 36.0574 70.7583C35.9152 71.2145 35.7771 71.673 35.6432 72.1338C35.5337 72.5106 35.1395 72.7273 34.7627 72.6178C34.3859 72.5083 34.1692 72.1141 34.2787 71.7373C34.4152 71.2676 34.5559 70.8003 34.7009 70.3353C34.8177 69.9607 35.2161 69.7518 35.5907 69.8686ZM132.281 70.1052C132.599 70.3344 132.671 70.7784 132.442 71.0969C132.176 71.4661 131.913 71.8373 131.652 72.2103C131.427 72.5319 130.984 72.6103 130.663 72.3855C130.341 72.1606 130.263 71.7177 130.488 71.3961C130.752 71.0179 131.019 70.6414 131.289 70.2667C131.518 69.9483 131.962 69.8759 132.281 70.1052ZM242.884 73.0276C243.128 72.7203 243.575 72.6689 243.882 72.9129C244.26 73.2133 244.635 73.5166 245.006 73.823C245.308 74.073 245.351 74.5209 245.101 74.8233C244.851 75.1257 244.403 75.1682 244.1 74.9182C243.737 74.6179 243.37 74.3204 242.999 74.0258C242.691 73.7818 242.64 73.3349 242.884 73.0276ZM185.14 75.6331C185.532 75.6243 185.857 75.9353 185.866 76.3275C185.876 76.8048 185.881 77.2844 185.878 77.7661C185.876 78.1585 185.557 78.4751 185.165 78.4733C184.772 78.4714 184.456 78.1519 184.457 77.7595C184.46 77.2903 184.456 76.8235 184.445 76.3592C184.436 75.9669 184.747 75.6418 185.14 75.6331ZM128.413 75.7871C128.746 75.9956 128.846 76.434 128.638 76.7665C128.395 77.1532 128.155 77.541 127.918 77.9299C127.713 78.2647 127.276 78.3702 126.941 78.1656C126.606 77.961 126.501 77.5237 126.705 77.1889C126.946 76.7955 127.189 76.403 127.434 76.0117C127.643 75.6792 128.081 75.5787 128.413 75.7871ZM33.7089 76.8363C34.0928 76.9172 34.3385 77.294 34.2576 77.678C34.1598 78.142 34.066 78.608 33.9762 79.0759C33.9023 79.4612 33.53 79.7137 33.1446 79.6398C32.7593 79.5658 32.5068 79.1935 32.5807 78.8081C32.6721 78.3319 32.7676 77.8575 32.8671 77.385C32.9481 77.001 33.3249 76.7554 33.7089 76.8363ZM248.291 77.694C248.566 77.4141 249.016 77.4102 249.296 77.6853C249.639 78.0225 249.978 78.3633 250.313 78.7078C250.586 78.9892 250.58 79.439 250.298 79.7125C250.017 79.9859 249.567 79.9795 249.294 79.6981C248.967 79.3615 248.635 79.0284 248.3 78.6987C248.02 78.4236 248.016 77.9738 248.291 77.694ZM124.89 81.6906C125.233 81.8811 125.357 82.3136 125.166 82.6567C124.944 83.0562 124.725 83.4561 124.508 83.8561C124.32 84.201 123.889 84.3288 123.544 84.1416C123.199 83.9544 123.072 83.5231 123.259 83.1783C123.478 82.7744 123.7 82.3705 123.924 81.9669C124.114 81.6239 124.547 81.5002 124.89 81.6906ZM253.143 82.9317C253.449 82.6866 253.896 82.7362 254.142 83.0425C254.442 83.4176 254.738 83.7966 255.029 84.1799C255.267 84.4922 255.206 84.938 254.894 85.1755C254.581 85.413 254.135 85.3523 253.898 85.04C253.614 84.6661 253.325 84.2963 253.032 83.9304C252.787 83.624 252.837 83.1769 253.143 82.9317ZM184.925 82.7872C185.316 82.8271 185.6 83.176 185.56 83.5663C185.511 84.043 185.457 84.5216 185.397 85.002C185.349 85.3913 184.994 85.6678 184.604 85.6194C184.215 85.5711 183.939 85.2162 183.987 84.8268C184.045 84.3563 184.098 83.8879 184.146 83.4216C184.186 83.0312 184.535 82.7472 184.925 82.7872ZM32.4777 83.9406C32.8673 83.9871 33.1454 84.3407 33.0988 84.7303C33.0421 85.2047 32.9894 85.6807 32.9406 86.1582C32.9008 86.5486 32.552 86.8327 32.1616 86.7928C31.7713 86.753 31.4872 86.4042 31.527 86.0139C31.5766 85.5282 31.6302 85.0442 31.6879 84.5617C31.7345 84.1721 32.088 83.894 32.4777 83.9406ZM121.662 87.7624C122.013 87.9375 122.156 88.3641 121.981 88.7152C121.777 89.1243 121.576 89.5329 121.376 89.9406C121.204 90.2931 120.778 90.4392 120.426 90.2669C120.073 90.0946 119.927 89.6691 120.1 89.3166C120.301 88.9056 120.504 88.4937 120.709 88.0812C120.885 87.73 121.311 87.5873 121.662 87.7624ZM257.317 88.7156C257.651 88.5104 258.088 88.6152 258.294 88.9497C258.545 89.3601 258.793 89.775 259.036 90.1943C259.233 90.5337 259.117 90.9685 258.778 91.1653C258.438 91.3621 258.004 91.2465 257.807 90.9071C257.57 90.4979 257.328 90.0932 257.082 89.6927C256.877 89.3583 256.982 88.9208 257.317 88.7156ZM183.901 89.8818C184.285 89.9599 184.534 90.335 184.455 90.7195C184.36 91.1908 184.259 91.6636 184.155 92.1379C184.07 92.521 183.691 92.763 183.308 92.6783C182.924 92.5937 182.682 92.2144 182.767 91.8313C182.87 91.3647 182.969 90.8998 183.063 90.4366C183.141 90.0521 183.516 89.8037 183.901 89.8818ZM31.865 91.1396C32.2572 91.1534 32.5639 91.4825 32.55 91.8746C32.5334 92.3478 32.5205 92.8223 32.5114 93.2981C32.5039 93.6904 32.1798 94.0023 31.7875 93.9948C31.3952 93.9873 31.0832 93.6632 31.0907 93.2709C31.1 92.7876 31.113 92.3055 31.13 91.8246C31.1438 91.4325 31.4729 91.1258 31.865 91.1396ZM118.688 93.9616C119.045 94.1237 119.203 94.5448 119.041 94.9022C118.852 95.3194 118.665 95.7349 118.48 96.1485C118.32 96.5068 117.9 96.6677 117.542 96.5078C117.183 96.348 117.023 95.9279 117.182 95.5695C117.368 95.1533 117.556 94.735 117.747 94.3149C117.909 93.9576 118.33 93.7994 118.688 93.9616ZM260.749 94.9812C261.105 94.8178 261.527 94.9747 261.69 95.3314C261.892 95.7716 262.089 96.2163 262.283 96.6656C262.438 97.026 262.271 97.4439 261.91 97.5989C261.55 97.7539 261.132 97.5873 260.977 97.2269C260.788 96.7876 260.595 96.353 260.398 95.9229C260.235 95.5661 260.392 95.1445 260.749 94.9812ZM182.243 96.8625C182.621 96.9703 182.839 97.3635 182.731 97.7408C182.599 98.204 182.463 98.6685 182.323 99.1342C182.21 99.51 181.814 99.7231 181.438 99.6103C181.063 99.4974 180.849 99.1012 180.962 98.7254C181.1 98.2658 181.235 97.8075 181.365 97.3506C181.473 96.9733 181.866 96.7548 182.243 96.8625ZM31.8424 98.3451C32.2344 98.3279 32.5661 98.6318 32.5832 99.0238C32.6041 99.4995 32.6286 99.9762 32.6569 100.454C32.68 100.846 32.3813 101.182 31.9896 101.205C31.5979 101.228 31.2616 100.93 31.2384 100.538C31.2097 100.053 31.1848 99.569 31.1637 99.086C31.1465 98.694 31.4504 98.3623 31.8424 98.3451ZM115.923 100.254C116.285 100.405 116.455 100.822 116.304 101.184C116.124 101.611 115.948 102.034 115.774 102.454C115.624 102.817 115.209 102.989 114.846 102.839C114.483 102.689 114.311 102.273 114.461 101.911C114.636 101.489 114.813 101.063 114.993 100.634C115.145 100.272 115.561 100.102 115.923 100.254ZM263.431 101.616C263.803 101.493 264.205 101.695 264.328 102.067C264.476 102.514 264.62 102.964 264.761 103.419C264.876 103.794 264.666 104.191 264.291 104.307C263.917 104.423 263.519 104.213 263.403 103.838C263.265 103.392 263.124 102.951 262.979 102.514C262.856 102.141 263.058 101.739 263.431 101.616ZM180.094 103.71C180.464 103.841 180.657 104.247 180.526 104.617C180.366 105.071 180.202 105.526 180.035 105.982C179.9 106.351 179.492 106.54 179.123 106.405C178.755 106.27 178.566 105.862 178.701 105.493C178.866 105.042 179.028 104.592 179.187 104.143C179.318 103.773 179.724 103.58 180.094 103.71ZM32.3775 105.541C32.7671 105.494 33.1206 105.773 33.1672 106.162C33.224 106.638 33.2844 107.115 33.3485 107.592C33.4007 107.981 33.1278 108.338 32.7389 108.391C32.35 108.443 31.9924 108.17 31.9402 107.781C31.8752 107.297 31.8139 106.813 31.7562 106.331C31.7097 105.941 31.9878 105.587 32.3775 105.541ZM113.319 106.616C113.683 106.761 113.862 107.174 113.717 107.539C113.545 107.973 113.375 108.402 113.209 108.824C113.065 109.189 112.653 109.368 112.287 109.224C111.922 109.08 111.743 108.668 111.887 108.303C112.054 107.88 112.223 107.45 112.396 107.015C112.541 106.65 112.954 106.472 113.319 106.616ZM265.401 108.458C265.784 108.37 266.165 108.609 266.252 108.992C266.358 109.453 266.46 109.918 266.559 110.387C266.64 110.771 266.395 111.148 266.011 111.229C265.627 111.31 265.25 111.065 265.169 110.681C265.071 110.219 264.971 109.762 264.867 109.309C264.78 108.926 265.019 108.545 265.401 108.458ZM177.558 110.426C177.921 110.575 178.094 110.99 177.944 111.353C177.762 111.798 177.576 112.243 177.388 112.689C177.236 113.051 176.819 113.22 176.457 113.068C176.096 112.915 175.926 112.499 176.079 112.137C176.265 111.695 176.449 111.253 176.63 110.813C176.78 110.45 177.195 110.277 177.558 110.426ZM33.4422 112.688C33.8275 112.614 34.2 112.866 34.2743 113.251C34.364 113.716 34.4572 114.182 34.5538 114.648C34.6334 115.032 34.3865 115.409 34.0023 115.488C33.6181 115.568 33.242 115.321 33.1624 114.937C33.0645 114.464 32.97 113.992 32.8791 113.52C32.8048 113.135 33.0569 112.762 33.4422 112.688ZM110.802 113.016C111.167 113.159 111.347 113.572 111.203 113.937C111.028 114.381 110.857 114.812 110.69 115.23C110.545 115.595 110.132 115.772 109.767 115.627C109.403 115.482 109.225 115.068 109.37 114.704C109.536 114.288 109.706 113.859 109.881 113.416C110.025 113.051 110.437 112.872 110.802 113.016ZM266.762 115.458C267.15 115.401 267.511 115.67 267.568 116.058C267.637 116.529 267.703 117.003 267.766 117.481C267.818 117.87 267.544 118.227 267.155 118.279C266.766 118.33 266.409 118.056 266.357 117.667C266.295 117.196 266.23 116.728 266.162 116.264C266.105 115.876 266.374 115.515 266.762 115.458ZM174.714 117.018C175.07 117.182 175.226 117.604 175.062 117.961C174.862 118.396 174.66 118.832 174.455 119.269C174.288 119.624 173.865 119.777 173.51 119.611C173.155 119.444 173.002 119.021 173.168 118.666C173.372 118.232 173.573 117.799 173.771 117.367C173.935 117.011 174.357 116.854 174.714 117.018ZM108.182 119.39C108.535 119.561 108.683 119.985 108.513 120.339C108.411 120.549 108.312 120.75 108.213 120.941C108.116 121.13 108.019 121.324 107.92 121.523C107.745 121.875 107.319 122.019 106.968 121.845C106.616 121.671 106.472 121.244 106.646 120.893C106.748 120.687 106.849 120.487 106.95 120.291C107.042 120.113 107.136 119.923 107.233 119.722C107.403 119.368 107.828 119.22 108.182 119.39ZM35.002 119.724C35.3813 119.623 35.7702 119.849 35.8706 120.229C35.9924 120.688 36.1175 121.149 36.246 121.609C36.3514 121.987 36.1305 122.379 35.7526 122.484C35.3747 122.59 34.9828 122.369 34.8773 121.991C34.7471 121.524 34.6204 121.058 34.497 120.592C34.3966 120.213 34.6226 119.824 35.002 119.724ZM267.603 122.547C267.994 122.516 268.336 122.808 268.367 123.199C268.405 123.674 268.44 124.152 268.473 124.634C268.499 125.025 268.203 125.364 267.812 125.391C267.421 125.417 267.082 125.121 267.055 124.73C267.023 124.254 266.988 123.781 266.951 123.312C266.92 122.921 267.211 122.579 267.603 122.547ZM171.621 123.501C171.972 123.677 172.114 124.104 171.938 124.454C171.724 124.881 171.508 125.309 171.29 125.737C171.112 126.087 170.684 126.226 170.335 126.048C169.985 125.87 169.846 125.442 170.024 125.092C170.24 124.667 170.455 124.242 170.668 123.817C170.844 123.467 171.271 123.325 171.621 123.501ZM105.278 125.63C105.639 125.782 105.809 126.199 105.657 126.561C105.479 126.985 105.298 127.418 105.116 127.861C104.966 128.224 104.55 128.396 104.188 128.246C103.825 128.097 103.652 127.681 103.802 127.319C103.986 126.873 104.168 126.437 104.347 126.01C104.499 125.648 104.916 125.478 105.278 125.63ZM37.0324 126.644C37.4044 126.519 37.8073 126.719 37.9323 127.091C38.0847 127.544 38.2404 127.997 38.3993 128.45C38.5292 128.82 38.3343 129.226 37.964 129.356C37.5938 129.486 37.1883 129.291 37.0585 128.92C36.8975 128.462 36.7399 128.003 36.5855 127.544C36.4604 127.172 36.6605 126.769 37.0324 126.644ZM268.007 129.679C268.399 129.67 268.725 129.98 268.735 130.372C268.747 130.847 268.756 131.324 268.763 131.805C268.769 132.198 268.456 132.52 268.063 132.526C267.671 132.532 267.348 132.219 267.342 131.826C267.335 131.35 267.326 130.877 267.314 130.407C267.305 130.015 267.615 129.689 268.007 129.679ZM168.325 129.886C168.671 130.072 168.801 130.502 168.615 130.848C168.39 131.267 168.163 131.687 167.934 132.108C167.747 132.452 167.316 132.58 166.971 132.392C166.626 132.205 166.499 131.774 166.686 131.429C166.913 131.011 167.139 130.593 167.363 130.176C167.549 129.83 167.98 129.7 168.325 129.886ZM102.634 132.084C102.998 132.231 103.175 132.645 103.028 133.009C102.858 133.432 102.686 133.861 102.512 134.293C102.366 134.657 101.952 134.833 101.588 134.687C101.224 134.541 101.047 134.127 101.194 133.763C101.368 133.331 101.54 132.903 101.71 132.479C101.856 132.115 102.27 131.938 102.634 132.084ZM39.5076 133.424C39.8709 133.276 40.2856 133.45 40.434 133.813C40.6154 134.258 40.8001 134.702 40.988 135.146C41.1408 135.508 40.9718 135.925 40.6104 136.078C40.249 136.23 39.8321 136.061 39.6793 135.7C39.4891 135.25 39.3022 134.8 39.1184 134.35C38.9701 133.987 39.1444 133.572 39.5076 133.424ZM164.862 136.186C165.203 136.379 165.322 136.813 165.129 137.154C164.894 137.567 164.658 137.98 164.421 138.394C164.226 138.734 163.792 138.852 163.451 138.657C163.111 138.462 162.993 138.027 163.189 137.687C163.425 137.275 163.66 136.864 163.893 136.453C164.087 136.111 164.52 135.992 164.862 136.186ZM268.048 136.831C268.44 136.839 268.752 137.163 268.744 137.556C268.734 138.027 268.722 138.501 268.708 138.978C268.697 139.37 268.37 139.678 267.977 139.667C267.585 139.656 267.277 139.329 267.288 138.936C267.302 138.463 267.313 137.993 267.323 137.526C267.331 137.134 267.656 136.822 268.048 136.831ZM100.024 138.537C100.387 138.687 100.56 139.102 100.41 139.465C100.234 139.89 100.057 140.317 99.878 140.746C99.7268 141.108 99.3108 141.279 98.9487 141.128C98.5866 140.977 98.4156 140.561 98.5667 140.198C98.7449 139.772 98.9214 139.346 99.0964 138.922C99.2462 138.56 99.6616 138.387 100.024 138.537ZM42.4017 140.041C42.7552 139.871 43.1798 140.02 43.35 140.373C43.4545 140.59 43.5598 140.807 43.6659 141.024C43.773 141.244 43.8799 141.461 43.9867 141.678C44.1602 142.03 44.0156 142.456 43.6637 142.629C43.3118 142.803 42.8858 142.658 42.7123 142.306C42.6047 142.088 42.4971 141.869 42.3892 141.648C42.2819 141.429 42.1754 141.209 42.0696 140.989C41.8994 140.636 42.0481 140.211 42.4017 140.041ZM161.265 142.399C161.603 142.599 161.714 143.035 161.513 143.373C161.269 143.784 161.023 144.195 160.777 144.606C160.575 144.943 160.139 145.052 159.802 144.85C159.466 144.649 159.356 144.212 159.558 143.876C159.804 143.466 160.048 143.056 160.292 142.647C160.492 142.309 160.928 142.198 161.265 142.399ZM267.785 143.996C268.177 144.019 268.475 144.355 268.452 144.747C268.425 145.212 268.395 145.679 268.364 146.15C268.339 146.541 268 146.838 267.609 146.812C267.217 146.786 266.921 146.448 266.947 146.056C266.977 145.589 267.006 145.125 267.034 144.663C267.057 144.271 267.393 143.972 267.785 143.996ZM97.3123 144.941C97.671 145.1 97.8327 145.52 97.6736 145.878C97.485 146.303 97.2947 146.728 97.1027 147.153C96.9409 147.51 96.52 147.669 96.1625 147.507C95.805 147.345 95.6463 146.924 95.808 146.567C95.9985 146.146 96.1874 145.724 96.3748 145.302C96.5339 144.943 96.9537 144.781 97.3123 144.941ZM45.5571 146.331C45.9035 146.146 46.3338 146.278 46.5181 146.624C46.7322 147.027 46.9456 147.424 47.1583 147.815C47.3456 148.16 47.2179 148.592 46.873 148.779C46.5282 148.966 46.0969 148.838 45.9096 148.494C45.6949 148.098 45.4796 147.698 45.2636 147.292C45.0793 146.945 45.2107 146.515 45.5571 146.331ZM157.561 148.535C157.895 148.741 157.998 149.179 157.792 149.513C157.539 149.923 157.285 150.333 157.03 150.743C156.823 151.076 156.385 151.179 156.052 150.972C155.719 150.765 155.616 150.326 155.823 149.993C156.078 149.584 156.331 149.175 156.583 148.767C156.789 148.433 157.227 148.329 157.561 148.535ZM267.266 151.149C267.656 151.185 267.944 151.53 267.908 151.921C267.866 152.389 267.821 152.86 267.775 153.333C267.737 153.723 267.39 154.009 266.999 153.971C266.609 153.933 266.323 153.585 266.361 153.195C266.407 152.725 266.451 152.257 266.493 151.792C266.529 151.401 266.875 151.113 267.266 151.149ZM94.3915 151.253C94.7429 151.428 94.8861 151.854 94.7115 152.206C94.5027 152.626 94.2921 153.044 94.0797 153.459C93.901 153.808 93.473 153.947 93.1236 153.768C92.7743 153.59 92.6359 153.162 92.8146 152.812C93.0244 152.402 93.2326 151.989 93.439 151.573C93.6137 151.222 94.0401 151.079 94.3915 151.253ZM48.9285 152.395C49.2653 152.193 49.7015 152.303 49.9028 152.64C50.1433 153.042 50.3828 153.438 50.6215 153.827C50.8268 154.161 50.7222 154.598 50.3878 154.804C50.0534 155.009 49.6159 154.904 49.4106 154.57C49.1689 154.176 48.9264 153.776 48.683 153.369C48.4818 153.032 48.5917 152.596 48.9285 152.395ZM153.757 154.62C154.088 154.83 154.185 155.27 153.975 155.601C153.717 156.005 153.459 156.41 153.2 156.815C152.988 157.145 152.549 157.242 152.218 157.03C151.888 156.819 151.791 156.379 152.003 156.049C152.261 155.645 152.519 155.241 152.776 154.838C152.987 154.507 153.426 154.409 153.757 154.62ZM91.1426 157.403C91.4811 157.602 91.5948 158.037 91.3965 158.376C91.1571 158.784 90.9156 159.188 90.6718 159.587C90.4674 159.922 90.0302 160.028 89.6952 159.824C89.3603 159.619 89.2546 159.182 89.459 158.847C89.6981 158.455 89.9352 158.059 90.1704 157.657C90.3688 157.319 90.804 157.205 91.1426 157.403ZM52.6438 158.265C52.9657 158.041 53.4086 158.12 53.6329 158.442C53.9094 158.839 54.1847 159.227 54.4586 159.605C54.6887 159.923 54.6176 160.367 54.2998 160.597C53.982 160.827 53.5378 160.756 53.3077 160.438C53.0285 160.053 52.7483 159.658 52.4669 159.254C52.2426 158.932 52.3218 158.49 52.6438 158.265ZM266.54 158.203C266.93 158.249 267.208 158.603 267.162 158.992C267.104 159.474 267.046 159.957 266.985 160.444C266.937 160.833 266.582 161.109 266.193 161.061C265.803 161.013 265.527 160.658 265.575 160.268C265.635 159.785 265.694 159.303 265.751 158.824C265.797 158.435 266.15 158.156 266.54 158.203ZM149.871 160.659C150.2 160.874 150.292 161.314 150.078 161.642C149.816 162.043 149.554 162.444 149.291 162.844C149.076 163.172 148.635 163.264 148.307 163.049C147.979 162.833 147.888 162.393 148.103 162.065C148.365 161.665 148.627 161.265 148.888 160.865C149.102 160.537 149.543 160.445 149.871 160.659ZM87.3945 163.257C87.7088 163.491 87.7732 163.937 87.5383 164.251C87.2502 164.637 86.9592 165.014 86.6652 165.383C86.4206 165.69 85.9736 165.74 85.6668 165.496C85.3599 165.251 85.3094 164.804 85.554 164.497C85.8383 164.14 86.1203 163.775 86.4 163.4C86.6349 163.086 87.0802 163.022 87.3945 163.257ZM56.8632 163.849C57.1592 163.592 57.608 163.623 57.8655 163.919C58.1649 164.263 58.4625 164.596 58.7583 164.917C59.024 165.206 59.0053 165.656 58.7165 165.921C58.4277 166.187 57.9783 166.168 57.7126 165.879C57.4076 165.548 57.1012 165.205 56.7935 164.852C56.5359 164.556 56.5671 164.107 56.8632 163.849ZM265.629 165.276C266.017 165.331 266.287 165.691 266.232 166.08C266.165 166.55 266.096 167.022 266.026 167.496C265.969 167.885 265.608 168.153 265.22 168.096C264.832 168.039 264.564 167.678 264.621 167.289C264.69 166.817 264.758 166.347 264.825 165.879C264.881 165.49 265.241 165.22 265.629 165.276ZM145.919 166.658C146.246 166.876 146.334 167.317 146.116 167.643C145.851 168.041 145.586 168.439 145.32 168.836C145.102 169.162 144.66 169.25 144.334 169.031C144.008 168.813 143.921 168.372 144.139 168.046C144.404 167.649 144.67 167.252 144.934 166.855C145.152 166.529 145.593 166.44 145.919 166.658ZM82.8489 168.532C83.1099 168.825 83.084 169.274 82.791 169.535C82.4333 169.854 82.0713 170.159 81.705 170.449C81.3973 170.692 80.9505 170.64 80.707 170.333C80.4634 170.025 80.5154 169.578 80.8231 169.335C81.1666 169.063 81.5075 168.776 81.8458 168.474C82.1388 168.213 82.5879 168.239 82.8489 168.532ZM61.7245 168.771C61.9692 168.465 62.4162 168.414 62.723 168.659C63.0883 168.95 63.4504 169.224 63.8093 169.481C64.1285 169.709 64.2023 170.153 63.9741 170.472C63.7459 170.791 63.3022 170.865 62.983 170.637C62.6029 170.365 62.221 170.076 61.837 169.77C61.5302 169.525 61.4799 169.078 61.7245 168.771ZM77.1208 172.398C77.251 172.768 77.0564 173.174 76.6862 173.304C76.222 173.467 75.7518 173.605 75.2755 173.716C74.8934 173.805 74.5113 173.568 74.422 173.186C74.3327 172.804 74.5701 172.422 74.9521 172.333C75.3767 172.233 75.7975 172.11 76.215 171.963C76.5851 171.833 76.9907 172.028 77.1208 172.398ZM67.6136 172.415C67.739 172.043 68.142 171.843 68.5138 171.968C68.9327 172.11 69.3465 172.227 69.7556 172.322C70.1379 172.41 70.3759 172.792 70.2873 173.174C70.1987 173.557 69.817 173.795 69.4347 173.706C68.9795 173.601 68.5212 173.47 68.0598 173.315C67.688 173.189 67.4882 172.786 67.6136 172.415ZM264.551 172.394C264.938 172.458 265.201 172.823 265.137 173.21C265.062 173.669 264.986 174.129 264.908 174.591C264.844 174.978 264.477 175.239 264.09 175.175C263.703 175.11 263.442 174.743 263.507 174.356C263.584 173.896 263.66 173.437 263.735 172.981C263.798 172.593 264.164 172.331 264.551 172.394ZM141.917 172.62C142.241 172.84 142.326 173.282 142.106 173.606C141.838 174.002 141.569 174.398 141.3 174.794C141.079 175.119 140.637 175.203 140.313 174.982C139.988 174.762 139.904 174.32 140.125 173.995C140.393 173.6 140.662 173.204 140.93 172.809C141.15 172.484 141.592 172.399 141.917 172.62ZM137.875 178.549C138.199 178.771 138.281 179.213 138.059 179.537C137.932 179.722 137.805 179.907 137.678 180.092C137.533 180.302 137.389 180.511 137.245 180.721C137.022 181.045 136.58 181.126 136.257 180.904C135.933 180.681 135.852 180.239 136.074 179.916C136.345 179.522 136.616 179.127 136.887 178.733C137.109 178.409 137.552 178.327 137.875 178.549ZM263.35 179.407C263.736 179.477 263.992 179.847 263.922 180.233C263.835 180.711 263.747 181.191 263.657 181.673C263.586 182.059 263.215 182.314 262.829 182.242C262.444 182.171 262.189 181.8 262.26 181.414C262.349 180.934 262.437 180.455 262.524 179.979C262.594 179.593 262.964 179.337 263.35 179.407ZM133.8 184.461C134.122 184.685 134.203 185.127 133.979 185.45C133.707 185.843 133.434 186.236 133.161 186.63C132.937 186.952 132.495 187.032 132.172 186.808C131.85 186.585 131.77 186.142 131.994 185.819C132.266 185.427 132.539 185.034 132.811 184.64C133.035 184.318 133.477 184.238 133.8 184.461ZM262.031 186.407C262.416 186.483 262.666 186.857 262.59 187.242C262.498 187.706 262.405 188.172 262.311 188.64C262.233 189.025 261.859 189.274 261.474 189.197C261.089 189.12 260.84 188.745 260.918 188.36C261.011 187.894 261.104 187.429 261.196 186.966C261.272 186.581 261.646 186.331 262.031 186.407ZM129.703 190.358C130.025 190.583 130.104 191.025 129.88 191.347L129.058 192.526C128.834 192.848 128.391 192.927 128.069 192.702C127.747 192.478 127.668 192.035 127.893 191.713L128.714 190.535C128.938 190.213 129.381 190.134 129.703 190.358ZM260.584 193.499C260.968 193.581 261.213 193.958 261.132 194.342C261.035 194.796 260.938 195.252 260.839 195.709C260.757 196.093 260.379 196.337 259.995 196.254C259.612 196.172 259.368 195.794 259.45 195.41C259.548 194.954 259.646 194.5 259.742 194.047C259.823 193.663 260.201 193.418 260.584 193.499ZM125.597 196.243C125.919 196.468 125.998 196.911 125.773 197.233L124.949 198.413C124.724 198.735 124.281 198.813 123.959 198.589C123.638 198.364 123.559 197.921 123.784 197.599L124.608 196.419C124.833 196.097 125.275 196.019 125.597 196.243ZM259.086 200.387C259.469 200.473 259.709 200.853 259.623 201.236C259.518 201.703 259.412 202.172 259.305 202.642C259.218 203.025 258.837 203.264 258.454 203.177C258.072 203.09 257.832 202.71 257.919 202.327C258.026 201.858 258.132 201.39 258.237 200.924C258.323 200.541 258.703 200.301 259.086 200.387ZM121.49 202.126C121.811 202.351 121.89 202.794 121.666 203.115L120.844 204.294C120.62 204.616 120.177 204.695 119.855 204.471C119.533 204.247 119.454 203.804 119.678 203.482L120.5 202.303C120.725 201.981 121.168 201.902 121.49 202.126ZM257.471 207.412C257.853 207.502 258.09 207.885 257.999 208.267C257.944 208.5 257.889 208.733 257.833 208.966C257.781 209.187 257.728 209.408 257.676 209.629C257.584 210.011 257.201 210.246 256.82 210.155C256.438 210.064 256.202 209.681 256.293 209.299C256.402 208.844 256.51 208.391 256.617 207.94C256.707 207.558 257.09 207.322 257.471 207.412ZM117.383 208.024C117.705 208.248 117.785 208.69 117.562 209.013C117.393 209.256 117.224 209.5 117.055 209.743C116.953 209.891 116.85 210.039 116.748 210.186C116.525 210.509 116.082 210.589 115.759 210.366C115.437 210.142 115.357 209.699 115.58 209.377C115.851 208.986 116.122 208.595 116.394 208.203C116.618 207.88 117.061 207.8 117.383 208.024ZM113.296 213.933C113.619 214.156 113.701 214.598 113.479 214.921C113.208 215.315 112.938 215.708 112.669 216.101C112.447 216.424 112.005 216.507 111.681 216.285C111.358 216.063 111.275 215.62 111.497 215.297C111.767 214.904 112.037 214.51 112.308 214.116C112.53 213.793 112.973 213.711 113.296 213.933ZM255.811 214.306C256.192 214.4 256.425 214.785 256.331 215.166C256.216 215.633 256.099 216.102 255.982 216.572C255.888 216.953 255.502 217.185 255.121 217.09C254.741 216.996 254.509 216.61 254.603 216.229C254.72 215.76 254.836 215.292 254.951 214.825C255.045 214.444 255.431 214.212 255.811 214.306ZM109.242 219.859C109.567 220.08 109.651 220.521 109.431 220.846C109.162 221.243 108.894 221.639 108.626 222.035C108.407 222.36 107.965 222.445 107.64 222.226C107.315 222.006 107.229 221.564 107.449 221.239C107.717 220.843 107.986 220.446 108.255 220.049C108.475 219.724 108.917 219.639 109.242 219.859ZM254.064 221.277C254.444 221.374 254.673 221.761 254.576 222.141C254.46 222.594 254.343 223.047 254.226 223.502C254.128 223.882 253.74 224.11 253.36 224.012C252.98 223.914 252.752 223.527 252.85 223.147C252.967 222.693 253.083 222.24 253.199 221.789C253.297 221.409 253.684 221.179 254.064 221.277ZM105.235 225.81C105.562 226.027 105.65 226.468 105.433 226.795C105.166 227.196 104.901 227.597 104.636 227.996C104.419 228.323 103.978 228.413 103.651 228.196C103.324 227.98 103.234 227.539 103.451 227.212C103.716 226.811 103.983 226.41 104.25 226.008C104.467 225.681 104.908 225.593 105.235 225.81ZM252.277 228.156C252.656 228.256 252.882 228.645 252.782 229.025C252.709 229.301 252.635 229.578 252.561 229.856C252.511 230.046 252.46 230.236 252.41 230.426C252.309 230.805 251.92 231.03 251.54 230.929C251.161 230.828 250.936 230.439 251.037 230.06C251.161 229.592 251.285 229.126 251.408 228.661C251.509 228.282 251.898 228.056 252.277 228.156ZM101.291 231.795C101.621 232.009 101.714 232.449 101.501 232.778C101.237 233.184 100.975 233.59 100.714 233.995C100.502 234.324 100.062 234.419 99.7322 234.207C99.4024 233.994 99.3073 233.555 99.5199 233.225C99.7815 232.819 100.044 232.412 100.309 232.005C100.522 231.676 100.962 231.582 101.291 231.795ZM250.416 235.102C250.794 235.205 251.018 235.596 250.914 235.974C250.792 236.424 250.668 236.876 250.544 237.328C250.441 237.707 250.05 237.929 249.671 237.826C249.293 237.722 249.07 237.331 249.174 236.953C249.298 236.501 249.421 236.05 249.543 235.601C249.647 235.222 250.037 234.999 250.416 235.102ZM97.4279 237.829C97.7604 238.038 97.8609 238.476 97.6525 238.809C97.3939 239.221 97.137 239.632 96.8818 240.043C96.6746 240.376 96.2365 240.478 95.9033 240.271C95.5701 240.064 95.468 239.625 95.6752 239.292C95.9313 238.88 96.1891 238.468 96.4486 238.054C96.657 237.721 97.0955 237.621 97.4279 237.829ZM248.532 241.942C248.91 242.048 249.13 242.44 249.025 242.818C248.895 243.28 248.765 243.744 248.635 244.209C248.528 244.587 248.136 244.807 247.758 244.701C247.381 244.595 247.16 244.202 247.267 243.825C247.397 243.36 247.527 242.897 247.656 242.435C247.762 242.057 248.154 241.837 248.532 241.942ZM93.6559 243.948C93.9924 244.149 94.1017 244.586 93.8999 244.922C93.6524 245.335 93.407 245.746 93.1635 246.157C92.9633 246.494 92.5274 246.605 92.19 246.405C91.8525 246.205 91.7413 245.769 91.9415 245.432C92.1861 245.019 92.4327 244.606 92.6812 244.192C92.883 243.855 93.3194 243.746 93.6559 243.948ZM246.568 248.896C246.946 249.004 247.164 249.397 247.056 249.774C246.928 250.221 246.8 250.669 246.671 251.118C246.562 251.495 246.169 251.713 245.792 251.605C245.414 251.496 245.197 251.103 245.305 250.726C245.434 250.277 245.562 249.83 245.69 249.383C245.798 249.006 246.191 248.788 246.568 248.896ZM90.0223 250.144C90.3639 250.337 90.4844 250.77 90.2913 251.112C90.056 251.528 89.8231 251.943 89.5927 252.357C89.4017 252.7 88.969 252.823 88.6262 252.632C88.2834 252.441 88.1604 252.008 88.3514 251.665C88.5833 251.249 88.8176 250.832 89.0542 250.413C89.2473 250.071 89.6807 249.951 90.0223 250.144ZM244.611 255.679C244.987 255.789 245.203 256.184 245.093 256.561C244.959 257.019 244.825 257.478 244.69 257.938C244.58 258.315 244.185 258.53 243.808 258.42C243.432 258.31 243.216 257.915 243.326 257.538C243.461 257.078 243.596 256.62 243.729 256.162C243.839 255.785 244.234 255.569 244.611 255.679ZM86.5716 256.436C86.9195 256.617 87.0545 257.047 86.8731 257.394C86.7796 257.574 86.6867 257.753 86.5943 257.932C86.5494 258.136 86.5068 258.339 86.4667 258.542C86.3905 258.927 86.0167 259.178 85.6318 259.101C85.2469 259.025 84.9966 258.651 85.0727 258.267C85.121 258.023 85.1725 257.778 85.2272 257.533L85.2472 257.443L85.2894 257.362C85.3966 257.154 85.5045 256.946 85.6131 256.738C85.7945 256.39 86.2237 256.255 86.5716 256.436ZM242.563 262.634C242.939 262.746 243.153 263.141 243.041 263.517L242.831 264.223C242.761 264.457 242.689 264.691 242.616 264.923C242.498 265.297 242.099 265.505 241.725 265.387C241.351 265.27 241.143 264.871 241.261 264.497C241.332 264.271 241.401 264.044 241.469 263.816L241.679 263.112C241.791 262.736 242.187 262.522 242.563 262.634ZM85.2238 263.348C85.6161 263.344 85.9374 263.659 85.9413 264.051C85.946 264.516 85.9634 264.977 85.9933 265.435C86.0188 265.827 85.7221 266.165 85.3305 266.19C84.939 266.216 84.6009 265.919 84.5753 265.528C84.5437 265.043 84.5254 264.556 84.5205 264.065C84.5165 263.673 84.8314 263.352 85.2238 263.348ZM240.209 269.363C240.566 269.525 240.725 269.946 240.563 270.304C240.363 270.746 240.156 271.185 239.944 271.619C239.771 271.971 239.346 272.117 238.993 271.944C238.641 271.772 238.495 271.346 238.668 270.994C238.874 270.573 239.074 270.147 239.268 269.718C239.43 269.36 239.851 269.202 240.209 269.363ZM86.0768 270.373C86.4531 270.261 86.8483 270.476 86.9596 270.852C87.0898 271.293 87.2321 271.73 87.3863 272.163C87.5177 272.533 87.3246 272.939 86.9549 273.071C86.5852 273.202 86.1789 273.009 86.0474 272.639C85.8848 272.182 85.7345 271.721 85.597 271.255C85.4857 270.879 85.7005 270.484 86.0768 270.373ZM236.892 275.647C237.221 275.861 237.314 276.301 237.1 276.63C236.838 277.034 236.57 277.434 236.295 277.829C236.072 278.152 235.629 278.232 235.307 278.008C234.984 277.785 234.904 277.342 235.128 277.019C235.394 276.636 235.654 276.248 235.909 275.856C236.123 275.527 236.563 275.433 236.892 275.647ZM88.7858 276.908C89.1219 276.706 89.5585 276.814 89.761 277.15C89.9985 277.545 90.2463 277.935 90.5043 278.323C90.7217 278.65 90.6332 279.091 90.3066 279.308C89.98 279.526 89.5389 279.437 89.3215 279.11C89.0518 278.705 88.7925 278.296 88.5438 277.884C88.3413 277.547 88.4497 277.111 88.7858 276.908ZM232.68 281.36C232.975 281.619 233.003 282.068 232.744 282.362C232.427 282.722 232.105 283.078 231.778 283.43C231.511 283.717 231.061 283.733 230.774 283.466C230.486 283.199 230.47 282.749 230.738 282.462C231.056 282.12 231.369 281.774 231.678 281.424C231.937 281.129 232.386 281.1 232.68 281.36ZM92.9589 282.65C93.2468 282.383 93.6963 282.4 93.9629 282.688C94.2794 283.03 94.6044 283.369 94.9375 283.704C95.2141 283.983 95.2125 284.432 94.9341 284.709C94.6558 284.985 94.2059 284.984 93.9294 284.706C93.5848 284.359 93.2483 284.008 92.9203 283.654C92.6537 283.366 92.671 282.916 92.9589 282.65ZM227.709 286.424C227.967 286.72 227.935 287.169 227.639 287.426C227.278 287.741 226.912 288.051 226.541 288.358C226.239 288.608 225.791 288.566 225.541 288.263C225.291 287.961 225.333 287.513 225.635 287.263C225.997 286.964 226.354 286.661 226.707 286.354C227.003 286.097 227.452 286.128 227.709 286.424ZM98.1192 287.531C98.362 287.223 98.8087 287.17 99.1169 287.413C99.4776 287.697 99.8446 287.978 100.218 288.257C100.532 288.491 100.597 288.936 100.362 289.251C100.128 289.565 99.6826 289.63 99.3681 289.396C98.9852 289.11 98.6083 288.821 98.2376 288.529C97.9294 288.286 97.8764 287.84 98.1192 287.531ZM222.132 290.818C222.353 291.143 222.269 291.585 221.945 291.806C221.548 292.076 221.148 292.342 220.743 292.604C220.414 292.818 219.974 292.724 219.761 292.395C219.547 292.066 219.641 291.626 219.97 291.412C220.365 291.156 220.757 290.895 221.145 290.631C221.47 290.41 221.912 290.494 222.132 290.818ZM103.901 291.629C104.105 291.294 104.542 291.188 104.878 291.392C105.276 291.635 105.68 291.875 106.089 292.112C106.429 292.309 106.544 292.743 106.347 293.083C106.15 293.422 105.716 293.538 105.376 293.341C104.959 293.099 104.546 292.854 104.139 292.606C103.804 292.402 103.697 291.965 103.901 291.629ZM216.095 294.562C216.281 294.908 216.152 295.339 215.806 295.525C215.383 295.753 214.957 295.977 214.528 296.198C214.179 296.377 213.75 296.24 213.571 295.891C213.391 295.542 213.529 295.113 213.878 294.934C214.299 294.717 214.717 294.497 215.132 294.274C215.478 294.088 215.909 294.217 216.095 294.562ZM110.116 295.076C110.287 294.723 110.712 294.575 111.065 294.746C111.49 294.951 111.919 295.154 112.352 295.354C112.708 295.519 112.864 295.941 112.699 296.297C112.534 296.654 112.112 296.809 111.756 296.644C111.316 296.441 110.879 296.234 110.446 296.025C110.093 295.855 109.945 295.43 110.116 295.076ZM209.717 297.697C209.871 298.058 209.703 298.476 209.342 298.63C208.9 298.819 208.456 299.004 208.008 299.186C207.645 299.334 207.23 299.16 207.082 298.796C206.934 298.433 207.109 298.018 207.472 297.87C207.912 297.691 208.35 297.509 208.784 297.323C209.145 297.169 209.563 297.337 209.717 297.697ZM116.619 297.959C116.761 297.593 117.173 297.411 117.539 297.553C117.982 297.725 118.428 297.895 118.877 298.062C119.245 298.198 119.432 298.607 119.295 298.975C119.159 299.343 118.75 299.53 118.382 299.394C117.926 299.224 117.474 299.053 117.024 298.878C116.659 298.736 116.477 298.324 116.619 297.959ZM203.093 300.274C203.218 300.646 203.018 301.049 202.646 301.174C202.192 301.326 201.736 301.475 201.279 301.622C200.905 301.741 200.505 301.535 200.386 301.161C200.266 300.787 200.472 300.388 200.846 300.268C201.297 300.124 201.746 299.977 202.193 299.827C202.565 299.702 202.968 299.902 203.093 300.274ZM123.32 300.346C123.437 299.971 123.835 299.762 124.21 299.879C124.659 300.019 125.112 300.156 125.566 300.292C125.942 300.404 126.156 300.799 126.044 301.175C125.932 301.551 125.537 301.766 125.161 301.654C124.701 301.517 124.243 301.377 123.787 301.235C123.413 301.119 123.203 300.72 123.32 300.346ZM130.159 302.291C130.253 301.91 130.638 301.677 131.019 301.771C131.474 301.883 131.932 301.993 132.39 302.1C132.773 302.19 133.01 302.572 132.92 302.954C132.831 303.336 132.449 303.573 132.067 303.484C131.603 303.375 131.14 303.264 130.68 303.151C130.299 303.057 130.066 302.672 130.159 302.291ZM196.293 302.342C196.392 302.722 196.164 303.109 195.784 303.208C195.322 303.328 194.859 303.444 194.394 303.558C194.012 303.652 193.628 303.418 193.534 303.037C193.441 302.656 193.674 302.271 194.055 302.178C194.514 302.066 194.972 301.95 195.427 301.832C195.807 301.734 196.195 301.962 196.293 302.342ZM137.098 303.833C137.17 303.448 137.542 303.194 137.927 303.266C138.388 303.353 138.85 303.437 139.313 303.519C139.699 303.588 139.957 303.956 139.889 304.343C139.82 304.729 139.452 304.987 139.065 304.919C138.597 304.836 138.13 304.75 137.665 304.663C137.279 304.59 137.025 304.219 137.098 303.833ZM189.37 303.945C189.444 304.331 189.192 304.703 188.807 304.777C188.339 304.867 187.87 304.954 187.399 305.039C187.013 305.108 186.644 304.852 186.574 304.465C186.505 304.079 186.762 303.71 187.148 303.64C187.613 303.557 188.076 303.471 188.538 303.382C188.924 303.308 189.296 303.56 189.37 303.945ZM144.107 304.999C144.16 304.61 144.517 304.337 144.906 304.39C145.371 304.452 145.837 304.512 146.304 304.57C146.694 304.619 146.97 304.974 146.922 305.363C146.873 305.752 146.518 306.029 146.129 305.98C145.657 305.922 145.187 305.861 144.717 305.798C144.328 305.745 144.055 305.388 144.107 304.999ZM182.362 305.121C182.414 305.51 182.14 305.867 181.751 305.919C181.279 305.981 180.806 306.041 180.332 306.099C179.942 306.146 179.588 305.868 179.541 305.479C179.494 305.089 179.772 304.735 180.161 304.688C180.63 304.631 181.098 304.572 181.565 304.51C181.954 304.459 182.311 304.732 182.362 305.121ZM151.167 305.804C151.199 305.413 151.543 305.123 151.934 305.155C152.403 305.195 152.872 305.232 153.342 305.266C153.733 305.295 154.027 305.636 153.998 306.027C153.969 306.419 153.628 306.712 153.237 306.683C152.762 306.648 152.289 306.611 151.815 306.571C151.424 306.539 151.134 306.195 151.167 305.804ZM175.299 305.899C175.329 306.29 175.037 306.632 174.646 306.662C174.171 306.699 173.695 306.733 173.219 306.765C172.828 306.791 172.489 306.495 172.463 306.104C172.437 305.712 172.733 305.374 173.124 305.347C173.595 305.316 174.066 305.282 174.536 305.245C174.927 305.215 175.269 305.508 175.299 305.899ZM158.257 306.257C158.271 305.865 158.599 305.558 158.992 305.571C159.462 305.587 159.934 305.601 160.405 305.613C160.797 305.622 161.107 305.948 161.098 306.34C161.088 306.732 160.763 307.043 160.37 307.033C159.894 307.022 159.418 307.008 158.943 306.991C158.551 306.978 158.244 306.649 158.257 306.257ZM168.204 306.3C168.214 306.692 167.905 307.019 167.512 307.029C167.036 307.041 166.56 307.051 166.083 307.058C165.691 307.064 165.368 306.751 165.362 306.359C165.356 305.967 165.669 305.644 166.061 305.637C166.533 305.63 167.004 305.62 167.476 305.608C167.868 305.598 168.194 305.908 168.204 306.3Z" fill="#7AA5C1"/>
<path fill-rule="evenodd" clip-rule="evenodd" d="M30.755 143.422C30.7551 143.422 30.7552 143.422 30.7552 143.423C32.6429 150.467 39.884 154.648 46.9287 152.76C53.9735 150.873 58.1542 143.632 56.2665 136.587C56.2664 136.587 56.2664 136.586 56.2663 136.586L64.1063 134.485C64.1064 134.486 64.1065 134.486 64.1065 134.486C67.1544 145.861 60.4041 157.553 49.0295 160.6C37.6548 163.648 25.9631 156.898 22.9152 145.523C22.9151 145.523 22.9151 145.523 22.915 145.522L30.755 143.422Z" fill="#005B84"/>
<path fill-rule="evenodd" clip-rule="evenodd" d="M108.768 44.5324C108.768 44.5324 108.769 44.5324 108.769 44.5324C118.718 44.5324 126.783 36.4674 126.783 26.5187C126.783 16.57 118.718 8.50504 108.769 8.50504C108.769 8.50504 108.768 8.50504 108.768 8.50504L108.768 0.388915C108.768 0.388915 108.769 0.388925 108.769 0.388925C123.2 0.388926 134.899 12.0876 134.899 26.5187C134.899 40.9498 123.2 52.6485 108.769 52.6485C108.769 52.6485 108.768 52.6485 108.768 52.6485L108.768 44.5324ZM82.6393 26.5506L82.6393 26.4868C82.6393 26.4974 82.6393 26.5081 82.6393 26.5187C82.6393 26.5294 82.6393 26.54 82.6393 26.5506Z" fill="#005B84"/>
<path fill-rule="evenodd" clip-rule="evenodd" d="M145.839 147.772C148.858 142.544 155.543 140.754 160.771 143.772C165.998 146.79 167.79 153.475 164.772 158.703L170.59 162.061L170.482 162.248C170.518 162.187 170.554 162.125 170.59 162.063C175.464 153.622 172.571 142.827 164.13 137.954C155.688 133.08 144.894 135.972 140.02 144.414C139.987 144.471 139.954 144.529 139.922 144.587L140.022 144.413L145.839 147.772ZM146.74 168.67L146.224 168.372C146.309 168.423 146.394 168.473 146.48 168.523C146.567 168.573 146.653 168.622 146.74 168.67Z" fill="#005B84"/>
<path fill-rule="evenodd" clip-rule="evenodd" d="M100.168 258.694C100.168 266.422 93.9032 272.687 86.175 272.687C78.4467 272.687 72.1817 266.422 72.1817 258.694H63.582V258.47C63.5813 258.545 63.5809 258.619 63.5809 258.694C63.5809 271.172 73.6966 281.288 86.175 281.288C98.6533 281.288 108.769 271.172 108.769 258.694C108.769 258.63 108.769 258.565 108.768 258.501V258.694H100.168ZM85.9504 236.101H86.3995C86.3248 236.1 86.2499 236.1 86.175 236.1C86.1 236.1 86.0252 236.1 85.9504 236.101Z" fill="#005B84"/>
<path fill-rule="evenodd" clip-rule="evenodd" d="M263.79 260.571C263.79 249.13 254.515 239.856 243.074 239.856C231.632 239.856 222.357 249.13 222.357 260.571L230.243 260.571C230.243 253.486 235.988 247.742 243.074 247.742C250.159 247.742 255.904 253.486 255.904 260.571L263.79 260.571Z" fill="#005B84"/>
<path fill-rule="evenodd" clip-rule="evenodd" d="M254.195 109.413C254.195 103.721 258.809 99.1072 264.501 99.1072C270.192 99.1072 274.807 103.721 274.807 109.413L281.14 109.413L281.14 109.632C281.141 109.559 281.141 109.486 281.141 109.413C281.141 100.223 273.691 92.7728 264.501 92.7728C255.31 92.7728 247.86 100.223 247.86 109.413C247.86 109.469 247.86 109.524 247.861 109.58L247.861 109.413L254.195 109.413ZM264.714 126.052L264.287 126.052C264.358 126.053 264.429 126.054 264.501 126.054C264.572 126.054 264.643 126.053 264.714 126.052Z" fill="#005B84"/>
<path fill-rule="evenodd" clip-rule="evenodd" d="M192.745 56.2292C188.601 56.2292 185.242 52.87 185.242 48.7263C185.242 44.5825 188.601 41.2233 192.745 41.2233C192.745 41.2233 192.745 41.2233 192.745 41.2233L192.745 36.6126L192.886 36.6126C192.839 36.6121 192.792 36.6118 192.745 36.6118C186.054 36.6118 180.63 42.0356 180.63 48.7263C180.63 55.4169 186.054 60.8407 192.745 60.8407C192.794 60.8407 192.842 60.8404 192.891 60.8398L192.745 60.8398L192.745 56.2292C192.745 56.2292 192.745 56.2292 192.745 56.2292Z" fill="#005B84"/>
</svg>
