<svg width="73" height="72" viewBox="0 0 73 72" fill="none" xmlns="http://www.w3.org/2000/svg">
<ellipse opacity="0.8" cx="35.7517" cy="36" rx="29.5" ry="28" fill="#D6E3EC"/>
<path opacity="0.9" d="M60.5017 36C60.5017 49.959 49.4071 61.25 35.7517 61.25C22.0963 61.25 11.0017 49.959 11.0017 36C11.0017 22.041 22.0963 10.75 35.7517 10.75C49.4071 10.75 60.5017 22.041 60.5017 36Z" stroke="#7AB9D5" stroke-width="1.5"/>
<path opacity="0.9" d="M43.4375 25.7394C51.1887 30.8207 57.3125 36.7199 60.9579 42.1225C62.7815 44.8252 63.9634 47.3718 64.4384 49.6049C64.9126 51.8342 64.673 53.692 63.7416 55.1127C62.8103 56.5335 61.2022 57.4943 58.9689 57.9486C56.7316 58.4038 53.925 58.3357 50.7192 57.7415C44.311 56.5535 36.4588 53.291 28.7075 48.2097C20.9563 43.1284 14.8325 37.2292 11.1871 31.8267C9.36346 29.124 8.18158 26.5773 7.70657 24.3443C7.23237 22.115 7.47204 20.2572 8.40338 18.8364C9.33472 17.4157 10.9428 16.4549 13.1761 16.0005C15.4134 15.5454 18.22 15.6134 21.4258 16.2077C27.834 17.3956 35.6862 20.6582 43.4375 25.7394Z" stroke="#7AB9D5" stroke-width="1.5"/>
<path opacity="0.9" d="M26.0603 26.0121C32.5999 19.196 39.7403 14.2456 45.9714 11.7345C52.274 9.19462 57.343 9.25411 60.0924 11.8919C62.8417 14.5298 63.1109 19.5921 60.8339 25.9944C58.5828 32.3241 53.9322 39.6632 47.3925 46.4793C40.8528 53.2955 33.7125 58.2458 27.4814 60.7569C21.1788 63.2968 16.1097 63.2373 13.3604 60.5995C10.6111 57.9617 10.3419 52.8994 12.6189 46.497C14.87 40.1673 19.5206 32.8282 26.0603 26.0121Z" stroke="#7AB9D5" stroke-width="1.5"/>
<path opacity="0.9" d="M43.5017 36C43.5017 43.1263 42.6119 49.5485 41.1917 54.1642C40.4802 56.4767 39.6483 58.2934 38.7592 59.5156C37.8581 60.7542 37.0013 61.25 36.2517 61.25C35.5021 61.25 34.6453 60.7542 33.7442 59.5156C32.8551 58.2934 32.0232 56.4767 31.3117 54.1642C29.8915 49.5485 29.0017 43.1263 29.0017 36C29.0017 28.8737 29.8915 22.4515 31.3117 17.8358C32.0232 15.5233 32.8551 13.7066 33.7442 12.4844C34.6453 11.2458 35.5021 10.75 36.2517 10.75C37.0013 10.75 37.8581 11.2458 38.7592 12.4844C39.6483 13.7066 40.4802 15.5233 41.1917 17.8358C42.6119 22.4515 43.5017 28.8737 43.5017 36Z" stroke="#7AB9D5" stroke-width="1.5"/>
<ellipse cx="21.3609" cy="31.1298" rx="3.13004" ry="3.13006" fill="#005B84"/>
<path d="M35.9455 47.361C41.8947 47.361 46.7174 42.5382 46.7174 36.589C46.7174 30.6397 41.8947 25.8169 35.9455 25.8169C29.9963 25.8169 25.1735 30.6397 25.1735 36.589C25.1735 42.5382 29.9963 47.361 35.9455 47.361Z" fill="#002B47" stroke="#7AB9D5" stroke-width="0.931558"/>
<g clip-path="url(#clip0_18449_143408)">
<path fill-rule="evenodd" clip-rule="evenodd" d="M35.9469 35.6876C36.9735 35.6876 37.8805 35.9332 38.6174 36.2544C39.2976 36.5568 39.7259 37.237 39.7259 37.9739L39.7259 40C39.7259 41.1046 38.8304 42 37.7259 42H34.168C33.0634 42 32.168 41.1046 32.168 40V37.9802C32.168 37.237 32.5963 36.5568 33.2765 36.2607C34.0134 35.9332 34.9203 35.6876 35.9469 35.6876ZM30.9083 35.8451C31.6011 35.8451 32.168 35.2782 32.168 34.5854C32.168 33.8926 31.6011 33.3258 30.9083 33.3258C30.2155 33.3258 29.6487 33.8926 29.6487 34.5854C29.6487 35.2782 30.2155 35.8451 30.9083 35.8451ZM31.62 36.5379C31.387 36.5001 31.154 36.4749 30.9083 36.4749C30.2848 36.4749 29.6928 36.6072 29.1574 36.8402C28.6914 37.0417 28.389 37.4952 28.389 38.0054V39C28.389 39.5523 28.8368 40 29.389 40H31.2232V37.9802C31.2232 37.4574 31.3681 36.9662 31.62 36.5379ZM40.9855 35.8451C41.6783 35.8451 42.2451 35.2782 42.2451 34.5854C42.2451 33.8926 41.6783 33.3258 40.9855 33.3258C40.2927 33.3258 39.7259 33.8926 39.7259 34.5854C39.7259 35.2782 40.2927 35.8451 40.9855 35.8451ZM43.5048 38.0054C43.5048 37.4952 43.2025 37.0417 42.7364 36.8402C42.2011 36.6072 41.609 36.4749 40.9855 36.4749C40.7399 36.4749 40.5068 36.5001 40.2738 36.5379C40.5257 36.9662 40.6706 37.4574 40.6706 37.9802V40H42.5048C43.0571 40 43.5048 39.5523 43.5048 39V38.0054ZM35.9469 31.4363C36.9924 31.4363 37.8364 32.2802 37.8364 33.3258C37.8364 34.3713 36.9924 35.2152 35.9469 35.2152C34.9014 35.2152 34.0574 34.3713 34.0574 33.3258C34.0574 32.2802 34.9014 31.4363 35.9469 31.4363Z" fill="#D6E9F2"/>
</g>
<ellipse cx="3.22098" cy="3.221" rx="3.22098" ry="3.221" transform="matrix(1 0 0 -1 47 46.4419)" fill="#005B84"/>
<circle cx="30.7517" cy="19.5" r="3.5" fill="#005B84"/>
<ellipse cx="2.14732" cy="2.14733" rx="2.14732" ry="2.14733" transform="matrix(1 0 0 -1 20.2517 59.2947)" fill="#005B84"/>
<circle cx="53.7517" cy="19.5" r="3.5" fill="#005288"/>
<circle cx="1.5" cy="1.5" r="1.5" transform="matrix(1 0 0 -1 10 43)" fill="#005B84"/>
<circle cx="1.5" cy="1.5" r="1.5" transform="matrix(1 0 0 -1 51.2517 56)" fill="#005B84"/>
<circle cx="1.5" cy="1.5" r="1.5" transform="matrix(1 0 0 -1 27.2517 13)" fill="#005B84"/>
<defs>
<clipPath id="clip0_18449_143408">
<rect width="15.1158" height="15.1158" fill="white" transform="translate(28.389 27.6572)"/>
</clipPath>
</defs>
</svg>
