<?xml version="1.0" encoding="us-ascii" standalone="no"?><svg xmlns="http://www.w3.org/2000/svg" xmlns:xlink="http://www.w3.org/1999/xlink" contentStyleType="text/css" height="986px" preserveAspectRatio="none" style="width:1507px;height:986px;background:#FFFFFF;" version="1.1" viewBox="0 0 1507 986" width="1507px" zoomAndPan="magnify"><defs/><g><!--class DomainApplication--><g id="elem_DomainApplication"><rect codeLine="38" fill="#F1F1F1" height="218.9688" id="DomainApplication" rx="2.5" ry="2.5" style="stroke:#181818;stroke-width:0.5;" width="227" x="349" y="430"/><ellipse cx="394.25" cy="446" fill="#ADD1B2" rx="11" ry="11" style="stroke:#181818;stroke-width:1.0;"/><path d="M397.2188,451.6406 Q396.6406,451.9375 396,452.0781 Q395.3594,452.2344 394.6563,452.2344 Q392.1563,452.2344 390.8281,450.5938 Q389.5156,448.9375 389.5156,445.8125 Q389.5156,442.6875 390.8281,441.0313 Q392.1563,439.375 394.6563,439.375 Q395.3594,439.375 396,439.5313 Q396.6563,439.6875 397.2188,439.9844 L397.2188,442.7031 Q396.5938,442.125 396,441.8594 Q395.4063,441.5781 394.7813,441.5781 Q393.4375,441.5781 392.75,442.6563 Q392.0625,443.7188 392.0625,445.8125 Q392.0625,447.9063 392.75,448.9844 Q393.4375,450.0469 394.7813,450.0469 Q395.4063,450.0469 396,449.7813 Q396.5938,449.5 397.2188,448.9219 L397.2188,451.6406 Z " fill="#000000"/><text fill="#000000" font-family="sans-serif" font-size="14" lengthAdjust="spacing" textLength="128" x="414.75" y="450.8467">DomainApplication</text><line style="stroke:#181818;stroke-width:0.5;" x1="350" x2="575" y1="462" y2="462"/><text fill="#000000" font-family="sans-serif" font-size="14" lengthAdjust="spacing" textLength="164" x="355" y="478.9951">Application for a domain</text><line style="stroke:#181818;stroke-width:1.0;" x1="350" x2="575" y1="486.2969" y2="486.2969"/><text fill="#000000" font-family="sans-serif" font-size="14" lengthAdjust="spacing" textLength="95" x="355" y="503.292">creator (User)</text><text fill="#000000" font-family="sans-serif" font-size="14" lengthAdjust="spacing" textLength="126" x="355" y="519.5889">investigator (User)</text><text fill="#000000" font-family="sans-serif" font-size="14" lengthAdjust="spacing" textLength="194" x="355" y="535.8857">authorizing_official (Contact)</text><text fill="#000000" font-family="sans-serif" font-size="14" lengthAdjust="spacing" textLength="134" x="355" y="552.1826">submitter (Contact)</text><text fill="#000000" font-family="sans-serif" font-size="14" lengthAdjust="spacing" textLength="180" x="355" y="568.4795">other_contacts (Contacts)</text><text fill="#000000" font-family="sans-serif" font-size="14" lengthAdjust="spacing" textLength="197" x="355" y="584.7764">requested_domain (Domain)</text><text fill="#000000" font-family="sans-serif" font-size="14" lengthAdjust="spacing" textLength="197" x="355" y="601.0732">current_websites (Websites)</text><text fill="#000000" font-family="sans-serif" font-size="14" lengthAdjust="spacing" textLength="215" x="355" y="617.3701">alternative_domains (Websites)</text><line style="stroke:#181818;stroke-width:1.0;" x1="350" x2="575" y1="624.6719" y2="624.6719"/><text fill="#000000" font-family="sans-serif" font-size="14" lengthAdjust="spacing" textLength="152" x="355" y="641.667">Request information...</text></g><!--class User--><g id="elem_User"><rect codeLine="53" fill="#F1F1F1" height="88.5938" id="User" rx="2.5" ry="2.5" style="stroke:#181818;stroke-width:0.5;" width="146" x="389.5" y="289"/><ellipse cx="442.25" cy="305" fill="#ADD1B2" rx="11" ry="11" style="stroke:#181818;stroke-width:1.0;"/><path d="M445.2188,310.6406 Q444.6406,310.9375 444,311.0781 Q443.3594,311.2344 442.6563,311.2344 Q440.1563,311.2344 438.8281,309.5938 Q437.5156,307.9375 437.5156,304.8125 Q437.5156,301.6875 438.8281,300.0313 Q440.1563,298.375 442.6563,298.375 Q443.3594,298.375 444,298.5313 Q444.6563,298.6875 445.2188,298.9844 L445.2188,301.7031 Q444.5938,301.125 444,300.8594 Q443.4063,300.5781 442.7813,300.5781 Q441.4375,300.5781 440.75,301.6563 Q440.0625,302.7188 440.0625,304.8125 Q440.0625,306.9063 440.75,307.9844 Q441.4375,309.0469 442.7813,309.0469 Q443.4063,309.0469 444,308.7813 Q444.5938,308.5 445.2188,307.9219 L445.2188,310.6406 Z " fill="#000000"/><text fill="#000000" font-family="sans-serif" font-size="14" lengthAdjust="spacing" textLength="32" x="462.75" y="309.8467">User</text><line style="stroke:#181818;stroke-width:0.5;" x1="390.5" x2="534.5" y1="321" y2="321"/><text fill="#000000" font-family="sans-serif" font-size="14" lengthAdjust="spacing" textLength="134" x="395.5" y="337.9951">Django's user class</text><line style="stroke:#181818;stroke-width:1.0;" x1="390.5" x2="534.5" y1="345.2969" y2="345.2969"/><text fill="#000000" font-family="sans-serif" font-size="14" lengthAdjust="spacing" textLength="12" x="395.5" y="362.292">...</text><line style="stroke:#181818;stroke-width:1.0;" x1="390.5" x2="534.5" y1="369.5938" y2="369.5938"/></g><g id="elem_GMN4"><path d="M6,290.5 L6,376.1641 A0,0 0 0 0 6,376.1641 L214,376.1641 A0,0 0 0 0 214,376.1641 L214,337.5 L389.23,333.5 L214,329.5 L214,300.5 L204,290.5 L6,290.5 A0,0 0 0 0 6,290.5 " fill="#FEFFDD" style="stroke:#181818;stroke-width:0.5;"/><path d="M204,290.5 L204,300.5 L214,300.5 L204,290.5 " fill="#FEFFDD" style="stroke:#181818;stroke-width:0.5;"/><text fill="#000000" font-family="sans-serif" font-size="13" lengthAdjust="spacing" textLength="151" x="12" y="307.5669">Created by DjangoOIDC</text><text fill="#000000" font-family="sans-serif" font-size="13" lengthAdjust="spacing" textLength="146" x="12" y="322.6997">when users arrive back</text><text fill="#000000" font-family="sans-serif" font-size="13" lengthAdjust="spacing" textLength="95" x="12" y="337.8325">from Login.gov</text><text fill="#000000" font-family="sans-serif" font-size="13" lengthAdjust="spacing" textLength="4" x="12" y="352.9653">&#160;</text><text fill="#000000" font-family="sans-serif" font-size="13" font-weight="bold" lengthAdjust="spacing" textLength="73" x="12" y="368.0981">username</text><text fill="#000000" font-family="sans-serif" font-size="13" lengthAdjust="spacing" textLength="110" x="89" y="368.0981">is the Login UUID</text></g><!--class Contact--><g id="elem_Contact"><rect codeLine="69" fill="#F1F1F1" height="170.0781" id="Contact" rx="2.5" ry="2.5" style="stroke:#181818;stroke-width:0.5;" width="182" x="371.5" y="700.5"/><ellipse cx="431.25" cy="716.5" fill="#ADD1B2" rx="11" ry="11" style="stroke:#181818;stroke-width:1.0;"/><path d="M434.2188,722.1406 Q433.6406,722.4375 433,722.5781 Q432.3594,722.7344 431.6563,722.7344 Q429.1563,722.7344 427.8281,721.0938 Q426.5156,719.4375 426.5156,716.3125 Q426.5156,713.1875 427.8281,711.5313 Q429.1563,709.875 431.6563,709.875 Q432.3594,709.875 433,710.0313 Q433.6563,710.1875 434.2188,710.4844 L434.2188,713.2031 Q433.5938,712.625 433,712.3594 Q432.4063,712.0781 431.7813,712.0781 Q430.4375,712.0781 429.75,713.1563 Q429.0625,714.2188 429.0625,716.3125 Q429.0625,718.4063 429.75,719.4844 Q430.4375,720.5469 431.7813,720.5469 Q432.4063,720.5469 433,720.2813 Q433.5938,720 434.2188,719.4219 L434.2188,722.1406 Z " fill="#000000"/><text fill="#000000" font-family="sans-serif" font-size="14" lengthAdjust="spacing" textLength="54" x="451.75" y="721.3467">Contact</text><line style="stroke:#181818;stroke-width:0.5;" x1="372.5" x2="552.5" y1="732.5" y2="732.5"/><text fill="#000000" font-family="sans-serif" font-size="14" lengthAdjust="spacing" textLength="170" x="377.5" y="749.4951">Contact info for a person</text><line style="stroke:#181818;stroke-width:1.0;" x1="372.5" x2="552.5" y1="756.7969" y2="756.7969"/><text fill="#000000" font-family="sans-serif" font-size="14" lengthAdjust="spacing" textLength="71" x="377.5" y="773.792">first_name</text><text fill="#000000" font-family="sans-serif" font-size="14" lengthAdjust="spacing" textLength="92" x="377.5" y="790.0889">middle_name</text><text fill="#000000" font-family="sans-serif" font-size="14" lengthAdjust="spacing" textLength="70" x="377.5" y="806.3857">last_name</text><text fill="#000000" font-family="sans-serif" font-size="14" lengthAdjust="spacing" textLength="25" x="377.5" y="822.6826">title</text><text fill="#000000" font-family="sans-serif" font-size="14" lengthAdjust="spacing" textLength="36" x="377.5" y="838.9795">email</text><text fill="#000000" font-family="sans-serif" font-size="14" lengthAdjust="spacing" textLength="45" x="377.5" y="855.2764">phone</text><line style="stroke:#181818;stroke-width:1.0;" x1="372.5" x2="552.5" y1="862.5781" y2="862.5781"/></g><!--class Domain--><g id="elem_Domain"><rect codeLine="83" fill="#F1F1F1" height="121.1875" id="Domain" rx="2.5" ry="2.5" style="stroke:#181818;stroke-width:0.5;" width="133" x="1367" y="380"/><ellipse cx="1403.6" cy="396" fill="#ADD1B2" rx="11" ry="11" style="stroke:#181818;stroke-width:1.0;"/><path d="M1406.5688,401.6406 Q1405.9906,401.9375 1405.35,402.0781 Q1404.7094,402.2344 1404.0063,402.2344 Q1401.5063,402.2344 1400.1781,400.5938 Q1398.8656,398.9375 1398.8656,395.8125 Q1398.8656,392.6875 1400.1781,391.0313 Q1401.5063,389.375 1404.0063,389.375 Q1404.7094,389.375 1405.35,389.5313 Q1406.0063,389.6875 1406.5688,389.9844 L1406.5688,392.7031 Q1405.9438,392.125 1405.35,391.8594 Q1404.7563,391.5781 1404.1313,391.5781 Q1402.7875,391.5781 1402.1,392.6563 Q1401.4125,393.7188 1401.4125,395.8125 Q1401.4125,397.9063 1402.1,398.9844 Q1402.7875,400.0469 1404.1313,400.0469 Q1404.7563,400.0469 1405.35,399.7813 Q1405.9438,399.5 1406.5688,398.9219 L1406.5688,401.6406 Z " fill="#000000"/><text fill="#000000" font-family="sans-serif" font-size="14" lengthAdjust="spacing" textLength="53" x="1422.4" y="400.8467">Domain</text><line style="stroke:#181818;stroke-width:0.5;" x1="1368" x2="1499" y1="412" y2="412"/><text fill="#000000" font-family="sans-serif" font-size="14" lengthAdjust="spacing" textLength="121" x="1373" y="428.9951">Approved domain</text><line style="stroke:#181818;stroke-width:1.0;" x1="1368" x2="1499" y1="436.2969" y2="436.2969"/><text fill="#000000" font-family="sans-serif" font-size="14" lengthAdjust="spacing" textLength="39" x="1373" y="453.292">name</text><text fill="#000000" font-family="sans-serif" font-size="14" lengthAdjust="spacing" textLength="58" x="1373" y="469.5889">is_active</text><line style="stroke:#181818;stroke-width:1.0;" x1="1368" x2="1499" y1="476.8906" y2="476.8906"/><text fill="#000000" font-family="sans-serif" font-size="14" font-weight="bold" lengthAdjust="spacing" textLength="103" x="1373" y="493.8857">EPP methods</text></g><!--class DomainInformation--><g id="elem_DomainInformation"><rect codeLine="94" fill="#F1F1F1" height="137.4844" id="DomainInformation" rx="2.5" ry="2.5" style="stroke:#181818;stroke-width:0.5;" width="286" x="818" y="511"/><ellipse cx="891.75" cy="527" fill="#ADD1B2" rx="11" ry="11" style="stroke:#181818;stroke-width:1.0;"/><path d="M894.7188,532.6406 Q894.1406,532.9375 893.5,533.0781 Q892.8594,533.2344 892.1563,533.2344 Q889.6563,533.2344 888.3281,531.5938 Q887.0156,529.9375 887.0156,526.8125 Q887.0156,523.6875 888.3281,522.0313 Q889.6563,520.375 892.1563,520.375 Q892.8594,520.375 893.5,520.5313 Q894.1563,520.6875 894.7188,520.9844 L894.7188,523.7031 Q894.0938,523.125 893.5,522.8594 Q892.9063,522.5781 892.2813,522.5781 Q890.9375,522.5781 890.25,523.6563 Q889.5625,524.7188 889.5625,526.8125 Q889.5625,528.9063 890.25,529.9844 Q890.9375,531.0469 892.2813,531.0469 Q892.9063,531.0469 893.5,530.7813 Q894.0938,530.5 894.7188,529.9219 L894.7188,532.6406 Z " fill="#000000"/><text fill="#000000" font-family="sans-serif" font-size="14" lengthAdjust="spacing" textLength="130" x="912.25" y="531.8467">DomainInformation</text><line style="stroke:#181818;stroke-width:0.5;" x1="819" x2="1103" y1="543" y2="543"/><text fill="#000000" font-family="sans-serif" font-size="14" lengthAdjust="spacing" textLength="232" x="824" y="559.9951">Registrar information on a domain</text><line style="stroke:#181818;stroke-width:1.0;" x1="819" x2="1103" y1="567.2969" y2="567.2969"/><text fill="#000000" font-family="sans-serif" font-size="14" lengthAdjust="spacing" textLength="118" x="824" y="584.292">domain (Domain)</text><text fill="#000000" font-family="sans-serif" font-size="14" lengthAdjust="spacing" textLength="274" x="824" y="600.5889">domain_application (DomainApplication)</text><text fill="#000000" font-family="sans-serif" font-size="14" lengthAdjust="spacing" textLength="97" x="824" y="616.8857">security_email</text><line style="stroke:#181818;stroke-width:1.0;" x1="819" x2="1103" y1="624.1875" y2="624.1875"/><text fill="#000000" font-family="sans-serif" font-size="14" lengthAdjust="spacing" textLength="152" x="824" y="641.1826">Request information...</text></g><!--class UserDomainRole--><g id="elem_UserDomainRole"><rect codeLine="108" fill="#F1F1F1" height="121.1875" id="UserDomainRole" rx="2.5" ry="2.5" style="stroke:#181818;stroke-width:0.5;" width="148" x="887" y="267"/><ellipse cx="902" cy="283" fill="#ADD1B2" rx="11" ry="11" style="stroke:#181818;stroke-width:1.0;"/><path d="M904.9688,288.6406 Q904.3906,288.9375 903.75,289.0781 Q903.1094,289.2344 902.4063,289.2344 Q899.9063,289.2344 898.5781,287.5938 Q897.2656,285.9375 897.2656,282.8125 Q897.2656,279.6875 898.5781,278.0313 Q899.9063,276.375 902.4063,276.375 Q903.1094,276.375 903.75,276.5313 Q904.4063,276.6875 904.9688,276.9844 L904.9688,279.7031 Q904.3438,279.125 903.75,278.8594 Q903.1563,278.5781 902.5313,278.5781 Q901.1875,278.5781 900.5,279.6563 Q899.8125,280.7188 899.8125,282.8125 Q899.8125,284.9063 900.5,285.9844 Q901.1875,287.0469 902.5313,287.0469 Q903.1563,287.0469 903.75,286.7813 Q904.3438,286.5 904.9688,285.9219 L904.9688,288.6406 Z " fill="#000000"/><text fill="#000000" font-family="sans-serif" font-size="14" lengthAdjust="spacing" textLength="116" x="916" y="287.8467">UserDomainRole</text><line style="stroke:#181818;stroke-width:0.5;" x1="888" x2="1034" y1="299" y2="299"/><text fill="#000000" font-family="sans-serif" font-size="14" lengthAdjust="spacing" textLength="84" x="893" y="315.9951">Permissions</text><line style="stroke:#181818;stroke-width:1.0;" x1="888" x2="1034" y1="323.2969" y2="323.2969"/><text fill="#000000" font-family="sans-serif" font-size="14" lengthAdjust="spacing" textLength="118" x="893" y="340.292">domain (Domain)</text><text fill="#000000" font-family="sans-serif" font-size="14" lengthAdjust="spacing" textLength="77" x="893" y="356.5889">user (User)</text><text fill="#000000" font-family="sans-serif" font-size="14" lengthAdjust="spacing" textLength="93" x="893" y="372.8857">role="ADMIN"</text><line style="stroke:#181818;stroke-width:1.0;" x1="888" x2="1034" y1="380.1875" y2="380.1875"/></g><!--class DomainInvitation--><g id="elem_DomainInvitation"><rect codeLine="120" fill="#F1F1F1" height="121.1875" id="DomainInvitation" rx="2.5" ry="2.5" style="stroke:#181818;stroke-width:0.5;" width="156" x="384.5" y="133"/><ellipse cx="404" cy="149" fill="#ADD1B2" rx="11" ry="11" style="stroke:#181818;stroke-width:1.0;"/><path d="M406.9688,154.6406 Q406.3906,154.9375 405.75,155.0781 Q405.1094,155.2344 404.4063,155.2344 Q401.9063,155.2344 400.5781,153.5938 Q399.2656,151.9375 399.2656,148.8125 Q399.2656,145.6875 400.5781,144.0313 Q401.9063,142.375 404.4063,142.375 Q405.1094,142.375 405.75,142.5313 Q406.4063,142.6875 406.9688,142.9844 L406.9688,145.7031 Q406.3438,145.125 405.75,144.8594 Q405.1563,144.5781 404.5313,144.5781 Q403.1875,144.5781 402.5,145.6563 Q401.8125,146.7188 401.8125,148.8125 Q401.8125,150.9063 402.5,151.9844 Q403.1875,153.0469 404.5313,153.0469 Q405.1563,153.0469 405.75,152.7813 Q406.3438,152.5 406.9688,151.9219 L406.9688,154.6406 Z " fill="#000000"/><text fill="#000000" font-family="sans-serif" font-size="14" lengthAdjust="spacing" textLength="114" x="419" y="153.8467">DomainInvitation</text><line style="stroke:#181818;stroke-width:0.5;" x1="385.5" x2="539.5" y1="165" y2="165"/><text fill="#000000" font-family="sans-serif" font-size="14" lengthAdjust="spacing" textLength="144" x="390.5" y="181.9951">Email invitations sent</text><line style="stroke:#181818;stroke-width:1.0;" x1="385.5" x2="539.5" y1="189.2969" y2="189.2969"/><text fill="#000000" font-family="sans-serif" font-size="14" lengthAdjust="spacing" textLength="36" x="390.5" y="206.292">email</text><text fill="#000000" font-family="sans-serif" font-size="14" lengthAdjust="spacing" textLength="118" x="390.5" y="222.5889">domain (Domain)</text><text fill="#000000" font-family="sans-serif" font-size="14" lengthAdjust="spacing" textLength="43" x="390.5" y="238.8857">status</text><line style="stroke:#181818;stroke-width:1.0;" x1="385.5" x2="539.5" y1="246.1875" y2="246.1875"/></g><!--entity applicant--><g id="elem_applicant"><ellipse cx="110" cy="465" fill="#FF0000" rx="8" ry="8" style="stroke:#181818;stroke-width:0.5;"/><path d="M110,473 L110,500 M97,481 L123,481 M110,500 L97,515 M110,500 L123,515 " fill="none" style="stroke:#181818;stroke-width:0.5;"/><text fill="#000000" font-family="sans-serif" font-size="14" lengthAdjust="spacing" textLength="62" x="79" y="529.4951">applicant</text></g><!--entity analyst--><g id="elem_analyst"><ellipse cx="110" cy="576" fill="#0000FF" rx="8" ry="8" style="stroke:#181818;stroke-width:0.5;"/><path d="M110,584 L110,611 M97,592 L123,592 M110,611 L97,626 M110,611 L123,626 " fill="none" style="stroke:#181818;stroke-width:0.5;"/><text fill="#000000" font-family="sans-serif" font-size="14" lengthAdjust="spacing" textLength="48" x="86" y="640.4951">analyst</text></g><!--entity user1--><g id="elem_user1"><ellipse cx="961" cy="692" fill="#008000" rx="8" ry="8" style="stroke:#181818;stroke-width:0.5;"/><path d="M961,700 L961,727 M948,708 L974,708 M961,727 L948,742 M961,727 L974,742 " fill="none" style="stroke:#181818;stroke-width:0.5;"/><text fill="#000000" font-family="sans-serif" font-size="14" lengthAdjust="spacing" textLength="40" x="941" y="756.4951">user1</text></g><!--entity user2--><g id="elem_user2"><ellipse cx="462.5" cy="914" fill="#008000" rx="8" ry="8" style="stroke:#181818;stroke-width:0.5;"/><path d="M462.5,922 L462.5,949 M449.5,930 L475.5,930 M462.5,949 L449.5,964 M462.5,949 L475.5,964 " fill="none" style="stroke:#181818;stroke-width:0.5;"/><text fill="#000000" font-family="sans-serif" font-size="14" lengthAdjust="spacing" textLength="40" x="442.5" y="978.4951">user2</text></g><!--entity user3--><g id="elem_user3"><ellipse cx="462.5" cy="14" fill="#008000" rx="8" ry="8" style="stroke:#181818;stroke-width:0.5;"/><path d="M462.5,22 L462.5,49 M449.5,30 L475.5,30 M462.5,49 L449.5,64 M462.5,49 L475.5,64 " fill="none" style="stroke:#181818;stroke-width:0.5;"/><text fill="#000000" font-family="sans-serif" font-size="14" lengthAdjust="spacing" textLength="40" x="442.5" y="78.4951">user3</text></g><!--link User to DomainApplication--><g id="link_User_DomainApplication"><path codeLine="67" d="M462.5,378.24 C462.5,393.63 462.5,411.61 462.5,429.87 " fill="none" id="User-DomainApplication" style="stroke:#181818;stroke-width:1.0;"/><text fill="#000000" font-family="sans-serif" font-size="13" lengthAdjust="spacing" textLength="129" x="386.5" y="408.5669">creator, investigator</text></g><!--link DomainApplication to Contact--><g id="link_DomainApplication_Contact"><path codeLine="81" d="M462.5,662.3 C462.5,670.63 462.5,678.96 462.5,687.14 " fill="none" id="DomainApplication-Contact" style="stroke:#181818;stroke-width:1.0;"/><polygon fill="#181818" points="462.5,649.24,458.5,655.24,462.5,661.24,466.5,655.24,462.5,649.24" style="stroke:#181818;stroke-width:1.0;"/><polygon fill="#181818" points="462.5,700.5,466.5,694.5,462.5,688.5,458.5,694.5,462.5,700.5" style="stroke:#181818;stroke-width:1.0;"/><text fill="#000000" font-family="sans-serif" font-size="13" lengthAdjust="spacing" textLength="292" x="305" y="679.3169">authorizing_official, submitter, other_contacts</text></g><!--link DomainApplication to Domain--><g id="link_DomainApplication_Domain"><path codeLine="92" d="M576.31,523.6 C645.89,514.11 737.02,502.24 818,493.5 C1014.69,472.27 1247.54,454.08 1361.91,445.6 " fill="none" id="DomainApplication-to-Domain" style="stroke:#0000FF;stroke-width:1.0;stroke-dasharray:7.0,7.0;"/><polygon fill="#0000FF" points="1366.93,445.22,1357.6577,441.8997,1361.9438,445.5915,1358.252,449.8776,1366.93,445.22" style="stroke:#0000FF;stroke-width:1.0;"/><text fill="#000000" font-family="sans-serif" font-size="13" lengthAdjust="spacing" textLength="62" x="930" y="462.5669">approve()</text></g><!--link DomainInformation to Domain--><g id="link_DomainInformation_Domain"><path codeLine="104" d="M1104.12,537.51 C1191.37,511.74 1298.99,479.94 1366.7,459.94 " fill="none" id="DomainInformation-Domain" style="stroke:#181818;stroke-width:1.0;"/></g><!--link DomainInformation to DomainApplication--><g id="link_DomainInformation_DomainApplication"><path codeLine="105" d="M817.84,564.21 C807.75,563.25 797.72,562.34 788,561.5 C717.68,555.44 638.66,550.05 576.21,546.13 " fill="none" id="DomainInformation-DomainApplication" style="stroke:#181818;stroke-width:1.0;"/></g><!--link DomainApplication to DomainInformation--><g id="link_DomainApplication_DomainInformation"><path codeLine="106" d="M576.25,580.28 C586.21,582.79 596.23,584.93 606,586.5 C673.3,597.31 748.71,597.44 812.58,594.12 " fill="none" id="DomainApplication-to-DomainInformation" style="stroke:#0000FF;stroke-width:1.0;stroke-dasharray:7.0,7.0;"/><polygon fill="#0000FF" points="817.94,593.83,808.7364,590.3237,812.9474,594.101,809.1701,598.312,817.94,593.83" style="stroke:#0000FF;stroke-width:1.0;"/><text fill="#000000" font-family="sans-serif" font-size="13" lengthAdjust="spacing" textLength="62" x="666" y="582.5669">approve()</text></g><!--link UserDomainRole to User--><g id="link_UserDomainRole_User"><path codeLine="116" d="M886.91,328.38 C792.61,329.52 629.56,331.49 535.7,332.63 " fill="none" id="UserDomainRole-User" style="stroke:#181818;stroke-width:1.0;"/></g><!--link UserDomainRole to Domain--><g id="link_UserDomainRole_Domain"><path codeLine="117" d="M1035.14,343.61 C1110.86,360.49 1232.5,388.16 1337,414.5 C1346.66,416.94 1356.85,419.6 1366.83,422.27 " fill="none" id="UserDomainRole-Domain" style="stroke:#181818;stroke-width:1.0;"/></g><!--link DomainApplication to UserDomainRole--><g id="link_DomainApplication_UserDomainRole"><path codeLine="118" d="M576.11,435.45 C585.87,428.84 595.88,422.75 606,417.5 C653.58,392.82 792.69,361.49 881.7,343.05 " fill="none" id="DomainApplication-to-UserDomainRole" style="stroke:#0000FF;stroke-width:1.0;stroke-dasharray:7.0,7.0;"/><polygon fill="#0000FF" points="886.69,342.02,877.066,339.9273,881.7938,343.0335,878.6876,347.7613,886.69,342.02" style="stroke:#0000FF;stroke-width:1.0;"/><text fill="#000000" font-family="sans-serif" font-size="13" lengthAdjust="spacing" textLength="62" x="666" y="360.5669">approve()</text></g><!--link DomainInvitation to Domain--><g id="link_DomainInvitation_Domain"><path codeLine="128" d="M540.56,191.16 C662.53,189.45 906.48,194.23 1104,249.5 C1215.21,280.62 1239.49,302.64 1337,364.5 C1346.93,370.8 1357.04,377.94 1366.79,385.26 " fill="none" id="DomainInvitation-Domain" style="stroke:#181818;stroke-width:1.0;"/></g><!--link DomainInvitation to UserDomainRole--><g id="link_DomainInvitation_UserDomainRole"><path codeLine="129" d="M540.53,224.25 C561.57,232.07 584.5,240.07 606,246.5 C699.5,274.45 809.35,298.22 881.59,312.64 " fill="none" id="DomainInvitation-to-UserDomainRole" style="stroke:#008000;stroke-width:1.0;stroke-dasharray:7.0,7.0;"/><polygon fill="#008000" points="886.73,313.66,878.6956,307.9636,881.8282,312.6739,877.1179,315.8065,886.73,313.66" style="stroke:#008000;stroke-width:1.0;"/><text fill="#000000" font-family="sans-serif" font-size="13" lengthAdjust="spacing" textLength="105" x="644.5" y="242.5669">User.first_login()</text></g><!--link applicant to DomainApplication--><g id="link_applicant_DomainApplication"><path codeLine="132" d="M141.19,498.38 C185.86,504.11 272.03,515.17 343.75,524.38 " fill="none" id="applicant-to-DomainApplication" style="stroke:#181818;stroke-width:1.0;"/><polygon fill="#181818" points="348.89,525.04,340.4647,519.9396,343.9297,524.411,339.4583,527.8761,348.89,525.04" style="stroke:#181818;stroke-width:1.0;"/><text fill="#000000" font-family="sans-serif" font-size="13" font-weight="bold" lengthAdjust="spacing" textLength="63" x="250" y="507.5669">/register</text></g><!--link analyst to DomainApplication--><g id="link_analyst_DomainApplication"><path codeLine="135" d="M134.27,601.12 C176.46,593.17 268.22,575.89 343.87,561.65 " fill="none" id="analyst-to-DomainApplication" style="stroke:#0000FF;stroke-width:1.0;"/><polygon fill="#0000FF" points="348.83,560.72,339.2438,558.4606,343.9169,561.6483,340.7292,566.3215,348.83,560.72" style="stroke:#0000FF;stroke-width:1.0;"/><text fill="#000000" font-family="sans-serif" font-size="13" font-weight="bold" lengthAdjust="spacing" textLength="73" x="245" y="562.5669">approve()</text></g><!--link user1 to Domain--><g id="link_user1_Domain"><path codeLine="138" d="M981.21,716.25 C1039.44,699.66 1217.35,643.92 1337,551.5 C1354.06,538.32 1370.3,521.69 1384.39,505.34 " fill="none" id="user1-to-Domain" style="stroke:#008000;stroke-width:1.0;"/><polygon fill="#008000" points="1387.93,501.19,1379.0451,505.4394,1384.6843,504.9933,1385.1304,510.6326,1387.93,501.19" style="stroke:#008000;stroke-width:1.0;"/><text fill="#000000" font-family="sans-serif" font-size="13" font-weight="bold" lengthAdjust="spacing" textLength="201" x="1135" y="547.5669">/domain/&lt;id&gt;/nameservers</text></g><!--link user2 to DomainInformation--><g id="link_user2_DomainInformation"><path codeLine="140" d="M482.72,936.1 C505.87,926.74 545.47,909.32 576,888.5 C696.58,806.27 701.45,754.37 818,666.5 C824.79,661.38 831.89,656.29 839.14,651.29 " fill="none" id="user2-to-DomainInformation" style="stroke:#008000;stroke-width:1.0;"/><polygon fill="#008000" points="843.68,648.19,833.9946,649.9769,839.5552,651.016,838.5162,656.5766,843.68,648.19" style="stroke:#008000;stroke-width:1.0;"/><text fill="#000000" font-family="sans-serif" font-size="13" font-weight="bold" lengthAdjust="spacing" textLength="146" x="624" y="687.5669">/domain/&lt;id&gt;/?????</text></g><!--link user3 to UserDomainRole--><g id="link_user3_UserDomainRole"><path codeLine="142" d="M482.71,53.6 C533.19,80.24 673.59,154.93 788,221.5 C819.21,239.66 853.13,260.35 882.53,278.61 " fill="none" id="user3-to-UserDomainRole" style="stroke:#008000;stroke-width:1.0;"/><polygon fill="#008000" points="886.84,281.28,881.2959,273.1398,882.5896,278.6467,877.0827,279.9405,886.84,281.28" style="stroke:#008000;stroke-width:1.0;"/><text fill="#000000" font-family="sans-serif" font-size="13" font-weight="bold" lengthAdjust="spacing" textLength="180" x="607" y="119.5669">/domain/&lt;id&gt;/users/add</text></g><!--link user3 to DomainInvitation--><g id="link_user3_DomainInvitation"><path codeLine="143" d="M462.5,81.87 C462.5,95.81 462.5,112 462.5,127.64 " fill="none" id="user3-to-DomainInvitation" style="stroke:#008000;stroke-width:1.0;"/><polygon fill="#008000" points="462.5,132.92,466.5,123.92,462.5,127.92,458.5,123.92,462.5,132.92" style="stroke:#008000;stroke-width:1.0;"/><text fill="#000000" font-family="sans-serif" font-size="13" font-weight="bold" lengthAdjust="spacing" textLength="180" x="361" y="111.8169">/domain/&lt;id&gt;/users/add</text></g><!--SRC=[XLNBRjim4BphAuZuKDS8RJIv1QcBD0uA0tq41e8UYaAWfBNCbY9TadAQ5ldtBYbHrijfOCJYBZcSdPsLcH3giU2_kSmZ0LjBh2AQvpjBCguXjLp9A4e5CuQiLC6ulDdl1K-PIv2_4I7jzLPfmaZczs6AKloNQc0MuzC70_er1hWyWB4yxqPPQNTAyp_88rRRBKyv4sHwgwHbgNKRJ9aKt5hGdQYoEz1nMWLCap8kf-5NYJT15bUCoBIgmENIKckGDdw4n70BUF9h_UJ92Bn7Oaq7gC_sDlZADXK-5eHr5rw1-NmUFGUzN6bUejKF9dFrof3IHNmoOBW3_l4vaie2yIrGMtyM4xTEFCX8ybI3V5clRZ7-k0FfqGnXMYDDah3q9oQsMXNaeygvdEVg467aEbcwZP8LSBr8beGRWffLUyZ3mteLWSo8kpoAXXscWbPrN8L6ddSQ66gjTVVbXcUdIss9FJ9LZIMsN1iREqQuA7YM2GWh16iobblXlW592VpUxvI4eDO8rndLTDRSVZLggVEZZyvxvkdQF7XRgmFgtxLqpO-R6C-X-26EKj_TtvC2yDxCEBN7YSxzW7sR9AA4x_Dbk14PL_TDNtUvh8y6yxGsa7DZDTDjwn7yz6TlwFig4hCMc-c0e1ytm17XzYaEwl_7yaEcbDRqNygrRXqJggzH6sD4BkVKQkD62V1QtOCkk35um9nMnSzbyohIUFRjsStgq_hpMR1R3vbMKp4IxfHyefRUgHVwVk3ssFOxrmatVNNGO9Ea3LM5FWshCxYzDA6I0VImJqqAEUSQG8wITe5vDSh2lKmSUvm7D-zLsTAIoGQowBYa6LsE_8nSaTbieRsfGSzc3OnauWdDDdcFkaLXHMiTJo8rOXwHN7_VaCa7LqjKBMWeZRRc3sbKyYskURPSk3d7pGTyUI7M4UgY3NKn0jMrQG_rdVlhu5ssyIu9hLyF3UX0-XwY_o5Oi2n3r1CGWzQ-2F8F]--></g></svg>