<?xml version="1.0" encoding="us-ascii" standalone="no"?><svg xmlns="http://www.w3.org/2000/svg" xmlns:xlink="http://www.w3.org/1999/xlink" contentStyleType="text/css" height="991px" preserveAspectRatio="none" style="width:1487px;height:991px;background:#FFFFFF;" version="1.1" viewBox="0 0 1487 991" width="1487px" zoomAndPan="magnify"><defs/><g><!--class DomainApplication--><g id="elem_DomainApplication"><rect codeLine="31" fill="#F1F1F1" height="220.8828" id="DomainApplication" rx="2.5" ry="2.5" style="stroke:#181818;stroke-width:0.5;" width="224" x="337" y="430.3"/><ellipse cx="379.45" cy="446.3" fill="#ADD1B2" rx="11" ry="11" style="stroke:#181818;stroke-width:1.0;"/><path d="M381.9231,452.4431 Q381.3421,452.7419 380.7029,452.8913 Q380.0638,453.0407 379.3582,453.0407 Q376.8514,453.0407 375.5315,451.3889 Q374.2117,449.737 374.2117,446.6159 Q374.2117,443.4865 375.5315,441.8347 Q376.8514,440.1828 379.3582,440.1828 Q380.0638,440.1828 380.7112,440.3322 Q381.3587,440.4816 381.9231,440.7805 L381.9231,443.5031 Q381.2923,442.9221 380.6988,442.6523 Q380.1053,442.3825 379.4744,442.3825 Q378.1297,442.3825 377.4449,443.4492 Q376.7601,444.5158 376.7601,446.6159 Q376.7601,448.7077 377.4449,449.7744 Q378.1297,450.841 379.4744,450.841 Q380.1053,450.841 380.6988,450.5712 Q381.2923,450.3015 381.9231,449.7204 Z " fill="#000000"/><text fill="#000000" font-family="sans-serif" font-size="14" lengthAdjust="spacing" textLength="131" x="399.55" y="451.591">DomainApplication</text><line style="stroke:#181818;stroke-width:0.5;" x1="338" x2="560" y1="462.3" y2="462.3"/><text fill="#000000" font-family="sans-serif" font-size="14" lengthAdjust="spacing" textLength="170" x="343" y="479.8352">Application for a domain</text><line style="stroke:#181818;stroke-width:1.0;" x1="338" x2="560" y1="486.7883" y2="486.7883"/><text fill="#000000" font-family="sans-serif" font-size="14" lengthAdjust="spacing" textLength="94" x="343" y="504.3234">creator (User)</text><text fill="#000000" font-family="sans-serif" font-size="14" lengthAdjust="spacing" textLength="126" x="343" y="520.8117">investigator (User)</text><text fill="#000000" font-family="sans-serif" font-size="14" lengthAdjust="spacing" textLength="200" x="343" y="537.3">authorizing_official (Contact)</text><text fill="#000000" font-family="sans-serif" font-size="14" lengthAdjust="spacing" textLength="133" x="343" y="553.7883">submitter (Contact)</text><text fill="#000000" font-family="sans-serif" font-size="14" lengthAdjust="spacing" textLength="175" x="343" y="570.2766">other_contacts (Contacts)</text><text fill="#000000" font-family="sans-serif" font-size="14" lengthAdjust="spacing" textLength="195" x="343" y="586.7648">requested_domain (Domain)</text><text fill="#000000" font-family="sans-serif" font-size="14" lengthAdjust="spacing" textLength="190" x="343" y="603.2531">current_websites (Websites)</text><text fill="#000000" font-family="sans-serif" font-size="14" lengthAdjust="spacing" textLength="212" x="343" y="619.7414">alternative_domains (Websites)</text><line style="stroke:#181818;stroke-width:1.0;" x1="338" x2="560" y1="626.6945" y2="626.6945"/><text fill="#000000" font-family="sans-serif" font-size="14" lengthAdjust="spacing" textLength="152" x="343" y="644.2297">Request information...</text></g><!--class User--><g id="elem_User"><rect codeLine="46" fill="#F1F1F1" height="88.9766" id="User" rx="2.5" ry="2.5" style="stroke:#181818;stroke-width:0.5;" width="142" x="378" y="290.26"/><ellipse cx="429.25" cy="306.26" fill="#ADD1B2" rx="11" ry="11" style="stroke:#181818;stroke-width:1.0;"/><path d="M431.7231,312.4031 Q431.1421,312.7019 430.5029,312.8513 Q429.8638,313.0007 429.1582,313.0007 Q426.6514,313.0007 425.3315,311.3489 Q424.0117,309.697 424.0117,306.5759 Q424.0117,303.4465 425.3315,301.7947 Q426.6514,300.1428 429.1582,300.1428 Q429.8638,300.1428 430.5112,300.2922 Q431.1587,300.4416 431.7231,300.7405 L431.7231,303.4631 Q431.0923,302.8821 430.4988,302.6123 Q429.9053,302.3425 429.2744,302.3425 Q427.9297,302.3425 427.2449,303.4092 Q426.5601,304.4758 426.5601,306.5759 Q426.5601,308.6677 427.2449,309.7344 Q427.9297,310.801 429.2744,310.801 Q429.9053,310.801 430.4988,310.5312 Q431.0923,310.2615 431.7231,309.6804 Z " fill="#000000"/><text fill="#000000" font-family="sans-serif" font-size="14" lengthAdjust="spacing" textLength="31" x="449.75" y="311.551">User</text><line style="stroke:#181818;stroke-width:0.5;" x1="379" x2="519" y1="322.26" y2="322.26"/><text fill="#000000" font-family="sans-serif" font-size="14" lengthAdjust="spacing" textLength="130" x="384" y="339.7952">Django's user class</text><line style="stroke:#181818;stroke-width:1.0;" x1="379" x2="519" y1="346.7483" y2="346.7483"/><text fill="#000000" font-family="sans-serif" font-size="14" lengthAdjust="spacing" textLength="12" x="384" y="364.2834">...</text><line style="stroke:#181818;stroke-width:1.0;" x1="379" x2="519" y1="371.2366" y2="371.2366"/></g><g id="elem_GMN4"><path d="M6,291.47 L6,378.0227 A0,0 0 0 0 6,378.0227 L209,378.0227 A0,0 0 0 0 209,378.0227 L209,338.75 L377.58,334.75 L209,330.75 L209,301.47 L199,291.47 L6,291.47 A0,0 0 0 0 6,291.47 " fill="#FEFFDD" style="stroke:#181818;stroke-width:0.5;"/><path d="M199,291.47 L199,301.47 L209,301.47 L199,291.47 " fill="#FEFFDD" style="stroke:#181818;stroke-width:0.5;"/><text fill="#000000" font-family="sans-serif" font-size="13" lengthAdjust="spacing" textLength="149" x="12" y="309.0384">Created by DjangoOIDC</text><text fill="#000000" font-family="sans-serif" font-size="13" lengthAdjust="spacing" textLength="144" x="12" y="324.3489">when users arrive back</text><text fill="#000000" font-family="sans-serif" font-size="13" lengthAdjust="spacing" textLength="96" x="12" y="339.6595">from Login.gov</text><text fill="#000000" font-family="sans-serif" font-size="13" lengthAdjust="spacing" textLength="4" x="12" y="354.97">&#160;</text><text fill="#000000" font-family="sans-serif" font-size="13" font-weight="bold" lengthAdjust="spacing" textLength="68" x="12" y="370.2805">username</text><text fill="#000000" font-family="sans-serif" font-size="13" lengthAdjust="spacing" textLength="110" x="84" y="370.2805">is the Login UUID</text></g><!--class Contact--><g id="elem_Contact"><rect codeLine="62" fill="#F1F1F1" height="171.418" id="Contact" rx="2.5" ry="2.5" style="stroke:#181818;stroke-width:0.5;" width="184" x="357" y="703.04"/><ellipse cx="418.25" cy="719.04" fill="#ADD1B2" rx="11" ry="11" style="stroke:#181818;stroke-width:1.0;"/><path d="M420.7231,725.1831 Q420.1421,725.4819 419.5029,725.6313 Q418.8638,725.7807 418.1582,725.7807 Q415.6514,725.7807 414.3315,724.1289 Q413.0117,722.477 413.0117,719.3559 Q413.0117,716.2265 414.3315,714.5747 Q415.6514,712.9228 418.1582,712.9228 Q418.8638,712.9228 419.5112,713.0722 Q420.1587,713.2216 420.7231,713.5205 L420.7231,716.2431 Q420.0923,715.6621 419.4988,715.3923 Q418.9053,715.1225 418.2744,715.1225 Q416.9297,715.1225 416.2449,716.1892 Q415.5601,717.2558 415.5601,719.3559 Q415.5601,721.4477 416.2449,722.5144 Q416.9297,723.581 418.2744,723.581 Q418.9053,723.581 419.4988,723.3112 Q420.0923,723.0415 420.7231,722.4604 Z " fill="#000000"/><text fill="#000000" font-family="sans-serif" font-size="14" lengthAdjust="spacing" textLength="53" x="438.75" y="724.331">Contact</text><line style="stroke:#181818;stroke-width:0.5;" x1="358" x2="540" y1="735.04" y2="735.04"/><text fill="#000000" font-family="sans-serif" font-size="14" lengthAdjust="spacing" textLength="172" x="363" y="752.5752">Contact info for a person</text><line style="stroke:#181818;stroke-width:1.0;" x1="358" x2="540" y1="759.5283" y2="759.5283"/><text fill="#000000" font-family="sans-serif" font-size="14" lengthAdjust="spacing" textLength="72" x="363" y="777.0634">first_name</text><text fill="#000000" font-family="sans-serif" font-size="14" lengthAdjust="spacing" textLength="92" x="363" y="793.5517">middle_name</text><text fill="#000000" font-family="sans-serif" font-size="14" lengthAdjust="spacing" textLength="69" x="363" y="810.04">last_name</text><text fill="#000000" font-family="sans-serif" font-size="14" lengthAdjust="spacing" textLength="26" x="363" y="826.5283">title</text><text fill="#000000" font-family="sans-serif" font-size="14" lengthAdjust="spacing" textLength="37" x="363" y="843.0166">email</text><text fill="#000000" font-family="sans-serif" font-size="14" lengthAdjust="spacing" textLength="44" x="363" y="859.5048">phone</text><line style="stroke:#181818;stroke-width:1.0;" x1="358" x2="540" y1="866.458" y2="866.458"/></g><!--class Domain--><g id="elem_Domain"><rect codeLine="76" fill="#F1F1F1" height="121.9531" id="Domain" rx="2.5" ry="2.5" style="stroke:#181818;stroke-width:0.5;" width="135" x="1345" y="380.77"/><ellipse cx="1382.5" cy="396.77" fill="#ADD1B2" rx="11" ry="11" style="stroke:#181818;stroke-width:1.0;"/><path d="M1384.9731,402.9131 Q1384.3921,403.2119 1383.7529,403.3613 Q1383.1138,403.5107 1382.4082,403.5107 Q1379.9014,403.5107 1378.5815,401.8589 Q1377.2617,400.207 1377.2617,397.0859 Q1377.2617,393.9565 1378.5815,392.3047 Q1379.9014,390.6528 1382.4082,390.6528 Q1383.1138,390.6528 1383.7612,390.8022 Q1384.4087,390.9516 1384.9731,391.2505 L1384.9731,393.9731 Q1384.3423,393.3921 1383.7488,393.1223 Q1383.1553,392.8525 1382.5244,392.8525 Q1381.1797,392.8525 1380.4949,393.9192 Q1379.8101,394.9858 1379.8101,397.0859 Q1379.8101,399.1777 1380.4949,400.2444 Q1381.1797,401.311 1382.5244,401.311 Q1383.1553,401.311 1383.7488,401.0412 Q1384.3423,400.7715 1384.9731,400.1904 Z " fill="#000000"/><text fill="#000000" font-family="sans-serif" font-size="14" lengthAdjust="spacing" textLength="53" x="1401.5" y="402.061">Domain</text><line style="stroke:#181818;stroke-width:0.5;" x1="1346" x2="1479" y1="412.77" y2="412.77"/><text fill="#000000" font-family="sans-serif" font-size="14" lengthAdjust="spacing" textLength="123" x="1351" y="430.3052">Approved domain</text><line style="stroke:#181818;stroke-width:1.0;" x1="1346" x2="1479" y1="437.2583" y2="437.2583"/><text fill="#000000" font-family="sans-serif" font-size="14" lengthAdjust="spacing" textLength="38" x="1351" y="454.7934">name</text><text fill="#000000" font-family="sans-serif" font-size="14" lengthAdjust="spacing" textLength="57" x="1351" y="471.2817">is_active</text><line style="stroke:#181818;stroke-width:1.0;" x1="1346" x2="1479" y1="478.2348" y2="478.2348"/><text fill="#000000" font-family="sans-serif" font-size="14" font-weight="bold" lengthAdjust="spacing" textLength="94" x="1351" y="495.77">EPP methods</text></g><!--class DomainInformation--><g id="elem_DomainInformation"><rect codeLine="87" fill="#F1F1F1" height="138.4414" id="DomainInformation" rx="2.5" ry="2.5" style="stroke:#181818;stroke-width:0.5;" width="292" x="798" y="511.53"/><ellipse cx="872.75" cy="527.53" fill="#ADD1B2" rx="11" ry="11" style="stroke:#181818;stroke-width:1.0;"/><path d="M875.2231,533.6731 Q874.6421,533.9719 874.0029,534.1213 Q873.3638,534.2707 872.6582,534.2707 Q870.1514,534.2707 868.8315,532.6189 Q867.5117,530.967 867.5117,527.8459 Q867.5117,524.7165 868.8315,523.0647 Q870.1514,521.4128 872.6582,521.4128 Q873.3638,521.4128 874.0112,521.5622 Q874.6587,521.7116 875.2231,522.0105 L875.2231,524.7331 Q874.5923,524.1521 873.9988,523.8823 Q873.4053,523.6125 872.7744,523.6125 Q871.4297,523.6125 870.7449,524.6792 Q870.0601,525.7458 870.0601,527.8459 Q870.0601,529.9377 870.7449,531.0044 Q871.4297,532.071 872.7744,532.071 Q873.4053,532.071 873.9988,531.8012 Q874.5923,531.5315 875.2231,530.9504 Z " fill="#000000"/><text fill="#000000" font-family="sans-serif" font-size="14" lengthAdjust="spacing" textLength="134" x="893.25" y="532.821">DomainInformation</text><line style="stroke:#181818;stroke-width:0.5;" x1="799" x2="1089" y1="543.53" y2="543.53"/><text fill="#000000" font-family="sans-serif" font-size="14" lengthAdjust="spacing" textLength="237" x="804" y="561.0652">Registrar information on a domain</text><line style="stroke:#181818;stroke-width:1.0;" x1="799" x2="1089" y1="568.0183" y2="568.0183"/><text fill="#000000" font-family="sans-serif" font-size="14" lengthAdjust="spacing" textLength="119" x="804" y="585.5534">domain (Domain)</text><text fill="#000000" font-family="sans-serif" font-size="14" lengthAdjust="spacing" textLength="280" x="804" y="602.0417">domain_application (DomainApplication)</text><text fill="#000000" font-family="sans-serif" font-size="14" lengthAdjust="spacing" textLength="97" x="804" y="618.53">security_email</text><line style="stroke:#181818;stroke-width:1.0;" x1="799" x2="1089" y1="625.4831" y2="625.4831"/><text fill="#000000" font-family="sans-serif" font-size="14" lengthAdjust="spacing" textLength="152" x="804" y="643.0183">Request information...</text></g><!--class UserDomainRole--><g id="elem_UserDomainRole"><rect codeLine="101" fill="#F1F1F1" height="121.9531" id="UserDomainRole" rx="2.5" ry="2.5" style="stroke:#181818;stroke-width:0.5;" width="146" x="871" y="267.77"/><ellipse cx="886" cy="283.77" fill="#ADD1B2" rx="11" ry="11" style="stroke:#181818;stroke-width:1.0;"/><path d="M888.4731,289.9131 Q887.8921,290.2119 887.2529,290.3613 Q886.6138,290.5107 885.9082,290.5107 Q883.4014,290.5107 882.0815,288.8589 Q880.7617,287.207 880.7617,284.0859 Q880.7617,280.9565 882.0815,279.3047 Q883.4014,277.6528 885.9082,277.6528 Q886.6138,277.6528 887.2612,277.8022 Q887.9087,277.9516 888.4731,278.2505 L888.4731,280.9731 Q887.8423,280.3921 887.2488,280.1223 Q886.6553,279.8525 886.0244,279.8525 Q884.6797,279.8525 883.9949,280.9192 Q883.3101,281.9858 883.3101,284.0859 Q883.3101,286.1777 883.9949,287.2444 Q884.6797,288.311 886.0244,288.311 Q886.6553,288.311 887.2488,288.0412 Q887.8423,287.7715 888.4731,287.1904 Z " fill="#000000"/><text fill="#000000" font-family="sans-serif" font-size="14" lengthAdjust="spacing" textLength="114" x="900" y="289.061">UserDomainRole</text><line style="stroke:#181818;stroke-width:0.5;" x1="872" x2="1016" y1="299.77" y2="299.77"/><text fill="#000000" font-family="sans-serif" font-size="14" lengthAdjust="spacing" textLength="82" x="877" y="317.3052">Permissions</text><line style="stroke:#181818;stroke-width:1.0;" x1="872" x2="1016" y1="324.2583" y2="324.2583"/><text fill="#000000" font-family="sans-serif" font-size="14" lengthAdjust="spacing" textLength="119" x="877" y="341.7934">domain (Domain)</text><text fill="#000000" font-family="sans-serif" font-size="14" lengthAdjust="spacing" textLength="75" x="877" y="358.2817">user (User)</text><text fill="#000000" font-family="sans-serif" font-size="14" lengthAdjust="spacing" textLength="94" x="877" y="374.77">role="ADMIN"</text><line style="stroke:#181818;stroke-width:1.0;" x1="872" x2="1016" y1="381.7231" y2="381.7231"/></g><!--class DomainInvitation--><g id="elem_DomainInvitation"><rect codeLine="113" fill="#F1F1F1" height="121.9531" id="DomainInvitation" rx="2.5" ry="2.5" style="stroke:#181818;stroke-width:0.5;" width="157" x="370.5" y="133.77"/><ellipse cx="389.1" cy="149.77" fill="#ADD1B2" rx="11" ry="11" style="stroke:#181818;stroke-width:1.0;"/><path d="M391.5731,155.9131 Q390.9921,156.2119 390.3529,156.3613 Q389.7138,156.5107 389.0082,156.5107 Q386.5014,156.5107 385.1815,154.8589 Q383.8617,153.207 383.8617,150.0859 Q383.8617,146.9565 385.1815,145.3047 Q386.5014,143.6528 389.0082,143.6528 Q389.7138,143.6528 390.3612,143.8022 Q391.0087,143.9516 391.5731,144.2505 L391.5731,146.9731 Q390.9423,146.3921 390.3488,146.1223 Q389.7553,145.8525 389.1244,145.8525 Q387.7797,145.8525 387.0949,146.9192 Q386.4101,147.9858 386.4101,150.0859 Q386.4101,152.1777 387.0949,153.2444 Q387.7797,154.311 389.1244,154.311 Q389.7553,154.311 390.3488,154.0412 Q390.9423,153.7715 391.5731,153.1904 Z " fill="#000000"/><text fill="#000000" font-family="sans-serif" font-size="14" lengthAdjust="spacing" textLength="117" x="403.9" y="155.061">DomainInvitation</text><line style="stroke:#181818;stroke-width:0.5;" x1="371.5" x2="526.5" y1="165.77" y2="165.77"/><text fill="#000000" font-family="sans-serif" font-size="14" lengthAdjust="spacing" textLength="145" x="376.5" y="183.3052">Email invitations sent</text><line style="stroke:#181818;stroke-width:1.0;" x1="371.5" x2="526.5" y1="190.2583" y2="190.2583"/><text fill="#000000" font-family="sans-serif" font-size="14" lengthAdjust="spacing" textLength="37" x="376.5" y="207.7934">email</text><text fill="#000000" font-family="sans-serif" font-size="14" lengthAdjust="spacing" textLength="119" x="376.5" y="224.2817">domain (Domain)</text><text fill="#000000" font-family="sans-serif" font-size="14" lengthAdjust="spacing" textLength="41" x="376.5" y="240.77">status</text><line style="stroke:#181818;stroke-width:1.0;" x1="371.5" x2="526.5" y1="247.7231" y2="247.7231"/></g><!--entity applicant--><g id="elem_applicant"><ellipse cx="107.5" cy="467" fill="#FF0000" rx="8" ry="8" style="stroke:#181818;stroke-width:0.5;"/><path d="M107.5,475 L107.5,502 M94.5,483 L120.5,483 M107.5,502 L94.5,517 M107.5,502 L120.5,517 " fill="none" style="stroke:#181818;stroke-width:0.5;"/><text fill="#000000" font-family="sans-serif" font-size="14" lengthAdjust="spacing" textLength="63" x="76" y="532.0352">applicant</text></g><!--entity analyst--><g id="elem_analyst"><ellipse cx="107.5" cy="578" fill="#0000FF" rx="8" ry="8" style="stroke:#181818;stroke-width:0.5;"/><path d="M107.5,586 L107.5,613 M94.5,594 L120.5,594 M107.5,613 L94.5,628 M107.5,613 L120.5,628 " fill="none" style="stroke:#181818;stroke-width:0.5;"/><text fill="#000000" font-family="sans-serif" font-size="14" lengthAdjust="spacing" textLength="48" x="83.5" y="643.0352">analyst</text></g><!--entity user1--><g id="elem_user1"><ellipse cx="944" cy="693" fill="#008000" rx="8" ry="8" style="stroke:#181818;stroke-width:0.5;"/><path d="M944,701 L944,728 M931,709 L957,709 M944,728 L931,743 M944,728 L957,743 " fill="none" style="stroke:#181818;stroke-width:0.5;"/><text fill="#000000" font-family="sans-serif" font-size="14" lengthAdjust="spacing" textLength="39" x="924.5" y="758.0352">user1</text></g><!--entity user2--><g id="elem_user2"><ellipse cx="449" cy="918" fill="#008000" rx="8" ry="8" style="stroke:#181818;stroke-width:0.5;"/><path d="M449,926 L449,953 M436,934 L462,934 M449,953 L436,968 M449,953 L462,968 " fill="none" style="stroke:#181818;stroke-width:0.5;"/><text fill="#000000" font-family="sans-serif" font-size="14" lengthAdjust="spacing" textLength="39" x="429.5" y="983.0352">user2</text></g><!--entity user3--><g id="elem_user3"><ellipse cx="449" cy="14" fill="#008000" rx="8" ry="8" style="stroke:#181818;stroke-width:0.5;"/><path d="M449,22 L449,49 M436,30 L462,30 M449,49 L436,64 M449,49 L462,64 " fill="none" style="stroke:#181818;stroke-width:0.5;"/><text fill="#000000" font-family="sans-serif" font-size="14" lengthAdjust="spacing" textLength="39" x="429.5" y="79.0352">user3</text></g><!--link User to DomainApplication--><g id="link_User_DomainApplication"><path codeLine="60" d="M449,379.33 C449,394.42 449,412 449,429.91 " fill="none" id="User-DomainApplication" style="stroke:#181818;stroke-width:1.0;"/><text fill="#000000" font-family="sans-serif" font-size="13" lengthAdjust="spacing" textLength="127" x="374" y="409.8384">creator, investigator</text></g><!--link DomainApplication to Contact--><g id="link_DomainApplication_Contact"><path codeLine="74" d="M449,665.32 C449,673.25 449,681.17 449,688.97 " fill="none" id="DomainApplication-Contact" style="stroke:#181818;stroke-width:1.0;"/><polygon fill="#181818" points="449,652.53,445,658.53,449,664.53,453,658.53,449,652.53" style="stroke:#181818;stroke-width:1.0;"/><polygon fill="#181818" points="449,701.7,453,695.7,449,689.7,445,695.7,449,701.7" style="stroke:#181818;stroke-width:1.0;"/><text fill="#000000" font-family="sans-serif" font-size="13" lengthAdjust="spacing" textLength="294" x="290.5" y="682.1784">authorizing_official, submitter, other_contacts</text></g><!--link DomainApplication to Domain--><g id="link_DomainApplication_Domain"><path codeLine="85" d="M561.49,524.25 C629.69,514.52 718.76,502.45 798,493.75 C993.13,472.31 1224.03,454.87 1338.95,446.72 " fill="none" id="DomainApplication-to-Domain" style="stroke:#0000FF;stroke-width:1.0;stroke-dasharray:7.0,7.0;"/><polygon fill="#0000FF" points="1343.67,446.32,1334.4072,442.9733,1338.6828,446.6773,1334.9788,450.9528,1343.67,446.32" style="stroke:#0000FF;stroke-width:1.0;"/><text fill="#000000" font-family="sans-serif" font-size="13" lengthAdjust="spacing" textLength="58" x="915" y="462.3184">approve()</text></g><!--link DomainInformation to Domain--><g id="link_DomainInformation_Domain"><path codeLine="97" d="M1090.37,537.43 C1175.4,512.1 1278.68,481.32 1344.75,461.64 " fill="none" id="DomainInformation-Domain" style="stroke:#181818;stroke-width:1.0;"/></g><!--link DomainInformation to DomainApplication--><g id="link_DomainInformation_DomainApplication"><path codeLine="98" d="M797.89,565.44 C787.78,564.49 777.74,563.58 768,562.75 C699.35,556.84 622.27,551.48 561.18,547.52 " fill="none" id="DomainInformation-DomainApplication" style="stroke:#181818;stroke-width:1.0;"/></g><!--link DomainApplication to DomainInformation--><g id="link_DomainApplication_DomainInformation"><path codeLine="99" d="M561.16,581.43 C571.15,583.98 581.19,586.15 591,587.75 C656.45,598.37 729.63,598.73 792.25,595.62 " fill="none" id="DomainApplication-to-DomainInformation" style="stroke:#0000FF;stroke-width:1.0;stroke-dasharray:7.0,7.0;"/><polygon fill="#0000FF" points="796.89,595.33,787.6964,591.7975,791.8966,595.5868,788.1073,599.787,796.89,595.33" style="stroke:#0000FF;stroke-width:1.0;"/><text fill="#000000" font-family="sans-serif" font-size="13" lengthAdjust="spacing" textLength="58" x="650.5" y="584.3184">approve()</text></g><!--link UserDomainRole to User--><g id="link_UserDomainRole_User"><path codeLine="109" d="M870.81,329.62 C776.79,330.77 613.49,332.76 520.37,333.89 " fill="none" id="UserDomainRole-User" style="stroke:#181818;stroke-width:1.0;"/></g><!--link UserDomainRole to Domain--><g id="link_UserDomainRole_Domain"><path codeLine="110" d="M1017.48,345.06 C1092.2,362.05 1211.99,389.76 1315,415.75 C1324.59,418.16 1334.69,420.8 1344.61,423.42 " fill="none" id="UserDomainRole-Domain" style="stroke:#181818;stroke-width:1.0;"/></g><!--link DomainApplication to UserDomainRole--><g id="link_DomainApplication_UserDomainRole"><path codeLine="111" d="M561.37,436.7 C571.03,430.09 580.96,424 591,418.75 C638.24,394.04 776.57,362.72 865.1,344.29 " fill="none" id="DomainApplication-to-UserDomainRole" style="stroke:#0000FF;stroke-width:1.0;stroke-dasharray:7.0,7.0;"/><polygon fill="#0000FF" points="869.85,343.1,860.226,341.0073,864.9538,344.1135,861.8476,348.8413,869.85,343.1" style="stroke:#0000FF;stroke-width:1.0;"/><text fill="#000000" font-family="sans-serif" font-size="13" lengthAdjust="spacing" textLength="58" x="650.5" y="362.3184">approve()</text></g><!--link DomainInvitation to Domain--><g id="link_DomainInvitation_Domain"><path codeLine="121" d="M527.59,192.07 C649.76,189.95 893.3,194.21 1090,250.75 C1197.93,281.77 1220.44,305.16 1315,365.75 C1324.88,372.07 1334.96,379.19 1344.71,386.46 " fill="none" id="DomainInvitation-Domain" style="stroke:#181818;stroke-width:1.0;"/></g><!--link DomainInvitation to UserDomainRole--><g id="link_DomainInvitation_UserDomainRole"><path codeLine="122" d="M527.67,226.06 C548.09,233.71 570.22,241.48 591,247.75 C684.04,275.8 793.42,299.57 865.27,313.96 " fill="none" id="DomainInvitation-to-UserDomainRole" style="stroke:#008000;stroke-width:1.0;stroke-dasharray:7.0,7.0;"/><polygon fill="#008000" points="869.8,315.07,861.7465,309.4006,864.8949,314.1004,860.1952,317.2488,869.8,315.07" style="stroke:#008000;stroke-width:1.0;"/><text fill="#000000" font-family="sans-serif" font-size="13" lengthAdjust="spacing" textLength="105" x="627" y="244.3184">User.first_login()</text></g><!--link applicant to DomainApplication--><g id="link_applicant_DomainApplication"><path codeLine="125" d="M139.23,500.73 C182.25,506.3 262.81,516.75 330.86,525.56 " fill="none" id="applicant-to-DomainApplication" style="stroke:#181818;stroke-width:1.0;"/><polygon fill="#181818" points="335.57,526.3,327.1592,521.1758,330.6115,525.657,326.1303,529.1093,335.57,526.3" style="stroke:#181818;stroke-width:1.0;"/><text fill="#000000" font-family="sans-serif" font-size="13" font-weight="bold" lengthAdjust="spacing" textLength="60" x="243" y="511.3184">/register</text></g><!--link analyst to DomainApplication--><g id="link_analyst_DomainApplication"><path codeLine="128" d="M131.84,603.14 C172.5,595.12 258.9,578.06 331.12,563.81 " fill="none" id="analyst-to-DomainApplication" style="stroke:#0000FF;stroke-width:1.0;"/><polygon fill="#0000FF" points="335.74,562.7,326.1352,560.5212,330.8349,563.6696,327.6865,568.3694,335.74,562.7" style="stroke:#0000FF;stroke-width:1.0;"/><text fill="#000000" font-family="sans-serif" font-size="13" font-weight="bold" lengthAdjust="spacing" textLength="66" x="240" y="566.3184">approve()</text></g><!--link user1 to Domain--><g id="link_user1_Domain"><path codeLine="131" d="M963.98,717.47 C1021.51,700.81 1197.24,644.87 1315,552.75 C1331.64,539.73 1347.6,523.54 1361.58,507.58 " fill="none" id="user1-to-Domain" style="stroke:#008000;stroke-width:1.0;"/><polygon fill="#008000" points="1365.47,504.09,1356.5511,508.2676,1362.1937,507.867,1362.5943,513.5097,1365.47,504.09" style="stroke:#008000;stroke-width:1.0;"/><text fill="#000000" font-family="sans-serif" font-size="13" font-weight="bold" lengthAdjust="spacing" textLength="193" x="1121" y="549.3184">/domain/&lt;id&gt;/nameservers</text></g><!--link user2 to DomainInformation--><g id="link_user2_DomainInformation"><path codeLine="133" d="M468.6,940.35 C491.43,930.84 530.82,912.99 561,891.75 C679.77,808.14 682.15,754.34 798,666.75 C803.86,662.32 809.97,657.93 816.21,653.61 " fill="none" id="user2-to-DomainInformation" style="stroke:#008000;stroke-width:1.0;"/><polygon fill="#008000" points="820.01,650.33,810.3204,652.0941,815.8786,653.1462,814.8264,658.7044,820.01,650.33" style="stroke:#008000;stroke-width:1.0;"/><text fill="#000000" font-family="sans-serif" font-size="13" font-weight="bold" lengthAdjust="spacing" textLength="135" x="612" y="688.3184">/domain/&lt;id&gt;/?????</text></g><!--link user3 to UserDomainRole--><g id="link_user3_UserDomainRole"><path codeLine="135" d="M468.76,54.03 C518.07,81.13 655.31,156.92 768,222.75 C800.17,241.54 835.36,262.72 865.69,281.19 " fill="none" id="user3-to-UserDomainRole" style="stroke:#008000;stroke-width:1.0;"/><polygon fill="#008000" points="869.51,284.13,863.902,276.0337,865.239,281.5303,859.7424,282.8673,869.51,284.13" style="stroke:#008000;stroke-width:1.0;"/><text fill="#000000" font-family="sans-serif" font-size="13" font-weight="bold" lengthAdjust="spacing" textLength="175" x="592" y="121.3184">/domain/&lt;id&gt;/users/add</text></g><!--link user3 to DomainInvitation--><g id="link_user3_DomainInvitation"><path codeLine="136" d="M449,82.14 C449,95.98 449,112.04 449,127.62 " fill="none" id="user3-to-DomainInvitation" style="stroke:#008000;stroke-width:1.0;"/><polygon fill="#008000" points="449,132.33,453,123.33,449,127.33,445,123.33,449,132.33" style="stroke:#008000;stroke-width:1.0;"/><text fill="#000000" font-family="sans-serif" font-size="13" font-weight="bold" lengthAdjust="spacing" textLength="175" x="350" y="112.9484">/domain/&lt;id&gt;/users/add</text></g><!--SRC=[XLNBRjim4BphAuZuKDS8RJIv1QcBD0uA0tq41e8UYaAWfBNCbY9TadAQ5ldtBYbHrijfOCJYBZcSdPsLcH3giU2_kSmZ0LjBh2AQvpjBCguXjLp9A4e5CuQiLC6ulDdl1K-PIv2_4I7jzLPfmaZczs6AKloNQc0MuzC70_er1hWyWB4yxqPPQNTAyp_88rRRBKyv4sHwgwHbgNKRJ9aKt5hGdQYoEz1nMWLCap8kf-5NYJT15bUCoBIgmENIKckGDdw4n70BUF9h_UJ92Bn7Oaq7gC_sDlZADXK-5eHr5rw1-NmUFGUzN6bUejKF9dFrof3IHNmoOBW3_l4vaie2yIrGMtyM4xTEFCX8ybI3V5clRZ7-k0FfqGnXMYDDah3q9oQsMXNaeygvdEVg467aEbcwZP8LSBr8beGRWffLUyZ3mteLWSo8kpoAXXscWbPrN8L6ddSQ66gjTVVbXcUdIss9FJ9LZIMsN1iREqQuA7YM2GWh16iobblXlW592VpUxvI4eDO8rndLTDRSVZLggVEZZyvxvkdQF7XRgmFgtxLqpO-R6C-X-26EKj_TtvC2yDxCEBN7YSxzW7sR9AA4x_Dbk14PL_TDNtUvh8y6yxGsa7DZDTDjwn7yz6TlwFig4hCMc-c0e1ytm17XzYaEwl_7yaEcbDRqNygrRXqJggzH6sD4BkVKQkD62V1QtOCkk35um9nMnSzbyohIUFRjsStgq_hpMR1R3vbMKp4IxfHyefRUgHVwVk3ssFOxrmatVNNGO9Ea3LM5FWshCxYzDA6I0VImJqqAEUSQG8wITe5vDSh2lKmSUvm7D-zLsTAIoGQowBYa6LsE_8nSaTbieRsfGSzc3OnauWdDDdcFkaLXHMiTJo8rOXwHN7_VaCa7LqjKBMWeZRRc3sbKyYskURPSk3d7pGTyUI7M4UgY3NKn0jMrQG_rdVlhu5ssyIu9hLyF3UX0-XwY_o5Oi2n3r1CGWzQ-2F8F]--></g></svg>