<?xml version="1.0" encoding="us-ascii" standalone="no"?><svg xmlns="http://www.w3.org/2000/svg" xmlns:xlink="http://www.w3.org/1999/xlink" contentStyleType="text/css" height="1028px" preserveAspectRatio="none" style="width:1389px;height:1028px;background:#FFFFFF;" version="1.1" viewBox="0 0 1389 1028" width="1389px" zoomAndPan="magnify"><defs/><g><!--class DomainRequest--><g id="elem_DomainRequest"><rect codeLine="38" fill="#F1F1F1" height="235.2656" id="DomainRequest" rx="2.5" ry="2.5" style="stroke:#181818;stroke-width:0.5;" width="242" x="203" y="258"/><ellipse cx="255.75" cy="274" fill="#ADD1B2" rx="11" ry="11" style="stroke:#181818;stroke-width:1.0;"/><path d="M258.7188,279.6406 Q258.1406,279.9375 257.5,280.0781 Q256.8594,280.2344 256.1563,280.2344 Q253.6563,280.2344 252.3281,278.5938 Q251.0156,276.9375 251.0156,273.8125 Q251.0156,270.6875 252.3281,269.0313 Q253.6563,267.375 256.1563,267.375 Q256.8594,267.375 257.5,267.5313 Q258.1563,267.6875 258.7188,267.9844 L258.7188,270.7031 Q258.0938,270.125 257.5,269.8594 Q256.9063,269.5781 256.2813,269.5781 Q254.9375,269.5781 254.25,270.6563 Q253.5625,271.7188 253.5625,273.8125 Q253.5625,275.9063 254.25,276.9844 Q254.9375,278.0469 256.2813,278.0469 Q256.9063,278.0469 257.5,277.7813 Q258.0938,277.5 258.7188,276.9219 L258.7188,279.6406 Z " fill="#000000"/><text fill="#000000" font-family="sans-serif" font-size="14" lengthAdjust="spacing" textLength="128" x="276.25" y="278.8467">DomainRequest</text><line style="stroke:#181818;stroke-width:0.5;" x1="204" x2="444" y1="290" y2="290"/><text fill="#000000" font-family="sans-serif" font-size="14" lengthAdjust="spacing" textLength="164" x="209" y="306.9951">Request for a domain</text><line style="stroke:#181818;stroke-width:1.0;" x1="204" x2="444" y1="314.2969" y2="314.2969"/><text fill="#000000" font-family="sans-serif" font-size="14" lengthAdjust="spacing" textLength="95" x="209" y="331.292">creator (User)</text><text fill="#000000" font-family="sans-serif" font-size="14" lengthAdjust="spacing" textLength="126" x="209" y="347.5889">investigator (User)</text><text fill="#000000" font-family="sans-serif" font-size="14" lengthAdjust="spacing" textLength="194" x="209" y="363.8857">authorizing_official (Contact)</text><text fill="#000000" font-family="sans-serif" font-size="14" lengthAdjust="spacing" textLength="134" x="209" y="380.1826">submitter (Contact)</text><text fill="#000000" font-family="sans-serif" font-size="14" lengthAdjust="spacing" textLength="180" x="209" y="396.4795">other_contacts (Contacts)</text><text fill="#000000" font-family="sans-serif" font-size="14" lengthAdjust="spacing" textLength="190" x="209" y="412.7764">approved_domain (Domain)</text><text fill="#000000" font-family="sans-serif" font-size="14" lengthAdjust="spacing" textLength="230" x="209" y="429.0732">requested_domain (DraftDomain)</text><text fill="#000000" font-family="sans-serif" font-size="14" lengthAdjust="spacing" textLength="197" x="209" y="445.3701">current_websites (Websites)</text><text fill="#000000" font-family="sans-serif" font-size="14" lengthAdjust="spacing" textLength="215" x="209" y="461.667">alternative_domains (Websites)</text><line style="stroke:#181818;stroke-width:1.0;" x1="204" x2="444" y1="468.9688" y2="468.9688"/><text fill="#000000" font-family="sans-serif" font-size="14" lengthAdjust="spacing" textLength="152" x="209" y="485.9639">Request information...</text></g><!--class User--><g id="elem_User"><rect codeLine="54" fill="#F1F1F1" height="88.5938" id="User" rx="2.5" ry="2.5" style="stroke:#181818;stroke-width:0.5;" width="146" x="1236" y="723"/><ellipse cx="1288.75" cy="739" fill="#ADD1B2" rx="11" ry="11" style="stroke:#181818;stroke-width:1.0;"/><path d="M1291.7188,744.6406 Q1291.1406,744.9375 1290.5,745.0781 Q1289.8594,745.2344 1289.1563,745.2344 Q1286.6563,745.2344 1285.3281,743.5938 Q1284.0156,741.9375 1284.0156,738.8125 Q1284.0156,735.6875 1285.3281,734.0313 Q1286.6563,732.375 1289.1563,732.375 Q1289.8594,732.375 1290.5,732.5313 Q1291.1563,732.6875 1291.7188,732.9844 L1291.7188,735.7031 Q1291.0938,735.125 1290.5,734.8594 Q1289.9063,734.5781 1289.2813,734.5781 Q1287.9375,734.5781 1287.25,735.6563 Q1286.5625,736.7188 1286.5625,738.8125 Q1286.5625,740.9063 1287.25,741.9844 Q1287.9375,743.0469 1289.2813,743.0469 Q1289.9063,743.0469 1290.5,742.7813 Q1291.0938,742.5 1291.7188,741.9219 L1291.7188,744.6406 Z " fill="#000000"/><text fill="#000000" font-family="sans-serif" font-size="14" lengthAdjust="spacing" textLength="32" x="1309.25" y="743.8467">User</text><line style="stroke:#181818;stroke-width:0.5;" x1="1237" x2="1381" y1="755" y2="755"/><text fill="#000000" font-family="sans-serif" font-size="14" lengthAdjust="spacing" textLength="134" x="1242" y="771.9951">Django's user class</text><line style="stroke:#181818;stroke-width:1.0;" x1="1237" x2="1381" y1="779.2969" y2="779.2969"/><text fill="#000000" font-family="sans-serif" font-size="14" lengthAdjust="spacing" textLength="12" x="1242" y="796.292">...</text><line style="stroke:#181818;stroke-width:1.0;" x1="1237" x2="1381" y1="803.5938" y2="803.5938"/></g><g id="elem_GMN4"><path d="M726,935.5 L726,1021.1641 L934,1021.1641 L934,945.5 L924,935.5 L726,935.5 " fill="#FEFFDD" style="stroke:#181818;stroke-width:0.5;"/><path d="M924,935.5 L924,945.5 L934,945.5 L924,935.5 " fill="#FEFFDD" style="stroke:#181818;stroke-width:1.0;"/><text fill="#000000" font-family="sans-serif" font-size="13" lengthAdjust="spacing" textLength="151" x="732" y="952.5669">Created by DjangoOIDC</text><text fill="#000000" font-family="sans-serif" font-size="13" lengthAdjust="spacing" textLength="146" x="732" y="967.6997">when users arrive back</text><text fill="#000000" font-family="sans-serif" font-size="13" lengthAdjust="spacing" textLength="95" x="732" y="982.8325">from Login.gov</text><text fill="#000000" font-family="sans-serif" font-size="13" lengthAdjust="spacing" textLength="4" x="732" y="997.9653">&#160;</text><text fill="#000000" font-family="sans-serif" font-size="13" font-weight="bold" lengthAdjust="spacing" textLength="73" x="732" y="1013.0981">username</text><text fill="#000000" font-family="sans-serif" font-size="13" lengthAdjust="spacing" textLength="110" x="809" y="1013.0981">is the Login UUID</text></g><!--class Contact--><g id="elem_Contact"><rect codeLine="70" fill="#F1F1F1" height="170.0781" id="Contact" rx="2.5" ry="2.5" style="stroke:#181818;stroke-width:0.5;" width="182" x="233" y="544.5"/><ellipse cx="292.75" cy="560.5" fill="#ADD1B2" rx="11" ry="11" style="stroke:#181818;stroke-width:1.0;"/><path d="M295.7188,566.1406 Q295.1406,566.4375 294.5,566.5781 Q293.8594,566.7344 293.1563,566.7344 Q290.6563,566.7344 289.3281,565.0938 Q288.0156,563.4375 288.0156,560.3125 Q288.0156,557.1875 289.3281,555.5313 Q290.6563,553.875 293.1563,553.875 Q293.8594,553.875 294.5,554.0313 Q295.1563,554.1875 295.7188,554.4844 L295.7188,557.2031 Q295.0938,556.625 294.5,556.3594 Q293.9063,556.0781 293.2813,556.0781 Q291.9375,556.0781 291.25,557.1563 Q290.5625,558.2188 290.5625,560.3125 Q290.5625,562.4063 291.25,563.4844 Q291.9375,564.5469 293.2813,564.5469 Q293.9063,564.5469 294.5,564.2813 Q295.0938,564 295.7188,563.4219 L295.7188,566.1406 Z " fill="#000000"/><text fill="#000000" font-family="sans-serif" font-size="14" lengthAdjust="spacing" textLength="54" x="313.25" y="565.3467">Contact</text><line style="stroke:#181818;stroke-width:0.5;" x1="234" x2="414" y1="576.5" y2="576.5"/><text fill="#000000" font-family="sans-serif" font-size="14" lengthAdjust="spacing" textLength="170" x="239" y="593.4951">Contact info for a person</text><line style="stroke:#181818;stroke-width:1.0;" x1="234" x2="414" y1="600.7969" y2="600.7969"/><text fill="#000000" font-family="sans-serif" font-size="14" lengthAdjust="spacing" textLength="71" x="239" y="617.792">first_name</text><text fill="#000000" font-family="sans-serif" font-size="14" lengthAdjust="spacing" textLength="92" x="239" y="634.0889">middle_name</text><text fill="#000000" font-family="sans-serif" font-size="14" lengthAdjust="spacing" textLength="70" x="239" y="650.3857">last_name</text><text fill="#000000" font-family="sans-serif" font-size="14" lengthAdjust="spacing" textLength="25" x="239" y="666.6826">title</text><text fill="#000000" font-family="sans-serif" font-size="14" lengthAdjust="spacing" textLength="36" x="239" y="682.9795">email</text><text fill="#000000" font-family="sans-serif" font-size="14" lengthAdjust="spacing" textLength="45" x="239" y="699.2764">phone</text><line style="stroke:#181818;stroke-width:1.0;" x1="234" x2="414" y1="706.5781" y2="706.5781"/></g><!--class DraftDomain--><g id="elem_DraftDomain"><rect codeLine="84" fill="#F1F1F1" height="88.5938" id="DraftDomain" rx="2.5" ry="2.5" style="stroke:#181818;stroke-width:0.5;" width="144" x="252" y="117"/><ellipse cx="278.7" cy="133" fill="#ADD1B2" rx="11" ry="11" style="stroke:#181818;stroke-width:1.0;"/><path d="M281.6688,138.6406 Q281.0906,138.9375 280.45,139.0781 Q279.8094,139.2344 279.1063,139.2344 Q276.6063,139.2344 275.2781,137.5938 Q273.9656,135.9375 273.9656,132.8125 Q273.9656,129.6875 275.2781,128.0313 Q276.6063,126.375 279.1063,126.375 Q279.8094,126.375 280.45,126.5313 Q281.1063,126.6875 281.6688,126.9844 L281.6688,129.7031 Q281.0438,129.125 280.45,128.8594 Q279.8563,128.5781 279.2313,128.5781 Q277.8875,128.5781 277.2,129.6563 Q276.5125,130.7188 276.5125,132.8125 Q276.5125,134.9063 277.2,135.9844 Q277.8875,137.0469 279.2313,137.0469 Q279.8563,137.0469 280.45,136.7813 Q281.0438,136.5 281.6688,135.9219 L281.6688,138.6406 Z " fill="#000000"/><text fill="#000000" font-family="sans-serif" font-size="14" lengthAdjust="spacing" textLength="86" x="295.3" y="137.8467">DraftDomain</text><line style="stroke:#181818;stroke-width:0.5;" x1="253" x2="395" y1="149" y2="149"/><text fill="#000000" font-family="sans-serif" font-size="14" lengthAdjust="spacing" textLength="132" x="258" y="165.9951">Requested domain</text><line style="stroke:#181818;stroke-width:1.0;" x1="253" x2="395" y1="173.2969" y2="173.2969"/><text fill="#000000" font-family="sans-serif" font-size="14" lengthAdjust="spacing" textLength="39" x="258" y="190.292">name</text><line style="stroke:#181818;stroke-width:1.0;" x1="253" x2="395" y1="197.5938" y2="197.5938"/></g><!--class Domain--><g id="elem_Domain"><rect codeLine="93" fill="#F1F1F1" height="104.8906" id="Domain" rx="2.5" ry="2.5" style="stroke:#181818;stroke-width:0.5;" width="133" x="1242.5" y="494"/><ellipse cx="1279.1" cy="510" fill="#ADD1B2" rx="11" ry="11" style="stroke:#181818;stroke-width:1.0;"/><path d="M1282.0688,515.6406 Q1281.4906,515.9375 1280.85,516.0781 Q1280.2094,516.2344 1279.5063,516.2344 Q1277.0063,516.2344 1275.6781,514.5938 Q1274.3656,512.9375 1274.3656,509.8125 Q1274.3656,506.6875 1275.6781,505.0313 Q1277.0063,503.375 1279.5063,503.375 Q1280.2094,503.375 1280.85,503.5313 Q1281.5063,503.6875 1282.0688,503.9844 L1282.0688,506.7031 Q1281.4438,506.125 1280.85,505.8594 Q1280.2563,505.5781 1279.6313,505.5781 Q1278.2875,505.5781 1277.6,506.6563 Q1276.9125,507.7188 1276.9125,509.8125 Q1276.9125,511.9063 1277.6,512.9844 Q1278.2875,514.0469 1279.6313,514.0469 Q1280.2563,514.0469 1280.85,513.7813 Q1281.4438,513.5 1282.0688,512.9219 L1282.0688,515.6406 Z " fill="#000000"/><text fill="#000000" font-family="sans-serif" font-size="14" lengthAdjust="spacing" textLength="53" x="1297.9" y="514.8467">Domain</text><line style="stroke:#181818;stroke-width:0.5;" x1="1243.5" x2="1374.5" y1="526" y2="526"/><text fill="#000000" font-family="sans-serif" font-size="14" lengthAdjust="spacing" textLength="121" x="1248.5" y="542.9951">Approved domain</text><line style="stroke:#181818;stroke-width:1.0;" x1="1243.5" x2="1374.5" y1="550.2969" y2="550.2969"/><text fill="#000000" font-family="sans-serif" font-size="14" lengthAdjust="spacing" textLength="39" x="1248.5" y="567.292">name</text><line style="stroke:#181818;stroke-width:1.0;" x1="1243.5" x2="1374.5" y1="574.5938" y2="574.5938"/><text fill="#000000" font-family="sans-serif" font-size="14" font-weight="bold" lengthAdjust="spacing" textLength="103" x="1248.5" y="591.5889">EPP methods</text></g><!--class DomainInformation--><g id="elem_DomainInformation"><rect codeLine="103" fill="#F1F1F1" height="137.4844" id="DomainInformation" rx="2.5" ry="2.5" style="stroke:#181818;stroke-width:0.5;" width="286" x="687" y="249"/><ellipse cx="760.75" cy="265" fill="#ADD1B2" rx="11" ry="11" style="stroke:#181818;stroke-width:1.0;"/><path d="M763.7188,270.6406 Q763.1406,270.9375 762.5,271.0781 Q761.8594,271.2344 761.1563,271.2344 Q758.6563,271.2344 757.3281,269.5938 Q756.0156,267.9375 756.0156,264.8125 Q756.0156,261.6875 757.3281,260.0313 Q758.6563,258.375 761.1563,258.375 Q761.8594,258.375 762.5,258.5313 Q763.1563,258.6875 763.7188,258.9844 L763.7188,261.7031 Q763.0938,261.125 762.5,260.8594 Q761.9063,260.5781 761.2813,260.5781 Q759.9375,260.5781 759.25,261.6563 Q758.5625,262.7188 758.5625,264.8125 Q758.5625,266.9063 759.25,267.9844 Q759.9375,269.0469 761.2813,269.0469 Q761.9063,269.0469 762.5,268.7813 Q763.0938,268.5 763.7188,267.9219 L763.7188,270.6406 Z " fill="#000000"/><text fill="#000000" font-family="sans-serif" font-size="14" lengthAdjust="spacing" textLength="130" x="781.25" y="269.8467">DomainInformation</text><line style="stroke:#181818;stroke-width:0.5;" x1="688" x2="972" y1="281" y2="281"/><text fill="#000000" font-family="sans-serif" font-size="14" lengthAdjust="spacing" textLength="232" x="693" y="297.9951">Registrar information on a domain</text><line style="stroke:#181818;stroke-width:1.0;" x1="688" x2="972" y1="305.2969" y2="305.2969"/><text fill="#000000" font-family="sans-serif" font-size="14" lengthAdjust="spacing" textLength="118" x="693" y="322.292">domain (Domain)</text><text fill="#000000" font-family="sans-serif" font-size="14" lengthAdjust="spacing" textLength="274" x="693" y="338.5889">domain_request (DomainRequest)</text><text fill="#000000" font-family="sans-serif" font-size="14" lengthAdjust="spacing" textLength="97" x="693" y="354.8857">security_email</text><line style="stroke:#181818;stroke-width:1.0;" x1="688" x2="972" y1="362.1875" y2="362.1875"/><text fill="#000000" font-family="sans-serif" font-size="14" lengthAdjust="spacing" textLength="152" x="693" y="379.1826">Request information...</text></g><!--class UserDomainRole--><g id="elem_UserDomainRole"><rect codeLine="117" fill="#F1F1F1" height="121.1875" id="UserDomainRole" rx="2.5" ry="2.5" style="stroke:#181818;stroke-width:0.5;" width="148" x="756" y="707"/><ellipse cx="771" cy="723" fill="#ADD1B2" rx="11" ry="11" style="stroke:#181818;stroke-width:1.0;"/><path d="M773.9688,728.6406 Q773.3906,728.9375 772.75,729.0781 Q772.1094,729.2344 771.4063,729.2344 Q768.9063,729.2344 767.5781,727.5938 Q766.2656,725.9375 766.2656,722.8125 Q766.2656,719.6875 767.5781,718.0313 Q768.9063,716.375 771.4063,716.375 Q772.1094,716.375 772.75,716.5313 Q773.4063,716.6875 773.9688,716.9844 L773.9688,719.7031 Q773.3438,719.125 772.75,718.8594 Q772.1563,718.5781 771.5313,718.5781 Q770.1875,718.5781 769.5,719.6563 Q768.8125,720.7188 768.8125,722.8125 Q768.8125,724.9063 769.5,725.9844 Q770.1875,727.0469 771.5313,727.0469 Q772.1563,727.0469 772.75,726.7813 Q773.3438,726.5 773.9688,725.9219 L773.9688,728.6406 Z " fill="#000000"/><text fill="#000000" font-family="sans-serif" font-size="14" lengthAdjust="spacing" textLength="116" x="785" y="727.8467">UserDomainRole</text><line style="stroke:#181818;stroke-width:0.5;" x1="757" x2="903" y1="739" y2="739"/><text fill="#000000" font-family="sans-serif" font-size="14" lengthAdjust="spacing" textLength="84" x="762" y="755.9951">Permissions</text><line style="stroke:#181818;stroke-width:1.0;" x1="757" x2="903" y1="763.2969" y2="763.2969"/><text fill="#000000" font-family="sans-serif" font-size="14" lengthAdjust="spacing" textLength="118" x="762" y="780.292">domain (Domain)</text><text fill="#000000" font-family="sans-serif" font-size="14" lengthAdjust="spacing" textLength="77" x="762" y="796.5889">user (User)</text><text fill="#000000" font-family="sans-serif" font-size="14" lengthAdjust="spacing" textLength="93" x="762" y="812.8857">role="ADMIN"</text><line style="stroke:#181818;stroke-width:1.0;" x1="757" x2="903" y1="820.1875" y2="820.1875"/></g><!--class DomainInvitation--><g id="elem_DomainInvitation"><rect codeLine="129" fill="#F1F1F1" height="121.1875" id="DomainInvitation" rx="2.5" ry="2.5" style="stroke:#181818;stroke-width:0.5;" width="156" x="246" y="877"/><ellipse cx="265.5" cy="893" fill="#ADD1B2" rx="11" ry="11" style="stroke:#181818;stroke-width:1.0;"/><path d="M268.4688,898.6406 Q267.8906,898.9375 267.25,899.0781 Q266.6094,899.2344 265.9063,899.2344 Q263.4063,899.2344 262.0781,897.5938 Q260.7656,895.9375 260.7656,892.8125 Q260.7656,889.6875 262.0781,888.0313 Q263.4063,886.375 265.9063,886.375 Q266.6094,886.375 267.25,886.5313 Q267.9063,886.6875 268.4688,886.9844 L268.4688,889.7031 Q267.8438,889.125 267.25,888.8594 Q266.6563,888.5781 266.0313,888.5781 Q264.6875,888.5781 264,889.6563 Q263.3125,890.7188 263.3125,892.8125 Q263.3125,894.9063 264,895.9844 Q264.6875,897.0469 266.0313,897.0469 Q266.6563,897.0469 267.25,896.7813 Q267.8438,896.5 268.4688,895.9219 L268.4688,898.6406 Z " fill="#000000"/><text fill="#000000" font-family="sans-serif" font-size="14" lengthAdjust="spacing" textLength="114" x="280.5" y="897.8467">DomainInvitation</text><line style="stroke:#181818;stroke-width:0.5;" x1="247" x2="401" y1="909" y2="909"/><text fill="#000000" font-family="sans-serif" font-size="14" lengthAdjust="spacing" textLength="144" x="252" y="925.9951">Email invitations sent</text><line style="stroke:#181818;stroke-width:1.0;" x1="247" x2="401" y1="933.2969" y2="933.2969"/><text fill="#000000" font-family="sans-serif" font-size="14" lengthAdjust="spacing" textLength="36" x="252" y="950.292">email</text><text fill="#000000" font-family="sans-serif" font-size="14" lengthAdjust="spacing" textLength="118" x="252" y="966.5889">domain (Domain)</text><text fill="#000000" font-family="sans-serif" font-size="14" lengthAdjust="spacing" textLength="43" x="252" y="982.8857">status</text><line style="stroke:#181818;stroke-width:1.0;" x1="247" x2="401" y1="990.1875" y2="990.1875"/></g><!--entity applicant--><g id="elem_applicant"><ellipse cx="37" cy="291" fill="#FF0000" rx="8" ry="8" style="stroke:#181818;stroke-width:0.5;"/><path d="M37,299 L37,326 M24,307 L50,307 M37,326 L24,341 M37,326 L50,341 " fill="none" style="stroke:#181818;stroke-width:0.5;"/><text fill="#000000" font-family="sans-serif" font-size="14" lengthAdjust="spacing" textLength="62" x="6" y="355.4951">applicant</text></g><!--entity analyst--><g id="elem_analyst"><ellipse cx="37" cy="402" fill="#0000FF" rx="8" ry="8" style="stroke:#181818;stroke-width:0.5;"/><path d="M37,410 L37,437 M24,418 L50,418 M37,437 L24,452 M37,437 L50,452 " fill="none" style="stroke:#181818;stroke-width:0.5;"/><text fill="#000000" font-family="sans-serif" font-size="14" lengthAdjust="spacing" textLength="48" x="13" y="466.4951">analyst</text></g><!--entity user1--><g id="elem_user1"><ellipse cx="830" cy="517" fill="#008000" rx="8" ry="8" style="stroke:#181818;stroke-width:0.5;"/><path d="M830,525 L830,552 M817,533 L843,533 M830,552 L817,567 M830,552 L843,567 " fill="none" style="stroke:#181818;stroke-width:0.5;"/><text fill="#000000" font-family="sans-serif" font-size="14" lengthAdjust="spacing" textLength="40" x="810" y="581.4951">user1</text></g><!--entity user2--><g id="elem_user2"><ellipse cx="324" cy="14" fill="#008000" rx="8" ry="8" style="stroke:#181818;stroke-width:0.5;"/><path d="M324,22 L324,49 M311,30 L337,30 M324,49 L311,64 M324,49 L337,64 " fill="none" style="stroke:#181818;stroke-width:0.5;"/><text fill="#000000" font-family="sans-serif" font-size="14" lengthAdjust="spacing" textLength="40" x="304" y="78.4951">user2</text></g><!--entity user3--><g id="elem_user3"><ellipse cx="324" cy="758" fill="#008000" rx="8" ry="8" style="stroke:#181818;stroke-width:0.5;"/><path d="M324,766 L324,793 M311,774 L337,774 M324,793 L311,808 M324,793 L337,808 " fill="none" style="stroke:#181818;stroke-width:0.5;"/><text fill="#000000" font-family="sans-serif" font-size="14" lengthAdjust="spacing" textLength="40" x="304" y="822.4951">user3</text></g><!--link GMN4 to User--><g id="link_GMN4_User"><path d="M934.37,979.47 C1014.2,975.67 1124.45,960.15 1206,908.5 C1242.5,885.38 1270.05,844.1 1287.26,812.15 " fill="none" id="GMN4-User" style="stroke:#181818;stroke-width:1.0;stroke-dasharray:7.0,7.0;"/></g><!--link User to DomainRequest--><g id="link_User_DomainRequest"><path codeLine="68" d="M1235.88,748.94 C1225.85,746.41 1215.67,743.87 1206,741.5 C1177.23,734.45 714.14,631.36 687,619.5 C600.71,581.79 512.91,523.21 445.39,472.9 " fill="none" id="User-DomainRequest" style="stroke:#181818;stroke-width:1.0;"/><text fill="#000000" font-family="sans-serif" font-size="13" lengthAdjust="spacing" textLength="129" x="765.5" y="615.5669">creator, investigator</text></g><!--link DomainRequest to Contact--><g id="link_DomainRequest_Contact"><path codeLine="82" d="M324,506.15 C324,514.48 324,522.78 324,530.92 " fill="none" id="DomainRequest-Contact" style="stroke:#181818;stroke-width:1.0;"/><polygon fill="#181818" points="324,493.06,320,499.06,324,505.06,328,499.06,324,493.06" style="stroke:#181818;stroke-width:1.0;"/><polygon fill="#181818" points="324,544.22,328,538.22,324,532.22,320,538.22,324,544.22" style="stroke:#181818;stroke-width:1.0;"/><text fill="#000000" font-family="sans-serif" font-size="13" lengthAdjust="spacing" textLength="292" x="166.5" y="523.3169">authorizing_official, submitter, other_contacts</text></g><!--link DraftDomain to DomainRequest--><g id="link_DraftDomain_DomainRequest"><path codeLine="91" d="M324,206 C324,221.38 324,239.4 324,257.86 " fill="none" id="DraftDomain-DomainRequest" style="stroke:#181818;stroke-width:1.0;"/><text fill="#000000" font-family="sans-serif" font-size="13" lengthAdjust="spacing" textLength="120" x="252.5" y="236.5669">requested_domain</text></g><!--link DomainRequest to Domain--><g id="link_DomainRequest_Domain"><path codeLine="101" d="M445.23,392.46 C615.33,417.13 935.66,466.05 1206,521.5 C1216.13,523.58 1226.78,525.96 1237.22,528.41 " fill="none" id="DomainRequest-to-Domain" style="stroke:#0000FF;stroke-width:1.0;stroke-dasharray:7.0,7.0;"/><polygon fill="#0000FF" points="1242.32,529.62,1234.492,523.6432,1237.4561,528.4613,1232.638,531.4254,1242.32,529.62" style="stroke:#0000FF;stroke-width:1.0;"/><text fill="#000000" font-family="sans-serif" font-size="13" lengthAdjust="spacing" textLength="62" x="799" y="425.5669">approve()</text></g><!--link DomainInformation to Domain--><g id="link_DomainInformation_Domain"><path codeLine="113" d="M973.23,330.82 C1047.47,343.14 1136.95,366.85 1206,412.5 C1236.85,432.9 1262.12,465.85 1279.79,493.98 " fill="none" id="DomainInformation-Domain" style="stroke:#181818;stroke-width:1.0;"/></g><!--link DomainInformation to DomainRequest--><g id="link_DomainInformation_DomainRequest"><path codeLine="114" d="M686.61,348.91 C676.61,350.62 666.67,352.17 657,353.5 C587.18,363.07 508.51,368.52 445.27,371.6 " fill="none" id="DomainInformation-DomainRequest" style="stroke:#181818;stroke-width:1.0;"/></g><!--link DomainRequest to DomainInformation--><g id="link_DomainRequest_DomainInformation"><path codeLine="115" d="M445.33,360.08 C455.36,358.85 465.35,357.64 475,356.5 C542.78,348.47 617.94,340.12 681.5,333.21 " fill="none" id="DomainRequest-to-DomainInformation" style="stroke:#0000FF;stroke-width:1.0;stroke-dasharray:7.0,7.0;"/><polygon fill="#0000FF" points="686.83,332.63,677.449,329.6306,681.8595,333.1728,678.3174,337.5833,686.83,332.63" style="stroke:#0000FF;stroke-width:1.0;"/><text fill="#000000" font-family="sans-serif" font-size="13" lengthAdjust="spacing" textLength="62" x="535" y="333.5669">approve()</text></g><!--link UserDomainRole to User--><g id="link_UserDomainRole_User"><path codeLine="125" d="M904.23,767.5 C994.32,767.5 1146.33,767.5 1235.91,767.5 " fill="none" id="UserDomainRole-User" style="stroke:#181818;stroke-width:1.0;"/></g><!--link UserDomainRole to Domain--><g id="link_UserDomainRole_Domain"><path codeLine="126" d="M904.23,733.57 C996.54,690.8 1153.86,617.91 1242.41,576.89 " fill="none" id="UserDomainRole-Domain" style="stroke:#181818;stroke-width:1.0;"/></g><!--link DomainRequest to UserDomainRole--><g id="link_DomainRequest_UserDomainRole"><path codeLine="127" d="M426.23,493.2 C433.25,504.39 439.66,515.9 445,527.5 C473.8,590.04 427.51,629.64 475,679.5 C512.4,718.77 658.19,744.88 750.61,757.87 " fill="none" id="DomainRequest-to-UserDomainRole" style="stroke:#0000FF;stroke-width:1.0;stroke-dasharray:7.0,7.0;"/><polygon fill="#0000FF" points="755.79,758.59,747.423,753.3945,750.8372,757.9049,746.3268,761.3191,755.79,758.59" style="stroke:#0000FF;stroke-width:1.0;"/><text fill="#000000" font-family="sans-serif" font-size="13" lengthAdjust="spacing" textLength="62" x="535" y="675.5669">approve()</text></g><!--link DomainInvitation to Domain--><g id="link_DomainInvitation_Domain"><path codeLine="137" d="M402.06,937.46 C526.31,935.02 776.83,920.24 973,845.5 C1089.23,801.22 1116.77,777.15 1206,690.5 C1233.8,663.5 1259.03,628.02 1277.45,599.04 " fill="none" id="DomainInvitation-Domain" style="stroke:#181818;stroke-width:1.0;"/></g><!--link DomainInvitation to UserDomainRole--><g id="link_DomainInvitation_UserDomainRole"><path codeLine="138" d="M402.36,895.78 C425.33,884.37 450.83,872.64 475,863.5 C567.48,828.52 678.01,800.66 750.67,784.15 " fill="none" id="DomainInvitation-to-UserDomainRole" style="stroke:#008000;stroke-width:1.0;stroke-dasharray:7.0,7.0;"/><polygon fill="#008000" points="755.83,782.98,746.1712,781.0545,750.9521,784.0782,747.9284,788.8591,755.83,782.98" style="stroke:#008000;stroke-width:1.0;"/><text fill="#000000" font-family="sans-serif" font-size="13" lengthAdjust="spacing" textLength="105" x="513.5" y="802.5669">User.on_each_login()</text></g><!--link applicant to DomainRequest--><g id="link_applicant_DomainRequest"><path codeLine="141" d="M68.23,326.33 C99.39,332.35 150.06,342.13 198.04,351.39 " fill="none" id="applicant-to-DomainRequest" style="stroke:#181818;stroke-width:1.0;"/><polygon fill="#181818" points="202.97,352.34,194.9007,346.6932,198.0622,351.3841,193.3713,354.5456,202.97,352.34" style="stroke:#181818;stroke-width:1.0;"/><text fill="#000000" font-family="sans-serif" font-size="13" font-weight="bold" lengthAdjust="spacing" textLength="63" x="104" y="328.5669">/register</text></g><!--link analyst to DomainRequest--><g id="link_analyst_DomainRequest"><path codeLine="144" d="M61.32,426.92 C91.46,421 146.21,410.24 197.86,400.09 " fill="none" id="analyst-to-DomainRequest" style="stroke:#0000FF;stroke-width:1.0;"/><polygon fill="#0000FF" points="202.85,399.11,193.2501,396.9096,197.9427,400.0686,194.7838,404.7612,202.85,399.11" style="stroke:#0000FF;stroke-width:1.0;"/><text fill="#000000" font-family="sans-serif" font-size="13" font-weight="bold" lengthAdjust="spacing" textLength="73" x="99" y="400.5669">approve()</text></g><!--link user1 to Domain--><g id="link_user1_Domain"><path codeLine="147" d="M850.29,546.5 C914.8,546.5 1125.23,546.5 1236.9,546.5 " fill="none" id="user1-to-Domain" style="stroke:#008000;stroke-width:1.0;"/><polygon fill="#008000" points="1242.14,546.5,1233.14,542.5,1237.14,546.5,1233.14,550.5,1242.14,546.5" style="stroke:#008000;stroke-width:1.0;"/><text fill="#000000" font-family="sans-serif" font-size="13" font-weight="bold" lengthAdjust="spacing" textLength="201" x="1004" y="542.5669">/domain/&lt;id&gt;/nameservers</text></g><!--link user2 to DomainInformation--><g id="link_user2_DomainInformation"><path codeLine="149" d="M344.35,51.96 C368.26,62.54 410.07,81.47 445,99.5 C535,145.95 634.38,202.52 709.49,246.39 " fill="none" id="user2-to-DomainInformation" style="stroke:#008000;stroke-width:1.0;"/><polygon fill="#008000" points="713.95,249,708.2079,240.9982,709.6363,246.4718,704.1627,247.9001,713.95,249" style="stroke:#008000;stroke-width:1.0;"/><text fill="#000000" font-family="sans-serif" font-size="13" font-weight="bold" lengthAdjust="spacing" textLength="146" x="493" y="112.5669">/domain/&lt;id&gt;/?????</text></g><!--link user3 to UserDomainRole--><g id="link_user3_UserDomainRole"><path codeLine="151" d="M344.14,786.74 C410.14,784.12 630.69,775.37 750.28,770.62 " fill="none" id="user3-to-UserDomainRole" style="stroke:#008000;stroke-width:1.0;"/><polygon fill="#008000" points="755.55,770.41,746.3973,766.7729,750.554,770.6098,746.7171,774.7665,755.55,770.41" style="stroke:#008000;stroke-width:1.0;"/><text fill="#000000" font-family="sans-serif" font-size="13" font-weight="bold" lengthAdjust="spacing" textLength="180" x="476" y="770.5669">/domain/&lt;id&gt;/users/add</text></g><!--link user3 to DomainInvitation--><g id="link_user3_DomainInvitation"><path codeLine="152" d="M324,825.87 C324,839.81 324,856 324,871.64 " fill="none" id="user3-to-DomainInvitation" style="stroke:#008000;stroke-width:1.0;"/><polygon fill="#008000" points="324,876.92,328,867.92,324,871.92,320,867.92,324,876.92" style="stroke:#008000;stroke-width:1.0;"/><text fill="#000000" font-family="sans-serif" font-size="13" font-weight="bold" lengthAdjust="spacing" textLength="180" x="222.5" y="855.8169">/domain/&lt;id&gt;/users/add</text></g><!--SRC=[XLNRRXen47tVhx32GmcAGKtUK4gLXgX2wYL2YlfGLSZipYvklJQr3MbIvTyxzgxtJXgXi9xn7fzpPiOm8THZplzmcKK2Kaki8ffdEqiIhY6sNCaeYWKpXYnLphYysUy5ZvbBaByH8SrrgZHX9F7xC4Kf_eirC8lnyOC1VOu1BezWBC_QKNQmEwNvC_BOg3JbCMU2Z6-Lj2osReCvR7DkBUXMLDaTw4rS14oLCXvolzVg2Ccc84J6XG2Nql3xW2IQESrIMs-83rg3j9j7s1fk0P6_bKyUMI0FYPgFK09qDdZbw-8G58o-vDwXwNGQlGG_dNHluV8davbwOyZ1HNmoOBWN_EDB99K5uakaKlyk9cwTkP2GxLC9ydMrlCNuumwaHpE4QOqqoPR5lp2HQfMJJohZSfgfOuIHw-t2RPGiX-lPTa6u8UXfiOSyFAoM4SY4kCEZgDy1LD12npmK-g9LuA2rh8kN6vwTBsNBx96fgbecvThOZME4YvmdYO2mGh0gOxaLxXkGbC3l_Kv926uDS9rGJIVLwVF1bhke- -oYqrpL6DITukMiGozr6hzaUOgDSwu9DUyrPNlkmh3vbZvvbA_dtVqzoG759SQLTFZygP_oxwEjEC2FwO9KDCgn6P-tpr_LNLpAphYnckbcVnFyT2-0_lGLaGrhi1dt2FgP1vn3RfyseSJ_cQi-KqfB-g_b6gSE6TNrg8anO9SRXsBZMWdmNjs3phan-88vxOeV_ke-rFZkkxERvUVLbxFGHHraMepUGBWb-OIMpbklrFt8RLtsErS9D-9bq62Hf0sgGftwwWnkFvYWf0VThrELGiwP1f23f5rWMjmNmjrOZZqEgxjK2jdIaj4QagXUqeGk1dxBvcGocMdVrA0damf6Cl64pJRwWBv5OKLB7qyYLMRMIAw-RydeezCI5GiQfD76_26DmhxPDKyMCpVRkFc8DoHYrL2NJQZB0QXsctPGtxk_5jvL4- -AqF9wg41xrdSG_Q_DZ2K9efw0w9NsLP1_]--></g></svg>