<svg xmlns="http://www.w3.org/2000/svg" xmlns:xlink="http://www.w3.org/1999/xlink" contentStyleType="text/css" data-diagram-type="CLASS" height="1018px" preserveAspectRatio="none" style="width:1356px;height:1018px;background:#FFFFFF;" version="1.1" viewBox="0 0 1356 1018" width="1356px" zoomAndPan="magnify"><defs/><g><!--class DomainRequest--><g class="entity" data-entity="DomainRequest" data-source-line="38" data-uid="ent0002" id="entity_DomainRequest"><rect fill="#F1F1F1" height="218.9688" rx="2.5" ry="2.5" style="stroke:#181818;stroke-width:0.5;" width="247.6895" x="203.77" y="256.16"/><ellipse cx="267.4536" cy="272.16" fill="#ADD1B2" rx="11" ry="11" style="stroke:#181818;stroke-width:1;"/><path d="M270.4223,277.8006 Q269.8442,278.0975 269.2036,278.2381 Q268.563,278.3944 267.8598,278.3944 Q265.3598,278.3944 264.0317,276.7537 Q262.7192,275.0975 262.7192,271.9725 Q262.7192,268.8475 264.0317,267.1912 Q265.3598,265.535 267.8598,265.535 Q268.563,265.535 269.2036,265.6912 Q269.8598,265.8475 270.4223,266.1444 L270.4223,268.8631 Q269.7973,268.285 269.2036,268.0194 Q268.6098,267.7381 267.9848,267.7381 Q266.6411,267.7381 265.9536,268.8162 Q265.2661,269.8787 265.2661,271.9725 Q265.2661,274.0662 265.9536,275.1444 Q266.6411,276.2069 267.9848,276.2069 Q268.6098,276.2069 269.2036,275.9412 Q269.7973,275.66 270.4223,275.0819 L270.4223,277.8006 Z " fill="#000000"/><text fill="#000000" font-family="sans-serif" font-size="14" lengthAdjust="spacing" textLength="111.8223" x="287.9536" y="277.0067">DomainRequest</text><line style="stroke:#181818;stroke-width:0.5;" x1="204.77" x2="450.4595" y1="288.16" y2="288.16"/><text fill="#000000" font-family="sans-serif" font-size="14" lengthAdjust="spacing" textLength="151.1084" x="209.77" y="305.1551">Request for a domain</text><line style="stroke:#181818;stroke-width:1;" x1="204.77" x2="450.4595" y1="312.4569" y2="312.4569"/><text fill="#000000" font-family="sans-serif" font-size="14" lengthAdjust="spacing" textLength="115.1787" x="209.77" y="329.452">requester (User)</text><text fill="#000000" font-family="sans-serif" font-size="14" lengthAdjust="spacing" textLength="130.8945" x="209.77" y="345.7489">investigator (User)</text><text fill="#000000" font-family="sans-serif" font-size="14" lengthAdjust="spacing" textLength="166.2021" x="209.77" y="362.0457">senior_official (Contact)</text><text fill="#000000" font-family="sans-serif" font-size="14" lengthAdjust="spacing" textLength="181.1182" x="209.77" y="378.3426">other_contacts (Contacts)</text><text fill="#000000" font-family="sans-serif" font-size="14" lengthAdjust="spacing" textLength="195.5898" x="209.77" y="394.6395">approved_domain (Domain)</text><text fill="#000000" font-family="sans-serif" font-size="14" lengthAdjust="spacing" textLength="235.6895" x="209.77" y="410.9364">requested_domain (DraftDomain)</text><text fill="#000000" font-family="sans-serif" font-size="14" lengthAdjust="spacing" textLength="198.8848" x="209.77" y="427.2332">current_websites (Websites)</text><text fill="#000000" font-family="sans-serif" font-size="14" lengthAdjust="spacing" textLength="222.0791" x="209.77" y="443.5301">alternative_domains (Websites)</text><line style="stroke:#181818;stroke-width:1;" x1="204.77" x2="450.4595" y1="450.8319" y2="450.8319"/><text fill="#000000" font-family="sans-serif" font-size="14" lengthAdjust="spacing" textLength="156.3447" x="209.77" y="467.827">Request information...</text></g><!--class User--><g class="entity" data-entity="User" data-source-line="53" data-uid="ent0003" id="entity_User"><rect fill="#F1F1F1" height="88.5938" rx="2.5" ry="2.5" style="stroke:#181818;stroke-width:0.5;" width="146.9072" x="1202.75" y="713.35"/><ellipse cx="1255.9985" cy="729.35" fill="#ADD1B2" rx="11" ry="11" style="stroke:#181818;stroke-width:1;"/><path d="M1258.9673,734.9906 Q1258.3892,735.2875 1257.7485,735.4281 Q1257.1079,735.5844 1256.4048,735.5844 Q1253.9048,735.5844 1252.5767,733.9438 Q1251.2642,732.2875 1251.2642,729.1625 Q1251.2642,726.0375 1252.5767,724.3813 Q1253.9048,722.725 1256.4048,722.725 Q1257.1079,722.725 1257.7485,722.8813 Q1258.4048,723.0375 1258.9673,723.3344 L1258.9673,726.0531 Q1258.3423,725.475 1257.7485,725.2094 Q1257.1548,724.9281 1256.5298,724.9281 Q1255.186,724.9281 1254.4985,726.0063 Q1253.811,727.0688 1253.811,729.1625 Q1253.811,731.2563 1254.4985,732.3344 Q1255.186,733.3969 1256.5298,733.3969 Q1257.1548,733.3969 1257.7485,733.1313 Q1258.3423,732.85 1258.9673,732.2719 L1258.9673,734.9906 Z " fill="#000000"/><text fill="#000000" font-family="sans-serif" font-size="14" lengthAdjust="spacing" textLength="31.9102" x="1276.4985" y="734.1967">User</text><line style="stroke:#181818;stroke-width:0.5;" x1="1203.75" x2="1348.6572" y1="745.35" y2="745.35"/><text fill="#000000" font-family="sans-serif" font-size="14" lengthAdjust="spacing" textLength="134.9072" x="1208.75" y="762.3451">Django's user class</text><line style="stroke:#181818;stroke-width:1;" x1="1203.75" x2="1348.6572" y1="769.6469" y2="769.6469"/><text fill="#000000" font-family="sans-serif" font-size="14" lengthAdjust="spacing" textLength="13.3506" x="1208.75" y="786.642">...</text><line style="stroke:#181818;stroke-width:1;" x1="1203.75" x2="1348.6572" y1="793.9438" y2="793.9438"/></g><g class="entity" data-entity="GMN4" data-source-line="60" data-uid="ent0005" id="entity_GMN4"><path d="M711.09,925.82 L711.09,1011.4841 L921.1232,1011.4841 L921.1232,935.82 L911.1232,925.82 L711.09,925.82" fill="#FEFFDD" style="stroke:#181818;stroke-width:0.5;"/><path d="M911.1232,925.82 L911.1232,935.82 L921.1232,935.82 L911.1232,925.82" fill="#FEFFDD" style="stroke:#181818;stroke-width:1;"/><text fill="#000000" font-family="sans-serif" font-size="13" lengthAdjust="spacing" textLength="155.1304" x="717.09" y="942.8869">Created by DjangoOIDC</text><text fill="#000000" font-family="sans-serif" font-size="13" lengthAdjust="spacing" textLength="151.4868" x="717.09" y="958.0197">when users arrive back</text><text fill="#000000" font-family="sans-serif" font-size="13" lengthAdjust="spacing" textLength="98.0015" x="717.09" y="973.1525">from Login.gov</text><text fill="#000000" font-family="sans-serif" font-size="13" lengthAdjust="spacing" textLength="4.1323" x="717.09" y="988.2853">&#160;</text><text fill="#000000" font-family="sans-serif" font-size="13" font-weight="bold" lengthAdjust="spacing" textLength="72.6108" x="717.09" y="1003.4181">username</text><text fill="#000000" font-family="sans-serif" font-size="13" lengthAdjust="spacing" textLength="112.29" x="793.8332" y="1003.4181">is the Login UUID</text></g><!--class Contact--><g class="entity" data-entity="Contact" data-source-line="69" data-uid="ent0009" id="entity_Contact"><rect fill="#F1F1F1" height="170.0781" rx="2.5" ry="2.5" style="stroke:#181818;stroke-width:0.5;" width="186.3438" x="234.44" y="526.61"/><ellipse cx="296.1275" cy="542.61" fill="#ADD1B2" rx="11" ry="11" style="stroke:#181818;stroke-width:1;"/><path d="M299.0963,548.2506 Q298.5181,548.5475 297.8775,548.6881 Q297.2369,548.8444 296.5338,548.8444 Q294.0338,548.8444 292.7056,547.2038 Q291.3931,545.5475 291.3931,542.4225 Q291.3931,539.2975 292.7056,537.6413 Q294.0338,535.985 296.5338,535.985 Q297.2369,535.985 297.8775,536.1413 Q298.5338,536.2975 299.0963,536.5944 L299.0963,539.3131 Q298.4713,538.735 297.8775,538.4694 Q297.2838,538.1881 296.6588,538.1881 Q295.315,538.1881 294.6275,539.2663 Q293.94,540.3288 293.94,542.4225 Q293.94,544.5163 294.6275,545.5944 Q295.315,546.6569 296.6588,546.6569 Q297.2838,546.6569 297.8775,546.3913 Q298.4713,546.11 299.0963,545.5319 L299.0963,548.2506 Z " fill="#000000"/><text fill="#000000" font-family="sans-serif" font-size="14" lengthAdjust="spacing" textLength="54.4688" x="316.6275" y="547.4567">Contact</text><line style="stroke:#181818;stroke-width:0.5;" x1="235.44" x2="419.7838" y1="558.61" y2="558.61"/><text fill="#000000" font-family="sans-serif" font-size="14" lengthAdjust="spacing" textLength="174.3438" x="240.44" y="575.6051">Contact info for a person</text><line style="stroke:#181818;stroke-width:1;" x1="235.44" x2="419.7838" y1="582.9069" y2="582.9069"/><text fill="#000000" font-family="sans-serif" font-size="14" lengthAdjust="spacing" textLength="74.0605" x="240.44" y="599.902">first_name</text><text fill="#000000" font-family="sans-serif" font-size="14" lengthAdjust="spacing" textLength="94.5068" x="240.44" y="616.1989">middle_name</text><text fill="#000000" font-family="sans-serif" font-size="14" lengthAdjust="spacing" textLength="71.9551" x="240.44" y="632.4957">last_name</text><text fill="#000000" font-family="sans-serif" font-size="14" lengthAdjust="spacing" textLength="27.3711" x="240.44" y="648.7926">title</text><text fill="#000000" font-family="sans-serif" font-size="14" lengthAdjust="spacing" textLength="38.6094" x="240.44" y="665.0895">email</text><text fill="#000000" font-family="sans-serif" font-size="14" lengthAdjust="spacing" textLength="43.8115" x="240.44" y="681.3864">phone</text><line style="stroke:#181818;stroke-width:1;" x1="235.44" x2="419.7838" y1="688.6881" y2="688.6881"/></g><!--class DraftDomain--><g class="entity" data-entity="DraftDomain" data-source-line="83" data-uid="ent0011" id="entity_DraftDomain"><rect fill="#F1F1F1" height="88.5938" rx="2.5" ry="2.5" style="stroke:#181818;stroke-width:0.5;" width="143.8789" x="255.68" y="116.35"/><ellipse cx="280.5892" cy="132.35" fill="#ADD1B2" rx="11" ry="11" style="stroke:#181818;stroke-width:1;"/><path d="M283.558,137.9906 Q282.9799,138.2875 282.3392,138.4281 Q281.6986,138.5844 280.9955,138.5844 Q278.4955,138.5844 277.1674,136.9438 Q275.8549,135.2875 275.8549,132.1625 Q275.8549,129.0375 277.1674,127.3813 Q278.4955,125.725 280.9955,125.725 Q281.6986,125.725 282.3392,125.8813 Q282.9955,126.0375 283.558,126.3344 L283.558,129.0531 Q282.933,128.475 282.3392,128.2094 Q281.7455,127.9281 281.1205,127.9281 Q279.7767,127.9281 279.0892,129.0063 Q278.4017,130.0688 278.4017,132.1625 Q278.4017,134.2563 279.0892,135.3344 Q279.7767,136.3969 281.1205,136.3969 Q281.7455,136.3969 282.3392,136.1313 Q282.933,135.85 283.558,135.2719 L283.558,137.9906 Z " fill="#000000"/><text fill="#000000" font-family="sans-serif" font-size="14" lengthAdjust="spacing" textLength="89.8584" x="296.7913" y="137.1967">DraftDomain</text><line style="stroke:#181818;stroke-width:0.5;" x1="256.68" x2="398.5589" y1="148.35" y2="148.35"/><text fill="#000000" font-family="sans-serif" font-size="14" lengthAdjust="spacing" textLength="131.8789" x="261.68" y="165.3451">Requested domain</text><line style="stroke:#181818;stroke-width:1;" x1="256.68" x2="398.5589" y1="172.6469" y2="172.6469"/><text fill="#000000" font-family="sans-serif" font-size="14" lengthAdjust="spacing" textLength="39.7031" x="261.68" y="189.642">name</text><line style="stroke:#181818;stroke-width:1;" x1="256.68" x2="398.5589" y1="196.9438" y2="196.9438"/></g><!--class Domain--><g class="entity" data-entity="Domain" data-source-line="92" data-uid="ent0014" id="entity_Domain"><rect fill="#F1F1F1" height="104.8906" rx="2.5" ry="2.5" style="stroke:#181818;stroke-width:0.5;" width="136.3389" x="1208.03" y="484.2"/><ellipse cx="1245.5362" cy="500.2" fill="#ADD1B2" rx="11" ry="11" style="stroke:#181818;stroke-width:1;"/><path d="M1248.5049,505.8406 Q1247.9268,506.1375 1247.2862,506.2781 Q1246.6455,506.4344 1245.9424,506.4344 Q1243.4424,506.4344 1242.1143,504.7938 Q1240.8018,503.1375 1240.8018,500.0125 Q1240.8018,496.8875 1242.1143,495.2313 Q1243.4424,493.575 1245.9424,493.575 Q1246.6455,493.575 1247.2862,493.7313 Q1247.9424,493.8875 1248.5049,494.1844 L1248.5049,496.9031 Q1247.8799,496.325 1247.2862,496.0594 Q1246.6924,495.7781 1246.0674,495.7781 Q1244.7237,495.7781 1244.0362,496.8563 Q1243.3487,497.9188 1243.3487,500.0125 Q1243.3487,502.1063 1244.0362,503.1844 Q1244.7237,504.2469 1246.0674,504.2469 Q1246.6924,504.2469 1247.2862,503.9813 Q1247.8799,503.7 1248.5049,503.1219 L1248.5049,505.8406 Z " fill="#000000"/><text fill="#000000" font-family="sans-serif" font-size="14" lengthAdjust="spacing" textLength="54.3252" x="1264.5375" y="505.0467">Domain</text><line style="stroke:#181818;stroke-width:0.5;" x1="1209.03" x2="1343.3689" y1="516.2" y2="516.2"/><text fill="#000000" font-family="sans-serif" font-size="14" lengthAdjust="spacing" textLength="124.3389" x="1214.03" y="533.1951">Approved domain</text><line style="stroke:#181818;stroke-width:1;" x1="1209.03" x2="1343.3689" y1="540.4969" y2="540.4969"/><text fill="#000000" font-family="sans-serif" font-size="14" lengthAdjust="spacing" textLength="39.7031" x="1214.03" y="557.492">name</text><line style="stroke:#181818;stroke-width:1;" x1="1209.03" x2="1343.3689" y1="564.7938" y2="564.7938"/><text fill="#000000" font-family="sans-serif" font-size="14" font-weight="bold" lengthAdjust="spacing" textLength="103.6738" x="1214.03" y="581.7889">EPP methods</text></g><!--class DomainInformation--><g class="entity" data-entity="DomainInformation" data-source-line="102" data-uid="ent0016" id="entity_DomainInformation"><rect fill="#F1F1F1" height="137.4844" rx="2.5" ry="2.5" style="stroke:#181818;stroke-width:0.5;" width="253.2881" x="689.46" y="238.91"/><ellipse cx="744.0484" cy="254.91" fill="#ADD1B2" rx="11" ry="11" style="stroke:#181818;stroke-width:1;"/><path d="M747.0171,260.5506 Q746.439,260.8475 745.7984,260.9881 Q745.1578,261.1444 744.4546,261.1444 Q741.9546,261.1444 740.6265,259.5037 Q739.314,257.8475 739.314,254.7225 Q739.314,251.5975 740.6265,249.9412 Q741.9546,248.285 744.4546,248.285 Q745.1578,248.285 745.7984,248.4412 Q746.4546,248.5975 747.0171,248.8944 L747.0171,251.6131 Q746.3921,251.035 745.7984,250.7694 Q745.2046,250.4881 744.5796,250.4881 Q743.2359,250.4881 742.5484,251.5662 Q741.8609,252.6287 741.8609,254.7225 Q741.8609,256.8162 742.5484,257.8944 Q743.2359,258.9569 744.5796,258.9569 Q745.2046,258.9569 745.7984,258.6912 Q746.3921,258.41 747.0171,257.8319 L747.0171,260.5506 Z " fill="#000000"/><text fill="#000000" font-family="sans-serif" font-size="14" lengthAdjust="spacing" textLength="135.6113" x="764.5484" y="259.7567">DomainInformation</text><line style="stroke:#181818;stroke-width:0.5;" x1="690.46" x2="941.7481" y1="270.91" y2="270.91"/><text fill="#000000" font-family="sans-serif" font-size="14" lengthAdjust="spacing" textLength="241.2881" x="695.46" y="287.9051">Registrar information on a domain</text><line style="stroke:#181818;stroke-width:1;" x1="690.46" x2="941.7481" y1="295.2069" y2="295.2069"/><text fill="#000000" font-family="sans-serif" font-size="14" lengthAdjust="spacing" textLength="122.1309" x="695.46" y="312.202">domain (Domain)</text><text fill="#000000" font-family="sans-serif" font-size="14" lengthAdjust="spacing" textLength="240.1533" x="695.46" y="328.4989">domain_request (DomainRequest)</text><text fill="#000000" font-family="sans-serif" font-size="14" lengthAdjust="spacing" textLength="101.5068" x="695.46" y="344.7957">security_email</text><line style="stroke:#181818;stroke-width:1;" x1="690.46" x2="941.7481" y1="352.0975" y2="352.0975"/><text fill="#000000" font-family="sans-serif" font-size="14" lengthAdjust="spacing" textLength="156.3447" x="695.46" y="369.0926">Request information...</text></g><!--class UserDomainRole--><g class="entity" data-entity="UserDomainRole" data-source-line="116" data-uid="ent0020" id="entity_UserDomainRole"><rect fill="#F1F1F1" height="121.1875" rx="2.5" ry="2.5" style="stroke:#181818;stroke-width:0.5;" width="149.0313" x="741.59" y="697.05"/><ellipse cx="756.59" cy="713.05" fill="#ADD1B2" rx="11" ry="11" style="stroke:#181818;stroke-width:1;"/><path d="M759.5588,718.6906 Q758.9806,718.9875 758.34,719.1281 Q757.6994,719.2844 756.9963,719.2844 Q754.4963,719.2844 753.1681,717.6438 Q751.8556,715.9875 751.8556,712.8625 Q751.8556,709.7375 753.1681,708.0813 Q754.4963,706.425 756.9963,706.425 Q757.6994,706.425 758.34,706.5813 Q758.9963,706.7375 759.5588,707.0344 L759.5588,709.7531 Q758.9338,709.175 758.34,708.9094 Q757.7463,708.6281 757.1213,708.6281 Q755.7775,708.6281 755.09,709.7063 Q754.4025,710.7688 754.4025,712.8625 Q754.4025,714.9563 755.09,716.0344 Q755.7775,717.0969 757.1213,717.0969 Q757.7463,717.0969 758.34,716.8313 Q758.9338,716.55 759.5588,715.9719 L759.5588,718.6906 Z " fill="#000000"/><text fill="#000000" font-family="sans-serif" font-size="14" lengthAdjust="spacing" textLength="117.0313" x="770.59" y="717.8967">UserDomainRole</text><line style="stroke:#181818;stroke-width:0.5;" x1="742.59" x2="889.6213" y1="729.05" y2="729.05"/><text fill="#000000" font-family="sans-serif" font-size="14" lengthAdjust="spacing" textLength="83.5488" x="747.59" y="746.0451">Permissions</text><line style="stroke:#181818;stroke-width:1;" x1="742.59" x2="889.6213" y1="753.3469" y2="753.3469"/><text fill="#000000" font-family="sans-serif" font-size="14" lengthAdjust="spacing" textLength="122.1309" x="747.59" y="770.342">domain (Domain)</text><text fill="#000000" font-family="sans-serif" font-size="14" lengthAdjust="spacing" textLength="77.8203" x="747.59" y="786.6389">user (User)</text><text fill="#000000" font-family="sans-serif" font-size="14" lengthAdjust="spacing" textLength="98.4717" x="747.59" y="802.9357">role="ADMIN"</text><line style="stroke:#181818;stroke-width:1;" x1="742.59" x2="889.6213" y1="810.2375" y2="810.2375"/></g><!--class DomainInvitation--><g class="entity" data-entity="DomainInvitation" data-source-line="128" data-uid="ent0024" id="entity_DomainInvitation"><rect fill="#F1F1F1" height="121.1875" rx="2.5" ry="2.5" style="stroke:#181818;stroke-width:0.5;" width="163.1289" x="246.05" y="859.05"/><ellipse cx="265.8835" cy="875.05" fill="#ADD1B2" rx="11" ry="11" style="stroke:#181818;stroke-width:1;"/><path d="M268.8523,880.6906 Q268.2742,880.9875 267.6335,881.1281 Q266.9929,881.2844 266.2898,881.2844 Q263.7898,881.2844 262.4617,879.6438 Q261.1492,877.9875 261.1492,874.8625 Q261.1492,871.7375 262.4617,870.0813 Q263.7898,868.425 266.2898,868.425 Q266.9929,868.425 267.6335,868.5813 Q268.2898,868.7375 268.8523,869.0344 L268.8523,871.7531 Q268.2273,871.175 267.6335,870.9094 Q267.0398,870.6281 266.4148,870.6281 Q265.071,870.6281 264.3835,871.7063 Q263.696,872.7688 263.696,874.8625 Q263.696,876.9563 264.3835,878.0344 Q265.071,879.0969 266.4148,879.0969 Q267.0398,879.0969 267.6335,878.8313 Q268.2273,878.55 268.8523,877.9719 L268.8523,880.6906 Z " fill="#000000"/><text fill="#000000" font-family="sans-serif" font-size="14" lengthAdjust="spacing" textLength="120.3877" x="280.9577" y="879.8967">DomainInvitation</text><line style="stroke:#181818;stroke-width:0.5;" x1="247.05" x2="408.1789" y1="891.05" y2="891.05"/><text fill="#000000" font-family="sans-serif" font-size="14" lengthAdjust="spacing" textLength="151.1289" x="252.05" y="908.0451">Email invitations sent</text><line style="stroke:#181818;stroke-width:1;" x1="247.05" x2="408.1789" y1="915.3469" y2="915.3469"/><text fill="#000000" font-family="sans-serif" font-size="14" lengthAdjust="spacing" textLength="38.6094" x="252.05" y="932.342">email</text><text fill="#000000" font-family="sans-serif" font-size="14" lengthAdjust="spacing" textLength="122.1309" x="252.05" y="948.6389">domain (Domain)</text><text fill="#000000" font-family="sans-serif" font-size="14" lengthAdjust="spacing" textLength="43.0186" x="252.05" y="964.9357">status</text><line style="stroke:#181818;stroke-width:1;" x1="247.05" x2="408.1789" y1="972.2375" y2="972.2375"/></g><!--entity applicant--><g class="entity" data-entity="applicant" data-source-line="139" data-uid="ent0027" id="entity_applicant"><ellipse cx="38.3853" cy="281" fill="#FF0000" rx="8" ry="8" style="stroke:#181818;stroke-width:0.5;"/><path d="M38.3853,289 L38.3853,316 M25.3853,297 L51.3853,297 M38.3853,316 L25.3853,331 M38.3853,316 L51.3853,331" fill="none" style="stroke:#181818;stroke-width:0.5;"/><text fill="#000000" font-family="sans-serif" font-size="14" lengthAdjust="spacing" textLength="64.7705" x="6" y="345.4951">applicant</text></g><!--entity analyst--><g class="entity" data-entity="analyst" data-source-line="142" data-uid="ent0029" id="entity_analyst"><ellipse cx="38.3846" cy="392" fill="#0000FF" rx="8" ry="8" style="stroke:#181818;stroke-width:0.5;"/><path d="M38.3846,400 L38.3846,427 M25.3846,408 L51.3846,408 M38.3846,427 L25.3846,442 M38.3846,427 L51.3846,442" fill="none" style="stroke:#181818;stroke-width:0.5;"/><text fill="#000000" font-family="sans-serif" font-size="14" lengthAdjust="spacing" textLength="50.9893" x="12.89" y="456.4951">analyst</text></g><!--entity user1--><g class="entity" data-entity="user1" data-source-line="145" data-uid="ent0031" id="entity_user1"><ellipse cx="816.1017" cy="507" fill="#008000" rx="8" ry="8" style="stroke:#181818;stroke-width:0.5;"/><path d="M816.1017,515 L816.1017,542 M803.1017,523 L829.1017,523 M816.1017,542 L803.1017,557 M816.1017,542 L829.1017,557" fill="none" style="stroke:#181818;stroke-width:0.5;"/><text fill="#000000" font-family="sans-serif" font-size="14" lengthAdjust="spacing" textLength="39.4434" x="796.38" y="571.4951">user1</text></g><!--entity user2--><g class="entity" data-entity="user2" data-source-line="147" data-uid="ent0033" id="entity_user2"><ellipse cx="327.6117" cy="14" fill="#008000" rx="8" ry="8" style="stroke:#181818;stroke-width:0.5;"/><path d="M327.6117,22 L327.6117,49 M314.6117,30 L340.6117,30 M327.6117,49 L314.6117,64 M327.6117,49 L340.6117,64" fill="none" style="stroke:#181818;stroke-width:0.5;"/><text fill="#000000" font-family="sans-serif" font-size="14" lengthAdjust="spacing" textLength="39.4434" x="307.89" y="78.4951">user2</text></g><!--entity user3--><g class="entity" data-entity="user3" data-source-line="149" data-uid="ent0035" id="entity_user3"><ellipse cx="327.6117" cy="740" fill="#008000" rx="8" ry="8" style="stroke:#181818;stroke-width:0.5;"/><path d="M327.6117,748 L327.6117,775 M314.6117,756 L340.6117,756 M327.6117,775 L314.6117,790 M327.6117,775 L340.6117,790" fill="none" style="stroke:#181818;stroke-width:0.5;"/><text fill="#000000" font-family="sans-serif" font-size="14" lengthAdjust="spacing" textLength="39.4434" x="307.89" y="804.4951">user3</text></g><!--link GMN4 to User--><g class="link" data-entity-1="GMN4" data-entity-2="User" data-source-line="60" data-uid="lnk6" id="link_GMN4_User"><path d="M921.46,967.96 C996.61,962.97 1097.57,946.66 1172.75,898.65 C1209.22,875.36 1236.91,834.09 1254.25,802.2" fill="none" id="GMN4-User" style="stroke:#181818;stroke-width:1;stroke-dasharray:7,7;"/></g><!--link User to DomainRequest--><g class="link" data-entity-1="User" data-entity-2="DomainRequest" data-source-line="67" data-uid="lnk8" id="link_User_DomainRequest"><path codeLine="67" d="M1202.44,739.17 C1192.47,736.64 1182.35,734.08 1172.75,731.65 C1119.06,718.06 740.01,632.28 689.46,609.65 C604.91,571.8 518.65,514.3 451.68,464.62" fill="none" id="User-DomainRequest" style="stroke:#181818;stroke-width:1;"/><text fill="#000000" font-family="sans-serif" font-size="13" lengthAdjust="spacing" textLength="148.9478" x="742.1" y="605.7169">requester, investigator</text></g><!--link DomainRequest to Contact--><g class="link" data-entity-1="DomainRequest" data-entity-2="Contact" data-source-line="81" data-uid="lnk10" id="link_DomainRequest_Contact"><path codeLine="81" d="M327.62,487.54 C327.62,504.56 327.62,497.92 327.62,514.3" fill="none" id="DomainRequest-Contact" style="stroke:#181818;stroke-width:1;"/><polygon fill="#181818" points="327.62,475.54,323.62,481.54,327.62,487.54,331.62,481.54,327.62,475.54" style="stroke:#181818;stroke-width:1;"/><polygon fill="#181818" points="327.62,526.3,331.62,520.3,327.62,514.3,323.62,520.3,327.62,526.3" style="stroke:#181818;stroke-width:1;"/><text fill="#000000" font-family="sans-serif" font-size="13" lengthAdjust="spacing" textLength="194.2954" x="219.12" y="505.4369">senior_official, other_contacts</text></g><!--link DraftDomain to DomainRequest--><g class="link" data-entity-1="DraftDomain" data-entity-2="DomainRequest" data-source-line="90" data-uid="lnk13" id="link_DraftDomain_DomainRequest"><path codeLine="90" d="M327.62,205.34 C327.62,220.45 327.62,238.05 327.62,255.95" fill="none" id="DraftDomain-DomainRequest" style="stroke:#181818;stroke-width:1;"/><text fill="#000000" font-family="sans-serif" font-size="13" lengthAdjust="spacing" textLength="121.1387" x="255.62" y="235.1169">requested_domain</text></g><!--link DomainRequest to Domain--><g class="link" data-entity-1="DomainRequest" data-entity-2="Domain" data-source-line="100" data-uid="lnk15" id="link_DomainRequest_Domain"><path codeLine="100" d="M451.78,384.26 C616.61,409.78 917.76,458.55 1172.75,511.65 C1184.04,514 1190.1412,515.3285 1201.7212,518.0685" fill="none" id="DomainRequest-to-Domain" style="stroke:#0000FF;stroke-width:1;stroke-dasharray:7,7;"/><polygon fill="#0000FF" points="1207.56,519.45,1199.7229,513.4852,1202.6944,518.2987,1197.8808,521.2702,1207.56,519.45" style="stroke:#0000FF;stroke-width:1;"/><text fill="#000000" font-family="sans-serif" font-size="13" lengthAdjust="spacing" textLength="63.6035" x="784.6" y="418.7869">approve()</text></g><!--link DomainInformation to Domain--><g class="link" data-entity-1="DomainInformation" data-entity-2="Domain" data-source-line="112" data-uid="lnk17" id="link_DomainInformation_Domain"><path codeLine="112" d="M943.09,320.89 C1015.15,333.23 1104.49,356.99 1172.75,402.65 C1203.42,423.16 1228.72,455.94 1246.5,483.95" fill="none" id="DomainInformation-Domain" style="stroke:#181818;stroke-width:1;"/></g><!--link DomainInformation to DomainRequest--><g class="link" data-entity-1="DomainInformation" data-entity-2="DomainRequest" data-source-line="113" data-uid="lnk18" id="link_DomainInformation_DomainRequest"><path codeLine="113" d="M689.29,338.56 C679.23,340.47 669.2,342.21 659.46,343.65 C591.13,353.76 514.16,359.22 451.67,362.18" fill="none" id="DomainInformation-DomainRequest" style="stroke:#181818;stroke-width:1;"/></g><!--link DomainRequest to DomainInformation--><g class="link" data-entity-1="DomainRequest" data-entity-2="DomainInformation" data-source-line="114" data-uid="lnk19" id="link_DomainRequest_DomainInformation"><path codeLine="114" d="M451.65,350.27 C461.74,349.04 471.77,347.82 481.46,346.65 C550.07,338.37 620.69,330.0917 683.16,322.8417" fill="none" id="DomainRequest-to-DomainInformation" style="stroke:#0000FF;stroke-width:1;stroke-dasharray:7,7;"/><polygon fill="#0000FF" points="689.12,322.15,679.7189,319.2142,684.1533,322.7264,680.6411,327.1609,689.12,322.15" style="stroke:#0000FF;stroke-width:1;"/><text fill="#000000" font-family="sans-serif" font-size="13" lengthAdjust="spacing" textLength="63.6035" x="538.96" y="322.2669">approve()</text></g><!--link UserDomainRole to User--><g class="link" data-entity-1="UserDomainRole" data-entity-2="User" data-source-line="124" data-uid="lnk21" id="link_UserDomainRole_User"><path codeLine="124" d="M890.96,757.65 C976.75,757.65 1117.38,757.65 1202.63,757.65" fill="none" id="UserDomainRole-User" style="stroke:#181818;stroke-width:1;"/></g><!--link UserDomainRole to Domain--><g class="link" data-entity-1="UserDomainRole" data-entity-2="Domain" data-source-line="125" data-uid="lnk22" id="link_UserDomainRole_Domain"><path codeLine="125" d="M890.96,722.02 C978.52,679.77 1123.21,609.97 1207.83,569.15" fill="none" id="UserDomainRole-Domain" style="stroke:#181818;stroke-width:1;"/></g><!--link DomainRequest to UserDomainRole--><g class="link" data-entity-1="DomainRequest" data-entity-2="UserDomainRole" data-source-line="126" data-uid="lnk23" id="link_DomainRequest_UserDomainRole"><path codeLine="126" d="M432.17,475.31 C439.43,486.11 446.01,497.29 451.46,508.65 C482.92,574.28 431.92,616.32 481.46,669.65 C516.37,707.23 647.9511,732.9888 735.1611,746.5388" fill="none" id="DomainRequest-to-UserDomainRole" style="stroke:#0000FF;stroke-width:1;stroke-dasharray:7,7;"/><polygon fill="#0000FF" points="741.09,747.46,732.8108,742.1257,736.1493,746.6924,731.5826,750.0308,741.09,747.46" style="stroke:#0000FF;stroke-width:1;"/><text fill="#000000" font-family="sans-serif" font-size="13" lengthAdjust="spacing" textLength="63.6035" x="538.96" y="665.7169">approve()</text></g><!--link DomainInvitation to Domain--><g class="link" data-entity-1="DomainInvitation" data-entity-2="Domain" data-source-line="136" data-uid="lnk25" id="link_DomainInvitation_Domain"><path codeLine="136" d="M409.31,919.61 C529.33,917.15 760.29,903.05 942.75,835.65 C1056.77,793.53 1085.75,772.55 1172.75,687.65 C1202.22,658.88 1228.18,620.39 1246.6,589.47" fill="none" id="DomainInvitation-Domain" style="stroke:#181818;stroke-width:1;"/></g><!--link DomainInvitation to UserDomainRole--><g class="link" data-entity-1="DomainInvitation" data-entity-2="UserDomainRole" data-source-line="137" data-uid="lnk26" id="link_DomainInvitation_UserDomainRole"><path codeLine="137" d="M409.55,882.42 C432.55,872.46 457.79,862.13 481.46,853.65 C569.42,822.15 667.3609,795.1013 735.5409,777.4813" fill="none" id="DomainInvitation-to-UserDomainRole" style="stroke:#008000;stroke-width:1;stroke-dasharray:7,7;"/><polygon fill="#008000" points="741.35,775.98,731.6354,774.3592,736.509,777.2311,733.6371,782.1047,741.35,775.98" style="stroke:#008000;stroke-width:1;"/><text fill="#000000" font-family="sans-serif" font-size="13" lengthAdjust="spacing" textLength="136.1191" x="502.46" y="795.8669">User.on_each_login()</text></g><!--link applicant to DomainRequest--><g class="link" data-entity-1="applicant" data-entity-2="DomainRequest" data-source-line="140" data-uid="lnk28" id="link_applicant_DomainRequest"><path codeLine="140" d="M71.22,316.74 C103.36,322.9 149.1372,331.6608 197.6172,340.9508" fill="none" id="applicant-to-DomainRequest" style="stroke:#181818;stroke-width:1;"/><polygon fill="#181818" points="203.51,342.08,195.4236,336.4577,198.5993,341.139,193.918,344.3147,203.51,342.08" style="stroke:#181818;stroke-width:1;"/><text fill="#000000" font-family="sans-serif" font-size="13" font-weight="bold" lengthAdjust="spacing" textLength="61.3057" x="106.77" y="318.5969">/request</text></g><!--link analyst to DomainRequest--><g class="link" data-entity-1="analyst" data-entity-2="DomainRequest" data-source-line="143" data-uid="lnk30" id="link_analyst_DomainRequest"><path codeLine="143" d="M64.37,416.78 C95.63,410.68 145.5008,400.9578 197.5808,390.8078" fill="none" id="analyst-to-DomainRequest" style="stroke:#0000FF;stroke-width:1;"/><polygon fill="#0000FF" points="203.47,389.66,193.871,387.4555,198.5623,390.6165,195.4014,395.3078,203.47,389.66" style="stroke:#0000FF;stroke-width:1;"/><text fill="#000000" font-family="sans-serif" font-size="13" font-weight="bold" lengthAdjust="spacing" textLength="71.8999" x="101.77" y="393.0669">approve()</text></g><!--link user1 to Domain--><g class="link" data-entity-1="user1" data-entity-2="Domain" data-source-line="146" data-uid="lnk32" id="link_user1_Domain"><path codeLine="146" d="M836.2,536.65 C899.03,536.65 1095.31,536.65 1201.95,536.65" fill="none" id="user1-to-Domain" style="stroke:#008000;stroke-width:1;"/><polygon fill="#008000" points="1207.95,536.65,1198.95,532.65,1202.95,536.65,1198.95,540.65,1207.95,536.65" style="stroke:#008000;stroke-width:1;"/><text fill="#000000" font-family="sans-serif" font-size="13" font-weight="bold" lengthAdjust="spacing" textLength="198.853" x="973.75" y="532.7169">/domain/&lt;id&gt;/nameservers</text></g><!--link user2 to DomainInformation--><g class="link" data-entity-1="user2" data-entity-2="DomainInformation" data-source-line="148" data-uid="lnk34" id="link_user2_DomainInformation"><path codeLine="148" d="M347.62,51.46 C372,61.63 415.44,80.29 451.46,98.65 C536.94,142.21 625.5946,193.2206 696.5246,235.4506" fill="none" id="user2-to-DomainInformation" style="stroke:#008000;stroke-width:1;"/><polygon fill="#008000" points="701.68,238.52,695.9931,230.4789,697.3838,235.9621,691.9005,237.3528,701.68,238.52" style="stroke:#008000;stroke-width:1;"/><text fill="#000000" font-family="sans-serif" font-size="13" font-weight="bold" lengthAdjust="spacing" textLength="141.7622" x="499.96" y="110.3469">/domain/&lt;id&gt;/?????</text></g><!--link user3 to UserDomainRole--><g class="link" data-entity-1="user3" data-entity-2="UserDomainRole" data-source-line="150" data-uid="lnk36" id="link_user3_UserDomainRole"><path codeLine="150" d="M347.69,769.18 C412.51,767.58 620.6818,762.4481 735.2618,759.6181" fill="none" id="user3-to-UserDomainRole" style="stroke:#008000;stroke-width:1;"/><polygon fill="#008000" points="741.26,759.47,732.164,755.6934,736.2615,759.5935,732.3615,763.691,741.26,759.47" style="stroke:#008000;stroke-width:1;"/><text fill="#000000" font-family="sans-serif" font-size="13" font-weight="bold" lengthAdjust="spacing" textLength="176.1475" x="482.46" y="757.5969">/domain/&lt;id&gt;/users/add</text></g><!--link user3 to DomainInvitation--><g class="link" data-entity-1="user3" data-entity-2="DomainInvitation" data-source-line="151" data-uid="lnk37" id="link_user3_DomainInvitation"><path codeLine="151" d="M327.62,808.23 C327.62,823.57 327.62,835.6 327.62,852.64" fill="none" id="user3-to-DomainInvitation" style="stroke:#008000;stroke-width:1;"/><polygon fill="#008000" points="327.62,858.64,331.62,849.64,327.62,853.64,323.62,849.64,327.62,858.64" style="stroke:#008000;stroke-width:1;"/><text fill="#000000" font-family="sans-serif" font-size="13" font-weight="bold" lengthAdjust="spacing" textLength="176.1475" x="228.12" y="837.9969">/domain/&lt;id&gt;/users/add</text></g><!--SRC=[XLNRRjim37ttLmZDmzgWIh3sBUWoT4qn1DYbA53iOHWCnQOTRRAKIKgwOkY_Zv8bNzCk26ABb0vv3ac52Q4UA_w7op8HK5XY5T6yt5gISmsPvKecIIQOCMIbAiRbFVpUWx7aRq98V2-K9epatezcIl57rpxGvFJ1W3v34vS7jF2IMTMn6f1SwLGL1Syu4-JqHadBCkjyocv1frbjC8tBE1_RxRGwG9xMSSbfdTzP9tR7frbXsmtPNckGDds4ZU4M4FbRUFF80jEMpF8318311aymakSIwLVCAJMRpPBdA9VZvrLQ_MIoL6yCsJkBTqOCTy2_FYTIMI2-0ghmPz5neu4X2x9v2Y1VrwiRj3zkGNeqGvZMc2RPiEmNEWgjAl99bLpEIdL8q7ArMRgDabLmDTyi2JS4DQtta8U7zIe1cHCNF4dw1QQ2rXmMRItFUpMCJ4DLFDduxbG9VR73F5NJ5mNNngOk7rnKFCy5n1M2DHxBhN1Fm9G4FdTR9I5gDSXqIZMTDf4Nmuuw7xHHqyzjJtIx6VNkTtB8w5Xafr4NPZ5glVxm-3ZNeN5V3EEhTdjtHogmMvKRLxXnx9aVq- -JZTZ3ZzcID2c4mJWzwyTUjtqQw9RSMCrqjuC9VeUJF9wlsf86hj4J4gjd6YUCswSqbky_4pFEaDAGzck-03WKPgX9z-mHULoJ1mGbm6jp1xhYnk01yx8AVfoRQqpZsNSdrwlFwoydiLi6oBGUg2Fc7jKZF0OdNgdnWTksnBTEVJUomMZSQDZ8ADPcpCpWzhs9B4RGuzeqBiovr03oQDBEC5Co1PPjK-5k89S_ZgIx9dOxmJCcBPdSGvwqIvhJvU2lPq6cqtbelkcqGP1CFA5tyW55I-AA1X6FWZGgjYYkg6_9vACZaTGB6ZdHpf1X1hLkyokUB-TkU77p0Qywn6gXBhfG5qUW-hqvG7tlFZsyooxU9Q7X3cX0HveF4FsVnfpbEQA-036gwQiW_m00]--></g></svg>